<svg width="24" height="24" viewBox="0 0 24 24" fill="none" xmlns="http://www.w3.org/2000/svg"><g clip-path="url(#clip0_2934_546)"><path d="M14.005 5.067s1.25.743 2.16 2.564a9.365 9.365 0 00-1.743-.69s1.199.954 1.582 2.095a8.627 8.627 0 00-1.366-.591s.99 1.107 1.208 1.897c0 0 .408-2.331.49-4.482a9.944 9.944 0 00-2.331-.793zm-3.59 15.261a.253.253 0 00.076-.353C7.57 15.44 6.673 8.392 6.5 5.009c0-.262.023-.353.13-.423.44-.287 1.776-.84 2.568-.98.176-.03.288.099.288.322v1.917a.011.011 0 01-.003.008c-.548.712-1.126 2.434-.692 6.414.388 3.558 1.691 7.043 2.629 7.67 1.33.89 1.911-2.757 2.042-3.537.565-3.364-.273-8.06-2.733-10.451a.013.013 0 01-.004-.01V3.733c0-.167.04-.294.193-.386.123-.049.254-.074.386-.075 1.619-.121 3.928.174 5.97 1.265.197.105.213.287.203.491-.172 3.393-1.182 9.85-4.012 14.953a.254.254 0 00.085.337c.491.314 1.166.906 1.368 1.18.025.034.01.077-.033.058-.7-.315-1.666-.572-2.895-.572s-2.195.257-2.895.572c-.043.019-.06-.02-.033-.058.2-.271.862-.853 1.352-1.17zM9.36 7.531a.006.006 0 01.007-.004l.003.001c.678.5 1.615.834 2.42.862a.02.02 0 01.017.011 10.576 10.576 0 01.686 1.637 3.707 3.707 0 00-.218.258c-1.38 1.746-1.596 4.424-1.326 6.146.29 1.85.929 3.06 1.2 2.903.008-.004.005.007 0 .02-.064.186-.284.3-.454.183-.692-.473-2.013-3.456-2.417-7.347-.238-2.285-.147-3.742.082-4.67zm2.131.139a3.997 3.997 0 01-1.996-.828.018.018 0 01-.006-.02 2.632 2.632 0 01.356-.673.007.007 0 01.005.001c.282.231.6.415.941.543a.023.023 0 01.01.007 7.71 7.71 0 01.698.963l-.001.004a.007.007 0 01-.007.003zM9.484.899a.033.033 0 00-.025.007c-.11.09-.215.185-.314.286-.01.01-.014.028.007.03 1.245.14 2.502.87 3.173 1.245.023.013.046-.089-.022-.155C11.41 1.445 10.213.982 9.484.9zM9.18 2.112a.17.17 0 01.12-.062c.417-.009 1.295.164 2.09.54.023.006.035-.096-.06-.174-.572-.476-1.7-.871-2.43-.915a.035.035 0 00-.03.013 3.967 3.967 0 00-.83 1.996.008.008 0 00.01.005c.224-.082.445-.154.644-.21a.061.061 0 00.044-.049c.065-.37.193-.725.377-1.052a.583.583 0 01.065-.092zM12 0c-.75 0-1.484.21-2.118.61-.02.012-.053.03-.063.038-.023.017-.023.028.014.035.96.184 2.009.711 3.437 1.694.037.026.036-.106-.009-.167-.274-.37-1.234-1.124-2.203-1.5a.011.011 0 01-.005-.004.012.012 0 01-.001-.006c0-.002 0-.005.002-.006A3.161 3.161 0 0112 .556a3.318 3.318 0 013.262 2.713.082.082 0 00.059.064 13.309 13.309 0 01.635.196l.002-.002.002-.002v-.003A3.988 3.988 0 0012.001 0zM6.698 22.864c-2.934-1.721-4.893-4.827-4.893-8.373 0-2.914 1.324-5.53 3.425-7.326a.45.45 0 00.156-.402L5.2 5.38a.007.007 0 00-.004-.006.007.007 0 00-.007.001C2.502 7.355.768 10.478.768 13.993c0 4.16 2.427 7.771 5.99 9.589a.007.007 0 00.006 0l.002-.002.002-.002.093-.245a.386.386 0 00-.163-.47zM5.455 8.645c-1.833 1.714-2.877 3.99-2.877 6.441 0 1.837.636 3.493 1.584 5.031l.083.134c.033.059.009.086 0 .077a9.2 9.2 0 01-2.053-5.735c-.015-2.612 1.227-5.178 3.3-6.978a.007.007 0 01.01.001l.001.004.089.649a.436.436 0 01-.137.376zm15.537-1.147a11.106 11.106 0 00-2.184-2.124.007.007 0 00-.006.002.006.006 0 00-.002.004l-.186 1.383a.451.451 0 00.156.402c2.1 1.795 3.425 4.412 3.425 7.327 0 3.545-1.959 6.65-4.893 8.371a.386.386 0 00-.162.47l.092.245.002.002.002.002a.007.007 0 00.006 0c3.563-1.818 5.99-5.43 5.99-9.589 0-2.354-.789-4.64-2.24-6.495zm-2.584.77l.089-.648.001-.004.003-.002a.007.007 0 01.007.001c2.073 1.8 3.315 4.366 3.3 6.978a9.2 9.2 0 01-2.052 5.735c-.01.01-.034-.018 0-.077.007-.014.038-.062.082-.134.948-1.538 1.584-3.194 1.584-5.03 0-2.453-1.044-4.728-2.877-6.442a.435.435 0 01-.137-.376zM16.38 23.962c-.25-1.788-2.321-2.503-4.38-2.503-2.059 0-4.13.715-4.38 2.503-.007.04.014.044.029.036 1.111-.583 2.623-.915 4.351-.915 1.728 0 3.24.332 4.351.915.015.008.036.003.029-.036z" fill="#fff"/></g><defs><clipPath id="clip0_2934_546"><path fill="#fff" d="M0 0h24v24H0z"/></clipPath></defs></svg>