<svg width="117" height="128" viewBox="0 0 117 128" fill="none" xmlns="http://www.w3.org/2000/svg"><path opacity=".2" fill-rule="evenodd" clip-rule="evenodd" d="M48.36 32.846c6.68-12.142 17.812-22.792 20.99-25.53 2.178-2.007 1.863-3.792 1.863-3.792-.454-1.89-4.148-3.08-8.878-3.442C29.795-1.624.865 23.407.03 56.002c-.273 10.654 1.325 18.471 5.102 26.405 1.155 2.368 3.83 1.685 4.117-.267.765-14.97 5.864-33.608 11.002-42.79 3.443-5.757 6.977-11.578 11.494-7.772 1.852 1.968-.97 5.357-3.946 11.774-5.128 11.606-7.248 21.917-8.76 29.39-1.59 9.188-2.126 18.797-1.382 26.785.677 11.716 5.848 19.07 9.095 16.816 2.104-1.792-1.304-3.54-.283-5.738 0 0 .634-1.265 2.076-1.268 0 0 .553.098 1.718.018 2.11-.13 1.626-3.598 1.626-3.598-1.124-12.266 1.34-27.582 1.34-27.582 2.636-17.66 8.454-33.184 15.131-45.329zm60.289-2.803s-1.093-1.751.566-3.96c0 0 .996-1.11 2.837-1.425 0 0 .488-.079 1.073-.181 0 0 2.059-.325 1.99-2.623 0 0 .04-1.986-2.992-2.282 0 0-2.792-.268-5.847 1.102 0 0-6.307 2.505-15.117 11.612-6.677 6.928-15.007 21.31-19.651 36.69-4.729 15.658-6.734 30.212-4.344 45.278 0 0 1.37 7.354 5.316 10.091 0 0 1.324.961 2.658.495 0 0 .738-.338 1.013-.81.313-.503.633-1.505-.016-2.432 0 0-.201-.329-.495-.78 0 0-.65-.994-.791-2.177 0 0-.381-2.077.574-3.346.793-1.195 1.939-1.506 1.939-1.506 19.956-6.602 37.011-26.64 38.646-51.466.647-12.412-1.372-22.502-7.359-32.28zm-19.68-7.422s3.306-2.977 5.934-4.659c0 0 1.293-.797 1.31-2.374 0 0 .065-1.513-1.7-2.993 0 0-.541-.504-.926-1.152 0 0-.589-1.05.121-2.61 0 0 .569-1.181 1.776-1.61 0 0 .565-.237 2.013-.597 0 0 .883-.127 1.386-.55.57-.506.626-1.566.321-2.288 0 0-.414-1.17-3.056-1.336 0 0-1.773-.254-4.155.301 0 0-1.754.331-4.15 1.335-1.428.771-24.283 9.69-39.313 54.388 0 0-6.565 20.647-7.135 42.632 0 0-.937 15.364 4.071 23.766 0 0 .724 1.333 2.372 2.626 0 0 1.383 1.189 2.832-.099 0 0 1.457-1.145-.044-3.52 0 0-.232-.356-.517-1.229 0 0-.357-1.366.177-2.638 0 0 .64-2.129 3.234-2.412 0 0 2.625.072 3.874-1.541 0 0 1.222-1.748.815-4.279 0 0-.303-3.252-.594-7.538-.443-7.638.02-14.446 1.896-24.47 0 0 2.726-13.334 5.447-20.071 2.721-6.737 7.798-21.412 24.012-37.082z" fill="#fff"/></svg>