<svg width="16" height="18" viewBox="0 0 16 18" fill="none" xmlns="http://www.w3.org/2000/svg"><g clip-path="url(#clip0_4058_17053)"><path fill-rule="evenodd" clip-rule="evenodd" d="M6.663 4.498c.92-1.663 2.454-3.121 2.892-3.496.3-.275.257-.52.257-.52-.063-.258-.571-.421-1.223-.47C4.105-.223.119 3.205.004 7.67c-.037 1.459.183 2.53.703 3.616.16.324.528.23.567-.037.106-2.05.808-4.602 1.516-5.86.475-.788.962-1.586 1.584-1.064.255.27-.134.733-.544 1.612-.706 1.59-.998 3.002-1.207 4.025-.219 1.259-.293 2.575-.19 3.669.093 1.604.806 2.611 1.253 2.303.29-.246-.18-.485-.039-.786 0 0 .087-.173.286-.174 0 0 .076.014.237.002.29-.017.224-.492.224-.492-.155-1.68.185-3.778.185-3.778a18.677 18.677 0 012.084-6.208zm8.307-.383s-.15-.24.078-.543c0 0 .137-.152.39-.195 0 0 .068-.01.149-.025 0 0 .284-.044.274-.36 0 0 .005-.271-.412-.312 0 0-.385-.036-.806.151 0 0-.869.343-2.083 1.59-.92.95-2.067 2.92-2.707 5.026-.652 2.144-.928 4.137-.599 6.2 0 0 .189 1.008.733 1.382 0 0 .182.132.366.068 0 0 .102-.046.14-.11a.3.3 0 00-.003-.334s-.027-.045-.068-.106c0 0-.09-.137-.109-.299 0 0-.053-.284.08-.458a.509.509 0 01.266-.206c2.75-.904 5.1-3.649 5.325-7.049.09-1.7-.189-3.081-1.014-4.42zm-2.711-1.017s.455-.408.817-.638c0 0 .178-.11.18-.325 0 0 .01-.207-.234-.41 0 0-.074-.07-.127-.158 0 0-.081-.144.017-.357 0 0 .078-.162.244-.22 0 0 .078-.033.277-.083 0 0 .122-.017.191-.075.08-.07.087-.214.045-.313 0 0-.057-.16-.421-.183 0 0-.245-.035-.573.041 0 0-.242.045-.572.183-.196.105-3.345 1.327-5.416 7.448 0 0-.905 2.828-.983 5.839 0 0-.13 2.104.56 3.255 0 0 .1.183.327.36 0 0 .19.162.39-.014 0 0 .201-.157-.006-.482 0 0-.032-.049-.07-.168 0 0-.05-.188.024-.362 0 0 .088-.291.445-.33 0 0 .362.01.534-.211 0 0 .168-.24.112-.586 0 0-.042-.445-.082-1.032-.06-1.046.003-1.979.262-3.352 0 0 .375-1.826.75-2.748.375-.923 1.075-2.933 3.309-5.079z" fill="#fff"/></g><defs><clipPath id="clip0_4058_17053"><path fill="#fff" d="M0 0h16v17.53H0z"/></clipPath></defs></svg>