<svg width="1395" height="1395" viewBox="0 0 1395 1395" fill="none" xmlns="http://www.w3.org/2000/svg"><path opacity=".7" fill-rule="evenodd" clip-rule="evenodd" d="M369.123 474.477c101.136-175.402 269.655-329.238 317.782-368.798 32.951-28.987 28.192-54.773 28.192-54.773-6.872-27.293-62.794-44.5-134.402-49.717C88.08-23.461-349.899 338.125-362.55 808.955c-4.128 153.905 20.057 266.835 77.242 381.435 17.483 34.2 57.986 24.35 62.332-3.85 11.583-216.259 88.776-485.484 166.552-618.125C-4.29 485.26 49.204 401.176 117.583 456.157c28.046 28.43-14.666 77.382-59.734 170.069-77.63 167.656-109.732 316.599-132.606 424.564-24.088 132.71-32.198 271.52-20.931 386.91 10.247 169.23 88.533 275.46 137.68 242.91 31.859-25.88-19.741-51.14-4.273-82.88 0 0 9.591-18.27 31.42-18.32 0 0 8.378 1.41 26.007.25 31.956-1.87 24.622-51.96 24.622-51.96-17.021-177.19 20.3-398.44 20.3-398.44 39.896-255.098 127.968-479.359 229.055-654.783zm912.707-40.49s-16.54-25.306 8.58-57.218c0 0 15.07-16.013 42.94-20.578 0 0 7.39-1.136 16.26-2.619 0 0 31.16-4.681 30.12-37.89 0 0 .6-28.69-45.29-32.954 0 0-42.27-3.87-88.52 15.921 0 0-95.48 36.175-228.86 167.736-101.081 100.066-227.187 307.824-297.498 529.997-71.591 226.178-101.953 436.418-65.77 654.048 0 0 20.748 106.23 80.479 145.77 0 0 20.048 13.88 40.24 7.16 0 0 11.184-4.89 15.338-11.7 4.734-7.28 9.589-21.74-.242-35.14 0 0-3.043-4.75-7.487-11.26 0 0-9.855-14.37-11.98-31.45 0 0-5.773-30.01 8.695-48.34 12.004-17.26 29.347-21.76 29.347-21.76 302.108-95.36 560.318-384.81 585.068-743.432 9.79-179.3-20.77-325.044-111.42-466.291zM983.914 326.764s50.046-42.997 89.816-67.293c0 0 19.58-11.512 19.84-34.305 0 0 .99-21.846-25.73-43.229 0 0-8.2-7.281-14.02-16.644 0 0-8.92-15.164 1.83-37.703 0 0 8.61-17.061 26.88-23.256 0 0 8.57-3.421 30.47-8.623 0 0 13.37-1.826 21-7.952 8.63-7.305 9.47-22.608 4.85-33.034 0 0-6.27-16.898-46.26-19.302 0 0-26.84-3.676-62.91 4.346 0 0-26.55 4.785-62.816 19.28-21.619 11.142-367.62 139.972-595.162 785.649 0 0-99.39 298.252-108.023 615.832 0 0-14.188 221.95 61.635 343.31 0 0 10.966 19.26 35.904 37.93 0 0 20.945 17.18 42.877-1.43 0 0 22.052-16.53-.673-50.83 0 0-3.511-5.16-7.816-17.76 0 0-5.411-19.74 2.669-38.12 0 0 9.692-30.74 48.962-34.83 0 0 39.751 1.04 58.653-22.27 0 0 18.493-25.24 12.336-61.81 0 0-4.593-46.97-8.994-108.88-6.709-110.34.313-208.68 28.714-353.48 0 0 41.266-192.61 82.46-289.932 41.194-97.322 118.051-309.303 363.508-535.664z" fill="url(#paint0_radial_4390_4244)"/><defs><radialGradient id="paint0_radial_4390_4244" cx="0" cy="0" r="1" gradientUnits="userSpaceOnUse" gradientTransform="rotate(136.18 548.6 220.647) scale(1995.09 2282.94)"><stop stop-color="#20A4FF"/><stop offset=".005" stop-color="#20A4FF"/><stop offset=".022" stop-color="#20A4FF"/><stop offset=".048" stop-color="#20A4FE"/><stop offset=".084" stop-color="#20A5FC"/><stop offset=".13" stop-color="#20A6F9"/><stop offset=".184" stop-color="#20A7F4"/><stop offset=".247" stop-color="#20A9EE"/><stop offset=".318" stop-color="#21ACE6"/><stop offset=".396" stop-color="#21AFDB"/><stop offset=".482" stop-color="#21B3CD"/><stop offset=".574" stop-color="#22B8BD"/><stop offset=".672" stop-color="#22BEA9"/><stop offset=".776" stop-color="#23C592"/><stop offset=".886" stop-color="#23CD76"/><stop offset="1" stop-color="#24D657"/></radialGradient></defs></svg>