<?xml version="1.0" encoding="utf-8"?>
<!-- Generator: Adobe Illustrator 24.1.1, SVG Export Plug-In . SVG Version: 6.00 Build 0)  -->
<svg version="1.1" xmlns="http://www.w3.org/2000/svg" xmlns:xlink="http://www.w3.org/1999/xlink" x="0px" y="0px"
	 viewBox="0 0 2091.5 1395" style="enable-background:new 0 0 2091.5 1395;" xml:space="preserve">
<style type="text/css">
	.st0{fill:#FEC600;}
	.st1{fill:#FF8500;}
	.st2{fill:#FFBC00;}
	.st3{fill:#FF8C00;}
	.st4{fill:#FFB400;}
	.st5{fill:#FC5904;}
	.st6{fill:#FFAB00;}
	.st7{fill:#FF8B00;}
	.st8{fill:#FF9F00;}
	.st9{fill:#FE8B04;}
	.st10{fill:#FB540A;}
	.st11{fill:#FF8200;}
	.st12{fill:#FF9A00;}
	.st13{fill:#FF7103;}
	.st14{fill:#FD8300;}
	.st15{fill:#F49104;}
	.st16{fill:#EAB501;}
	.st17{fill:#FF7E01;}
	.st18{fill:#E2B500;}
	.st19{fill:#93018C;}
	.st20{fill:#FF7E02;}
	.st21{fill:#24039C;}
	.st22{fill:#E79000;}
	.st23{fill:#E4B500;}
	.st24{fill:#6C0179;}
	.st25{fill:#F2881E;}
	.st26{fill:#E8540F;}
	.st27{fill:#FFA900;}
	.st28{fill:#DCD600;}
	.st29{fill:#C39900;}
	.st30{fill:#F66902;}
	.st31{fill:#560085;}
	.st32{fill:#F96E10;}
	.st33{fill:#D35932;}
	.st34{fill:#FF6305;}
	.st35{fill:#921554;}
	.st36{fill:#FE8803;}
	.st37{fill:#280175;}
	.st38{fill:#D05239;}
	.st39{fill:#971B4E;}
	.st40{fill:#843341;}
	.st41{fill:#C3AF00;}
	.st42{fill:#B401B2;}
	.st43{fill:#F88618;}
	.st44{fill:#2B0494;}
	.st45{fill:#9A0386;}
	.st46{fill:#9908C0;}
	.st47{fill:#EEB606;}
	.st48{fill:#FD9B0D;}
	.st49{fill:#DE8F01;}
	.st50{fill:#E89109;}
	.st51{fill:#E78A0F;}
	.st52{fill:#92AA00;}
	.st53{fill:#73A300;}
	.st54{fill:#CAB001;}
	.st55{fill:#C4C408;}
	.st56{fill:#C40FA7;}
	.st57{fill:#FDA907;}
	.st58{fill:#7F790C;}
	.st59{fill:#7DA300;}
	.st60{fill:#9701A2;}
	.st61{fill:#89383A;}
	.st62{fill:#8D1059;}
	.st63{fill:#C6561B;}
	.st64{fill:#493E38;}
	.st65{fill:#FD9D11;}
	.st66{fill:#E38416;}
	.st67{fill:#AE543A;}
	.st68{fill:#B4B801;}
	.st69{fill:#7203A5;}
	.st70{fill:#FF850D;}
	.st71{fill:#FEAB05;}
	.st72{fill:#E6BE01;}
	.st73{fill:#FF9006;}
	.st74{fill:#9203C6;}
	.st75{fill:#D24460;}
	.st76{fill:#FFCA08;}
	.st77{fill:#9E1E4A;}
	.st78{fill:#D5475B;}
	.st79{fill:#B05833;}
	.st80{fill:#C20BAD;}
	.st81{fill:#A31C98;}
	.st82{fill:#631364;}
	.st83{fill:#5D058A;}
	.st84{fill:#FF8601;}
	.st85{fill:#AA5040;}
	.st86{fill:#E27E05;}
	.st87{fill:#610785;}
	.st88{fill:#F58702;}
	.st89{fill:#6BA201;}
	.st90{fill:#963550;}
	.st91{fill:#ACB701;}
	.st92{fill:#C9C502;}
	.st93{fill:#F3AB06;}
	.st94{fill:#FF8B01;}
	.st95{fill:#FF8001;}
	.st96{fill:#6902AF;}
	.st97{fill:#FE7C0D;}
	.st98{fill:#912284;}
	.st99{fill:#8C1D78;}
	.st100{fill:#C0B201;}
	.st101{fill:#D25528;}
	.st102{fill:#4D384C;}
	.st103{fill:#9C3C47;}
	.st104{fill:#31943A;}
	.st105{fill:#B3A702;}
	.st106{fill:#99402E;}
	.st107{fill:#F6720F;}
	.st108{fill:#E37908;}
	.st109{fill:#FE7607;}
	.st110{fill:#FFB30F;}
	.st111{fill:#F9B702;}
	.st112{fill:#F2B502;}
	.st113{fill:#D64C55;}
	.st114{fill:#CC9A01;}
	.st115{fill:#BCA801;}
	.st116{fill:#BC07B8;}
	.st117{fill:#D98B01;}
	.st118{fill:#C15021;}
	.st119{fill:#FFA806;}
	.st120{fill:#912F58;}
	.st121{fill:#A14722;}
	.st122{fill:#9308B1;}
	.st123{fill:#B44135;}
	.st124{fill:#97297C;}
	.st125{fill:#D8A606;}
	.st126{fill:#D75822;}
	.st127{fill:#E98202;}
	.st128{fill:#4905B7;}
	.st129{fill:#3316BF;}
	.st130{fill:#EDC501;}
	.st131{fill:#368459;}
	.st132{fill:#8602C7;}
	.st133{fill:#9E14A0;}
	.st134{fill:#399E4B;}
	.st135{fill:#BD4B29;}
	.st136{fill:#E17C1D;}
	.st137{fill:#DCA506;}
	.st138{fill:#D03D65;}
	.st139{fill:#A32345;}
	.st140{fill:#580391;}
	.st141{fill:#9B9233;}
	.st142{fill:#460E96;}
	.st143{fill:#E36822;}
	.st144{fill:#3EA018;}
	.st145{fill:#DC8D01;}
	.st146{fill:#BD4059;}
	.st147{fill:#5C0D6D;}
	.st148{fill:#912271;}
	.st149{fill:#B8472E;}
	.st150{fill:#B3AC1D;}
	.st151{fill:#990290;}
	.st152{fill:#643E78;}
	.st153{fill:#9B3273;}
	.st154{fill:#AA4F17;}
	.st155{fill:#980DAA;}
	.st156{fill:#6D9902;}
	.st157{fill:#D48301;}
	.st158{fill:#D6B009;}
	.st159{fill:#948B3A;}
	.st160{fill:#62A202;}
	.st161{fill:#32645E;}
	.st162{fill:#428402;}
	.st163{fill:#D9514F;}
	.st164{fill:#C8B609;}
	.st165{fill:#DDAC02;}
	.st166{fill:#739C01;}
	.st167{fill:#2F4075;}
	.st168{fill:#C33A6E;}
	.st169{fill:#B2560D;}
	.st170{fill:#E49502;}
	.st171{fill:#A5992A;}
	.st172{fill:#B3641E;}
	.st173{fill:#306F58;}
	.st174{fill:#351CBA;}
	.st175{fill:#E4C003;}
	.st176{fill:#45A209;}
	.st177{fill:#F56811;}
	.st178{fill:#E7B90A;}
	.st179{fill:#FE6B0B;}
	.st180{fill:#FB6C0A;}
	.st181{fill:#2C2F80;}
	.st182{fill:#A1433E;}
	.st183{fill:#62377F;}
	.st184{fill:#AF5F28;}
	.st185{fill:#396481;}
	.st186{fill:#2F3879;}
	.st187{fill:#F9B60B;}
	.st188{fill:#C03178;}
	.st189{fill:#6D4672;}
	.st190{fill:#4E198E;}
	.st191{fill:#FFAD0D;}
	.st192{fill:#8A705C;}
	.st193{fill:#957F4E;}
	.st194{fill:#C6A601;}
	.st195{fill:#FEBE0A;}
	.st196{fill:#D35161;}
	.st197{fill:#8F7757;}
	.st198{fill:#CAAA09;}
	.st199{fill:#355480;}
	.st200{fill:#3626B4;}
	.st201{fill:#A33D6A;}
	.st202{fill:#982B6A;}
	.st203{fill:#BA258B;}
	.st204{fill:#A4107E;}
	.st205{fill:#FF9908;}
	.st206{fill:#D55A59;}
	.st207{fill:#379159;}
	.st208{fill:#D3A500;}
	.st209{fill:#BD2B80;}
	.st210{fill:#CC7905;}
	.st211{fill:#C1AD0D;}
	.st212{fill:#A08D45;}
	.st213{fill:#FFD515;}
	.st214{fill:#F3750A;}
	.st215{fill:#BC5904;}
	.st216{fill:#BCAB09;}
	.st217{fill:#492369;}
	.st218{fill:#FBAC08;}
	.st219{fill:#A72E8E;}
	.st220{fill:#FE780D;}
	.st221{fill:#ABA826;}
	.st222{fill:#FDA619;}
	.st223{fill:#FFBC14;}
	.st224{fill:#BB6D10;}
	.st225{fill:#B76817;}
	.st226{fill:#5D2E84;}
	.st227{fill:#F59B00;}
	.st228{fill:#F98200;}
	.st229{fill:#F59200;}
	.st230{fill:#FF9400;}
	.st231{fill:#FFA400;}
	.st232{fill:#FF8600;}
	.st233{fill:#FE5500;}
	.st234{fill:#FF7100;}
	.st235{fill:#FF4B05;}
	.st236{fill:#FA5B08;}
	.st237{fill:#FF5B00;}
	.st238{fill:#FF7701;}
	.st239{fill:#F38A08;}
	.st240{fill:#E66A03;}
	.st241{fill:#FF7700;}
	.st242{fill:#FF6000;}
	.st243{fill:#E8D400;}
	.st244{fill:#9F029D;}
	.st245{fill:#A40398;}
	.st246{fill:#710074;}
	.st247{fill:#FF7002;}
	.st248{fill:#2F08C3;}
	.st249{fill:#2F029C;}
	.st250{fill:#E89700;}
	.st251{fill:#EF9000;}
	.st252{fill:#EE9800;}
	.st253{fill:#D07400;}
	.st254{fill:#E2AB01;}
	.st255{fill:#C86C00;}
	.st256{fill:#E56E1D;}
	.st257{fill:#E67417;}
	.st258{fill:#F09116;}
	.st259{fill:#E87C11;}
	.st260{fill:#EC580C;}
	.st261{fill:#E35B0A;}
	.st262{fill:#E2D500;}
	.st263{fill:#C3B600;}
	.st264{fill:#BAB700;}
	.st265{fill:#B79900;}
	.st266{fill:#C0AB00;}
	.st267{fill:#CCAB00;}
	.st268{fill:#F96305;}
	.st269{fill:#F36305;}
	.st270{fill:#4E0087;}
	.st271{fill:#F98D12;}
	.st272{fill:#FB740C;}
	.st273{fill:#FB7909;}
	.st274{fill:#D46029;}
	.st275{fill:#FF5103;}
	.st276{fill:#FF6A03;}
	.st277{fill:#921C4F;}
	.st278{fill:#8C1855;}
	.st279{fill:#290283;}
	.st280{fill:#3A05A0;}
	.st281{fill:#CC4D40;}
	.st282{fill:#9A2347;}
	.st283{fill:#7F2E47;}
	.st284{fill:#BBB000;}
	.st285{fill:#AD9900;}
	.st286{fill:#A70593;}
	.st287{fill:#AC0A8B;}
	.st288{fill:#9307C2;}
	.st289{fill:#9D0BBB;}
	.st290{fill:#680594;}
	.st291{fill:#FFFEFD;}
	.st292{fill:#FFFEFE;}
	.st293{fill:#E19700;}
	.st294{fill:#EB900F;}
	.st295{fill:#9CAB00;}
	.st296{fill:#889700;}
	.st297{fill:#4B8200;}
	.st298{fill:#74790F;}
	.st299{fill:#B7C40A;}
	.st300{fill:#C613A1;}
	.st301{fill:#8F921A;}
	.st302{fill:#95AB00;}
	.st303{fill:#8BA900;}
	.st304{fill:#8E3B36;}
	.st305{fill:#870E5E;}
	.st306{fill:#891359;}
	.st307{fill:#D55D1E;}
	.st308{fill:#46373E;}
	.st309{fill:#3D3E3B;}
	.st310{fill:#414635;}
	.st311{fill:#847957;}
	.st312{fill:#FEAA10;}
	.st313{fill:#FE8E18;}
	.st314{fill:#DD6714;}
	.st315{fill:#E16E11;}
	.st316{fill:#ADAC00;}
	.st317{fill:#8C04C5;}
	.st318{fill:#C3444D;}
	.st319{fill:#FDAB13;}
	.st320{fill:#B45C2D;}
	.st321{fill:#C006B2;}
	.st322{fill:#A81AAA;}
	.st323{fill:#6F0F78;}
	.st324{fill:#67097F;}
	.st325{fill:#F28200;}
	.st326{fill:#A4AC00;}
	.st327{fill:#AAA400;}
	.st328{fill:#711D5B;}
	.st329{fill:#842167;}
	.st330{fill:#B2A800;}
	.st331{fill:#B6B100;}
	.st332{fill:#453252;}
	.st333{fill:#3E3640;}
	.st334{fill:#43394F;}
	.st335{fill:#2E8B26;}
	.st336{fill:#368C1E;}
	.st337{fill:#3A9135;}
	.st338{fill:#358727;}
	.st339{fill:#459F44;}
	.st340{fill:#E16304;}
	.st341{fill:#C84847;}
	.st342{fill:#D67400;}
	.st343{fill:#DA7900;}
	.st344{fill:#7A284E;}
	.st345{fill:#8C295E;}
	.st346{fill:#B76027;}
	.st347{fill:#B0393E;}
	.st348{fill:#752353;}
	.st349{fill:#400A9C;}
	.st350{fill:#360DC1;}
	.st351{fill:#3A15BE;}
	.st352{fill:#478551;}
	.st353{fill:#3A8D50;}
	.st354{fill:#3B6E53;}
	.st355{fill:#A212B3;}
	.st356{fill:#449248;}
	.st357{fill:#D86218;}
	.st358{fill:#E0A201;}
	.st359{fill:#C07307;}
	.st360{fill:#9F2742;}
	.st361{fill:#96A234;}
	.st362{fill:#A2A330;}
	.st363{fill:#8E9239;}
	.st364{fill:#350D82;}
	.st365{fill:#3B147B;}
	.st366{fill:#438C1A;}
	.st367{fill:#4A9E12;}
	.st368{fill:#C53F65;}
	.st369{fill:#58387F;}
	.st370{fill:#BB641F;}
	.st371{fill:#BF6A16;}
	.st372{fill:#838B42;}
	.st373{fill:#958847;}
	.st374{fill:#3F6557;}
	.st375{fill:#3B5D5D;}
	.st376{fill:#305B65;}
	.st377{fill:#4A9C03;}
	.st378{fill:#579C00;}
	.st379{fill:#CFB400;}
	.st380{fill:#2F3059;}
	.st381{fill:#34446C;}
	.st382{fill:#C5720A;}
	.st383{fill:#B95D02;}
	.st384{fill:#2F107F;}
	.st385{fill:#291B7A;}
	.st386{fill:#53A206;}
	.st387{fill:#2A2860;}
	.st388{fill:#262264;}
	.st389{fill:#34288F;}
	.st390{fill:#395463;}
	.st391{fill:#3E597D;}
	.st392{fill:#411A76;}
	.st393{fill:#8A8151;}
	.st394{fill:#F9940F;}
	.st395{fill:#EF860B;}
	.st396{fill:#EF5E09;}
	.st397{fill:#54268B;}
	.st398{fill:#FB5105;}
	.st399{fill:#3A05C3;}
	.st400{fill:#C67701;}
	.st401{fill:#E95D0A;}
	.st402{fill:#B6AC00;}
	.st403{fill:#FD960A;}
	.st404{fill:#2F058C;}
	.st405{fill:#A39800;}
	.st406{fill:#B3B100;}
	.st407{fill:#949800;}
	.st408{fill:#9DAB00;}
	.st409{fill:#63A202;}
	.st410{fill:#8EAF03;}
	.st411{fill:#72A401;}
	.st412{fill:#85AD08;}
	.st413{fill:#6B7D0D;}
	.st414{fill:#6A7714;}
	.st415{fill:#ABC40D;}
	.st416{fill:#9DA402;}
	.st417{fill:#8BA733;}
	.st418{fill:#617618;}
	.st419{fill:#9AAB2A;}
	.st420{fill:#56902E;}
	.st421{fill:#A5B001;}
	.st422{fill:#9AB002;}
	.st423{fill:#374937;}
	.st424{fill:#323E3E;}
	.st425{fill:#353742;}
	.st426{fill:#7A8553;}
	.st427{fill:#6D8853;}
	.st428{fill:#ACB100;}
	.st429{fill:#A5A900;}
	.st430{fill:#3C2F57;}
	.st431{fill:#3B3852;}
	.st432{fill:#408724;}
	.st433{fill:#499031;}
	.st434{fill:#509145;}
	.st435{fill:#50A13F;}
	.st436{fill:#3D0CC1;}
	.st437{fill:#2F0A87;}
	.st438{fill:#54844E;}
	.st439{fill:#47704E;}
	.st440{fill:#859E3E;}
	.st441{fill:#301979;}
	.st442{fill:#381B77;}
	.st443{fill:#50881D;}
	.st444{fill:#498525;}
	.st445{fill:#4D8C17;}
	.st446{fill:#5A9F0E;}
	.st447{fill:#4E3285;}
	.st448{fill:#542E87;}
	.st449{fill:#758948;}
	.st450{fill:#799846;}
	.st451{fill:#888A4C;}
	.st452{fill:#33295D;}
	.st453{fill:#313755;}
	.st454{fill:#2D3844;}
	.st455{fill:#412E8A;}
	.st456{fill:#3D278F;}
	.st457{fill:#49298C;}
	.st458{fill:#A9B100;}
	.st459{fill:#8DA307;}
	.st460{fill:#6DA108;}
	.st461{fill:#7DA80B;}
	.st462{fill:#5F7D10;}
	.st463{fill:#9AC410;}
	.st464{fill:#7FA935;}
	.st465{fill:#55781A;}
	.st466{fill:#629B37;}
	.st467{fill:#528323;}
	.st468{fill:#75A938;}
	.st469{fill:#628951;}
	.st470{fill:#6C954D;}
	.st471{fill:#5B9043;}
	.st472{fill:#589A3C;}
	.st473{fill:#79A23E;}
	.st474{fill:#568C13;}
	.st475{fill:#567F10;}
	.st476{fill:#659F0C;}
	.st477{fill:#6F9F44;}
</style>
<g id="Layer_1_xA0_Image_1_">
	<g>
		<path class="st0" d="M1277.82,1179.39c3.46,8.61,4.64,17.54,3.81,26.76c-10.97,14-24.7,25.32-36.84,38.18
			c-1.18,1.29-2.46,2.49-3.73,3.68c-1.19,1.28-2.46,2.49-3.71,3.71c-0.6,0.65-1.24,1.24-1.84,1.89c-1.19,1.34-2.45,2.59-3.73,3.84
			c-52.84,52.79-105.55,105.7-158.48,158.39c-5.88,5.86-10.82,13.17-19.76,15.27c-2.25,0.04-4.27-0.53-6.19-1.72
			c-1.57-1.8-2.68-3.8-3.42-6.06c-3.85-30.87-1.39-61.84-1.74-92.75c-0.45-40.62-0.18-81.25-0.06-121.88
			c0.03-8.99-0.67-18.11,2.81-26.77c1.14-2.39,2.88-4.2,5.18-5.5c7.94-3.69,16.45-3.28,24.86-3.29
			c58.38-0.11,116.76-0.14,175.14,0.03C1259.7,1173.21,1269.78,1171.99,1277.82,1179.39z"/>
		<path class="st1" d="M1277.82,1179.39c-76.54,0.01-153.07,0.02-229.61,0.03c-4.78-4.28-5.79-10.12-5.79-15.95
			c0.03-75.71-2.18-151.42,1.08-227.06c0.48-2.12,1.39-4.12,2.61-5.92c8.76-6.58,14.69-0.06,20,5.2
			c66.21,65.61,131.97,131.68,197.94,197.54c5.34,5.33,7.19,12.04,9.86,18.54C1277.4,1160.67,1278.79,1169.87,1277.82,1179.39z"/>
		<path class="st2" d="M1273.91,1151.78c-6.49-7.13-12.71-14.52-19.51-21.34c-62.09-62.24-124.26-124.4-186.48-186.52
			c-5-4.99-9.31-10.81-15.82-14.14c-1.17-2.62-0.54-4.69,1.89-6.22c9.71-4.97,20.24-3.42,30.5-3.64
			c50.44-1.07,100.95,2.17,151.35-2.14c11.22,33.74,16.95,68.59,21.59,103.71c5.23,39.61,10.94,79.15,16.31,118.75
			C1274.26,1144.03,1273.88,1147.93,1273.91,1151.78z"/>
		<path class="st3" d="M817.49,422.81c0.31-1.26,0.62-2.52,0.94-3.78c6.92-6.21,15.51-6.08,23.95-6.1
			c60.42-0.17,120.84-0.32,181.26,0.05c25.9,0.16,30,4.1,29.9,29.17c-0.3,74.69,1.45,149.4-0.88,224.08
			c-0.57,2.46-1.64,4.71-3.15,6.74c-6.1,4.93-13.44,4.78-20.68,5.06c-9.88-1.04-20.2,1.51-29.67-3.31
			c1.91-45.86-25.59-82.42-39.49-123.26c-5.5-16.16-12.71-31.33-5-48.73c2.45-5.54,0.6-11.51-1.98-16.96
			c-1.39-2.94-3.58-5.57-4.57-8.58c-13.66-41.61-42.07-57.02-84.73-49.31c-10.04,1.82-20.73,0.52-31.14,0.29
			C826.76,427.91,821.36,427.46,817.49,422.81z"/>
		<path class="st4" d="M1111.93,477.39c6.86,12.59,9.94,26.56,14.52,39.98c15.29,44.76,30.45,89.57,45.44,134.44
			c2.24,6.69,5.72,13.15,5.5,20.53c-1.45,1.25-2.59,3.22-4.59,3.42c-40.31,4.02-80.61,6.71-120.7-2.06
			c-3.37-6.08-1.83-12.71-1.84-19.09c-0.1-74.63-0.12-149.26-0.05-223.84c7.85-12.53,14.48-2.77,19.83,2.03
			C1085.24,446.44,1099.69,460.91,1111.93,477.39z"/>
		<path class="st5" d="M253,668.79c-6.8-12.65-10.1-26.62-14.39-40.13c-16.11-50.7-33.17-101.07-50.96-151.2
			c-6.85-19.3-10.24-38.8-1.82-58.62c4.88-5.16,9.25-10.64,17.98-8.39c21.63,5.56,43.77,2.48,65.71,2.99
			c9.18,1.09,20.13-1.86,24.42,10.54c0.42,75.19,0.15,150.39,0.11,225.58c0,7.12-0.03,14.3-3.24,20.96
			c-8.58,10.04-19.44,7.41-30.2,5.4C257.42,674.24,254.71,672.05,253,668.79z"/>
		<path class="st6" d="M1048.19,929.8c0.01,83.21,0.01,166.41,0.02,249.62c0,0,0.1-0.11,0.1-0.11c-7.57,6.66-16.91,5.73-25.83,5.48
			c-10.64-0.3-20.44,1.81-29.6,7.13c-5.24-35.14-10.76-70.24-15.61-105.43c-3.62-26.22-10.17-52.03-11.03-78.64
			c19.88-29.11,47.94-50.47,71.84-75.8C1041.13,929.93,1044.22,927.84,1048.19,929.8z"/>
		<path class="st7" d="M1235.85,917.78c-1.54,9.04-8.49,8.17-14.97,8.17c-27.81,0.01-55.61,0-83.42,0.03
			c-28.45,0.03-56.91,0.08-85.36,0.12c-2.48-10.46,6.4-14.67,11.83-20.22c30.11-30.71,60.79-60.87,91.01-91.47
			c11.17-10.56,21.73-21.72,32.85-32.33c7.49-7.15,12.84-5.93,16.86,3.31C1216.96,829.07,1227.1,873.26,1235.85,917.78z"/>
		<path class="st8" d="M997.5,672.47c10.39,0.02,20.79,0.05,31.18,0.07c-2.17,11.06-11.41,8.52-18.34,8.77
			c-20.06,0.73-40.16,0.42-60.24,0.22c-12.72-0.13-16.58,4.9-11.56,16.7c5.33,12.53,8.32,26.01,14.06,38.29
			c12.75,27.27,20.87,55.53,24.18,85.53c2.1,19.05,11.2,34.89,25.18,49.03c16.57,16.78,37.53,29.97,47.25,52.97
			c-4.55,6.14-11.71,5.83-18.11,7.45c-27-0.19-54.02,1.7-80.98-0.97c-11.23-46.38-22.42-92.77-33.72-139.14
			c-9.64-39.52-19.42-79.01-29.14-118.51c13.39-10.69,29.1-5.07,43.85-6.29c15.52,0.29,31.04-0.69,46.56-0.01
			C984.7,666.9,992.04,666.6,997.5,672.47z"/>
		<path class="st9" d="M603.96,921.66c7.27,22.02,12.62,44.54,15.88,67.46c4.35,30.58,10.25,60.98,11.59,91.95
			c3.76,9.04,0.12,16.33-5.95,22.6c-16.49,17.02-33.07,33.97-50.39,50.14c-4.9,4.58-10.6,10.61-17.99,2.91
			c-10.03-16.99-5.58-35.59-4.29-53.16c3.32-45.24,1.93-90.17-3.68-135.08c-0.4-3.21-0.96-6.39-1.22-9.62
			c-2.27-28.33,1.33-32.58,29.34-34.62c2.59-0.19,5.13-0.58,7.59-1.41C591.14,921.32,597.48,920.31,603.96,921.66z"/>
		<path class="st10" d="M357.94,1171.57c-5.85-17.31-5.9-35.6-8.87-53.39c-9.91-59.41-16.39-119.41-30.32-178.14
			c-0.44-1.87-0.37-3.86-0.53-5.8c0.84-0.46,1.68-0.91,2.52-1.37c4.39,1.21,6.28,4.91,6.75,8.67c2.85,22.95,17.95,37.83,33.47,52.77
			c20.02,19.27,39.26,39.34,59.12,58.77c4.86,4.76,12.09,8.7,8.13,17.68c-3.21,26.25-2.93,52.45,0.27,78.66
			c1.31,10.74,3.73,21.74-3.89,31.45c-16.8,6.99-34.29,4.05-51.6,3.55C364.59,1184.16,360.85,1178.33,357.94,1171.57z"/>
		<path class="st11" d="M931.23,672.47c-14.66,0.14-29.32,0.27-43.98,0.41c-6.65-11.22-9.1-23.99-13.21-36.12
			c-18.02-53.12-35.66-106.37-53.63-159.51c-6.07-17.95-10.5-35.83-2.92-54.44c5.42,0.06,10.85,0.12,16.27,0.19
			c9.29,11.04,13.9,24.79,20.93,37.12c10.65,18.68,20.78,36.44,40.55,48.03c14.1,8.27,21.22,25.48,18.48,40.62
			c-5.2,28.67,7.73,51.76,16.97,76.29c2.96,7.85,7.23,15.18,9.89,23.22C944.14,659.04,942,667.36,931.23,672.47z"/>
		<path class="st12" d="M1204.65,785.39c-4.46-3.98-7.93-6.74-13.89-0.55c-10.66,11.08-20.47,23.18-33.42,31.9
			c-14.67,7.26-18.32-4.09-21.9-13.71c-13.92-37.41-35.1-70.85-56.24-104.32c-2.08-3.29-4.16-6.64-6.89-9.42
			c-7.54-7.68-12.8-8.22-15.55,4.19c-1.2,5.41,1.9,17.47-11.53,11.17c-3.4-11.14-4.55-22.06,2.95-32.17v0.02
			c1.29-1.83,2.6-1.94,3.95-0.05c41.76-0.04,83.52-0.07,125.27-0.11c9.67,22.15,12.25,46.2,18.17,69.34
			C1199.23,756.04,1204.18,770.3,1204.65,785.39z"/>
		<path class="st13" d="M311.33,902.55c-4.98-11.96-7.4-24.47-8.21-37.35c-1.32-15.42-5.09-30.53-9.77-45.01
			c-13.42-41.54-11.38-84.1-11.13-126.65c0.05-8.78,2.25-16.6,9.27-22.48c19.78-8.6,40.59-2.87,60.88-4.44
			c6.75,0.87,13.9-0.1,20,3.98c3.19,13.97-8.63,9.93-14.29,10.59c-27.32,3.21-26.01,2.71-23.5,29.83
			c4.27,46.06,20.42,89.04,31.74,133.27c2.14,6.22-0.13,11.67-4.51,15.54C345.3,874.43,330.54,891.14,311.33,902.55z"/>
		<path class="st14" d="M992.87,1191.92c0.38-8.2,3.25-13.13,12.88-12.72c14.16,0.61,28.36,0.13,42.55,0.11
			c-0.02,83.14-0.05,166.29-0.08,249.43c0.67,1.85,0.25,3.35-1.42,4.46c-13.67-2.34-19.39-14.69-28.57-22.68
			c-0.97-1.45-1.81-2.99-2.56-4.57c-0.55-1.66-1.39-3.16-2.58-4.46c-5.87-23.41-4.57-47.5-5.61-71.23
			C1005.46,1283.78,996.27,1238.18,992.87,1191.92z"/>
		<path class="st16" d="M1504.03,634.13c-6.64-10.48-8.6-22.68-12.54-34.15c-14.23-41.43-28.45-82.86-42.42-124.38
			c-5.35-15.88-10.33-31.96-3.3-48.76c2.62-6.07,5.57-12.2,13.23-12.49c20.55-0.78,41.33-4.95,61.38,3.44
			c8.43,12.36,6.57,26.58,4.7,39.65c-5.81,40.63-0.76,81.71-6.56,122.35c-2.02,14.13-2.5,28.37-7.84,41.82
			C1509.19,626.17,1508.39,631.1,1504.03,634.13z"/>
		<path class="st17" d="M440.65,418.86c17.77,13.91,30.05,32.43,37.4,52.96c19.55,54.57,37.3,109.79,55.7,164.76
			c0.39,1.16,0.11,2.55,0.15,3.83c0.93,8.92,6,16.97,5.53,26.19c-2.72,4.88-7.09,3.51-9.65,1.03
			c-24.72-23.96-53.2-44.49-70.08-75.74c-8.19-47.65-12.88-95.88-31.11-141.59c-4.47-11.2-17.39-19.01-14.23-33.28
			C423.53,411.91,432.15,414.53,440.65,418.86z"/>
		<path class="st18" d="M1504.31,621.81c6.62-14.97,6.41-30.96,8.39-46.84c3.94-31.51,0.98-63.11,3.97-94.35
			c1.97-20.55,3.03-40.95,3.22-61.5c20.96-2.8,32.28-15.05,35.03-35.72c1.3,0,2.61,0.01,3.91,0.01c8.45,11.23,5.77,23.92,4.84,36.39
			c-4.78,29.62-1.87,59.48-2.54,89.22c-1.12,49.82,2.01,99.69-1.69,149.46c-4.6,12.39-12.57,9.11-19.36,3.04
			C1526.77,649.62,1512.76,638.16,1504.31,621.81z"/>
		<path class="st20" d="M603.96,921.66c-4.03,6.03-10.29,3.73-15.8,4.25c-15.85,2.95-32,2.08-47.97,3.79
			c-1.58-1.95-2.68-4.13-3.35-6.54c-3.57-44.46-0.95-88.98-1.57-133.47c-0.4-28.39-0.17-56.79-0.02-85.18
			c0.05-8.98-0.74-18.16,3.94-26.49c1.71-2.39,3.91-2.99,6.6-1.8c8.34,19.11,10.84,39.78,15.65,59.81
			c13.47,56.09,26.56,112.28,39.7,168.46C602.46,910.12,603.04,915.93,603.96,921.66z"/>
		<path class="st27" d="M1052.11,672.45c-1.32,0.02-2.63,0.03-3.95,0.05c-0.01-76.64-0.01-153.29-0.02-229.93
			c0-4.55-0.1-9.09-0.11-13.64c-0.01-6.29-2.94-9.67-9.42-9.67c-5.2,0-10.39-0.13-15.59-0.13c-68.2-0.04-136.4-0.06-204.6-0.09
			c7.49-24.42,26.93-35.09,49.57-36.04c44.44-1.85,89.02-0.7,133.54-0.38c9.72,0.07,18.96,3.3,27.35,8.49
			c1.88,3.18,5.47,2.73,8.29,3.92l-0.32-0.21c8.06,4.3,15.51,9.18,17.93,18.86c1.34,4.32,3.88,8.56,1.16,13.24
			c-6.37,5.74-3.75,13.35-3.77,20.15C1052.02,522.19,1052.1,597.32,1052.11,672.45z"/>
		<path class="st28" d="M1703.01,419.12c20.87,19.19,36.24,41.69,42.17,69.89c-4.47,7.38-11.68,12.22-17.16,18.68
			c-7.51,7.46-15.05,14.88-22.34,22.56c-1.2,1.39-2.49,2.68-3.81,3.97c-0.65,0.68-1.33,1.31-1.98,1.98
			c-8.93,8.35-17.01,17.58-26.24,25.56c-5.33,4.61-11.16,10.01-17.86,1.47c-6.37-10.69-5.8-22.52-4.28-33.95
			c3.4-25.58,4.1-51.42,8.4-76.91c3.59-21.3,2.91-21.22-17.99-24.16c-6.5-0.91-16.56,1.99-16.24-10.35
			c10.9-6.98,23.04-3.88,34.74-4.36C1674.85,413.55,1689.69,410.62,1703.01,419.12z"/>
		<path class="st29" d="M1578.66,925.92c-4.95-12.13-7.7-24.75-8.5-37.81c-10.78-35.22-0.75-69.95,2.06-104.93
			c1.55-19.3,4.83-38.2,8.52-57.11c1.22-6.27,0.98-13.12,8.1-16.4c19.18,0.65,27.3,16.77,39,27.94c2.42,3.87,3.53,7.94,1.9,12.43
			c-9.74,50.75-11.05,102.51-18.32,153.55c-1.27,8.9-0.64,18.3-9.17,24.41C1594.01,931.72,1586.05,932.04,1578.66,925.92z"/>
		<path class="st30" d="M666.02,1432.76l-1.89-0.07l-1.89,0.01c-13.63,3.88-27.52,1.17-41.27,1.68
			c-8.84-4.28-10.08-13.06-11.95-21.13c-4.39-18.94-8-38.04-10.22-57.38c4.07-30.82,11-60.92,22.99-89.73
			c17.93,1.4,37.05,20.56,38.46,38.32c0.81,10.2-2.08,20.62,1.74,30.64C665.37,1367.56,666.91,1400.11,666.02,1432.76z"/>
		<path class="st32" d="M357.94,1171.57c5.02,5.21,10.43,8.36,18.41,7.98c15.99-0.76,32.04-0.24,48.06-0.26
			c21.38-9.74,43.07-7.73,64.87-1.71c-1.12,9.92-1.57,10.17-19.43,11.06c-12.79,0.11-25.63,0.12-38.44-0.16
			c-12.16-0.26-17.04,4.87-17.42,17.16c-0.64,20.27,2.07,39.55,10.76,58.01c2.99,6.35,4.98,13.2,6.28,20.16
			c0.33,1.94,0.32,3.9,0.05,5.83c-0.4,1.85-1.14,3.59-2.1,5.22c-0.52,0.74-1.1,1.48-1.61,2.23c-1.08,1.41-2.28,2.76-3.47,4.1
			c-0.52,0.7-1.11,1.37-1.63,2.09c-0.96,1.51-1.99,2.96-2.99,4.44c-2,3.11-4.17,6.08-6.64,8.85c-8.14,8.33-15.63,17.4-25.16,24.17
			c-7.05,5-11.59,4.43-11.89-6.06c-0.29-10.17,2.46-20.57-1.74-30.52c-5.07-37.75-10.23-75.49-15.13-113.26
			C357.89,1184.52,358.17,1178.01,357.94,1171.57z"/>
		<path class="st34" d="M311.33,902.55c9.48-12.4,20.24-23.38,33.11-32.44c8.45-5.95,15.93-13.24,21.5-22.19
			c0,0,0.39-1.86,0.38-1.86c0.53-1.17,1.26-2.21,2.15-3.14c-0.03-0.02,1.32-1.38,1.3-1.41c0.84-0.99,1.75-1.9,2.68-2.82
			c0.45-0.5,0.92-0.95,1.36-1.45c0.9-1.05,1.85-2.02,2.8-3.03c0.47-0.55,0.97-1.04,1.44-1.6c0.96-1.18,1.98-2.27,3.01-3.4
			c0.53-0.61,1.07-1.16,1.61-1.79c1.14-1.32,2.34-2.5,3.61-3.68c3.65-3.27,7.45-6.07,12.8-4.62c9.29,6.22,9.13,16.64,11.13,25.88
			c4.93,22.74,5.46,46.26,12.09,68.74c1.47,4.98,1.86,10.3-2.9,14.31c-17.95,6.49-36.58,1.84-54.83,3.38
			c-14.98,0.8-30.13-1.7-44.98,2.1c0,0-1.34,0.72-1.34,0.72C314.68,923.94,311.11,913.66,311.33,902.55z"/>
		<path class="st36" d="M661.98,1335.09c-6.12-5.89-3.9-13.59-3.38-20.29c0.95-12.19-3.1-21.3-12.42-28.87
			c-8.02-6.51-13.72-15.62-22.93-20.87c-0.65-0.14-1.31-0.28-1.97-0.4c-1.21-0.61-2.32-1.38-3.36-2.25c-0.51-0.45-1-0.92-1.52-1.37
			c-1.07-0.91-2.07-1.87-3.09-2.84c-0.55-0.47-1.06-0.97-1.61-1.44c-1.18-0.95-2.27-1.96-3.4-2.98c-0.61-0.51-1.15-1.05-1.77-1.57
			c-1.3-1.08-2.48-2.21-3.69-3.38c-16.53-16.2-32.92-32.49-49.08-49.01c-5.25-5.36-11.98-10.29-10.07-19.54
			c0.58-0.87,1.15-1.7,1.76-2.57c1.82-1.31,3.77-2.2,5.91-2.79c25.49-2.71,51.01-1.2,76.5-1.04c8.99,0.06,16.23,3.12,18.47,13.01
			C653.94,1236.04,664.43,1284.88,661.98,1335.09z"/>
		<path class="st41" d="M1620.85,1176.22c-6.45-26.66-9.94-53.76-11.75-81.09c-2.89-9.7-1.88-19.37,1.4-28.61
			c13.14-37,13.09-76.52,22.21-114.12c4.19-17.25-14.39-15.97-15.72-26.99c7.79-6.24,16.85-4.75,25.74-4.32
			c2.21,0.16,4.39,0.57,6.54,1.11c26.72,6.35,27.74,6.78,23.03,33.27c-7.67,43.17-8.33,87.37-19.46,129.99
			c-20.91,22.9-36.73,47.42-27.24,80.75C1626.58,1169.64,1624.32,1173.76,1620.85,1176.22z"/>
		<path class="st43" d="M373.84,1304.15c8.49,10.74,0.49,23.95,5.76,36.41c13.45-7.01,20.26-21.55,33.13-28.71
			c3.22,1.1,6.33,3.27,6.68,6.36c3.31,29.16,20.13,53.93,26.39,81.98c2.64,11.83,7.98,25.21-4.55,35.67
			c-20.2,2.71-40-1.73-59.96-3.22C377.61,1389.88,374.14,1347.11,373.84,1304.15z"/>
		<path class="st47" d="M1559.43,80.35c-9.34,8.19-22.52-0.67-30.78,5.56c-7.72,5.83-9.43,17.97-17.94,24.41
			c-3.06,2.32-6.13,4.68-10.23,4.8c-8.43-9.87-24.82-2.02-32.13-14.41c4.15-7.42,12.58-5.55,18.77-8.56
			c13.1-6.37,17.83-16.24,10.59-28.25c-18.08-29.97-33.7-61.35-52.67-90.8c-8.43-9.82-16.47-18.81,5.03-23
			c8.38-1.64,5.82-13.49,11.02-19.13c1.51-6.17,5.93-9.28,11.62-11.04c11.22-5.63,23.27-6.81,35.4-5.32
			c5.95,0.73,14.05,1.69,12.9,10.73c-0.9,7.07-7.17,8.16-13.33,8c-9.09-0.23-18.12-0.28-24.38,7.98
			c-7.11,12.04-5.06,23.5,2.04,34.72c11.77,18.58,23.13,37.48,33.09,57.03c8.26,16.21,18.89,27.05,37.86,27.58
			C1560.42,66.74,1560.35,73.48,1559.43,80.35z"/>
		<path class="st48" d="M288.06,60.31c23.63,2.38,47.21,5.09,70.25,11.17c12.26,4.42,24.24,7.17,33.55-5.76
			c4.37-0.97,8.22-0.32,11.16,3.41c5.21,12.06-0.61,23.66-2.15,35.23c-1.34,10.06-2.43,19.96-2.01,30.06
			c-0.46,10.87,1.48,22.26-6.65,31.47c-9.52,4.13-17.7,9.87-22.64,19.4c-0.9-2.35-2.77-4.8-2.53-7.03
			c1.21-11.33-5.48-13.93-14.82-15.6c-24.03-4.29-48.5-5.95-72.19-12.17c1.85-7.68,2.53-15.81,8.57-21.85
			c20.48-5.9,39.64,2.74,59.17,5.98c14.31,2.38,20.25-2.58,22.62-16.17c2.16-12.38-2.47-18.29-14.27-20.45
			c-17.24-3.16-34.71-4.83-51.92-8.12c-7.53-1.44-15.85-1.66-19.59-10.41C282.64,72.52,282.71,65.93,288.06,60.31z"/>
		<path class="st52" d="M1808.08,676.27c4.1,5.82,4.79,12.48,4.76,19.31c2.9,65.96,0.1,131.94,0.95,197.91
			c0.08,6.46,0.38,12.97-0.94,19.36c-1.61,7.78-5.53,11.57-13.67,7.47c-12.51-11.85-28.29-21.06-32.7-39.65
			c6.49-56.58,14.51-112.96,23.66-169.16c2.17-13.36-4.23-29.36,10.27-39.64C1804.59,670.5,1806.45,673.18,1808.08,676.27z"/>
		<path class="st53" d="M1866.86,925.92c7.79,25.46,15.54,50.92,16.01,77.88c-16.84-10.15-9.21-27.76-14.19-39.2
			c-14.15,63.89-29.34,130.61-40.62,198.16c-3.14,8.69-7.74,15.86-17.92,17.19c-9.92-7.46-6.33-17.62-5.49-27.25
			c2.63-39.19,5.28-78.34,14.36-116.8c3.4-14.4,6.05-29.06,8.82-43.65c4.33-22.72,12.95-44.92,5.79-68.59
			C1845.07,919.11,1856.26,918.23,1866.86,925.92z"/>
		<path class="st54" d="M1617.35,926c0.45,0.46,0.88,0.94,1.35,1.39c5.91,5.66,16.5-1.82,20.8,6.71c3.8,7.55-1.83,15.03-3,22.46
			c-4.86,30.94-6.97,62.34-14.97,92.79c-2.13,8.1-3.44,16.44-8.54,23.32c-5.14,6.94-2.61,14.97-3.89,22.46
			c-6.88-22.25-8.7-45.43-11.93-68.3c-4.79-33.91-12.89-67.17-18.5-100.91c7.71-0.01,15.41-0.02,23.12-0.03
			C1606.99,922.59,1612.19,921.07,1617.35,926z"/>
		<path class="st57" d="M1328.41,12.49c3.93-11.37,11.15-19.37,23.09-22.53c8.29-0.66,15.76-6.41,24.55-3.93l-0.26-0.16
			c14.73,6.63,28.02,14.77,32.97,31.62c-0.49,5.67-1.19,11.29-4.98,15.93c-8.48,2.25-11.4-4.48-14.55-9.73
			c-7.28-12.11-16.67-15.72-29.09-8.2c-13.25,8.02-10.93,18.65-4.63,29.99c15.95,28.67,30.29,58.29,50.33,84.53
			c1.57,2.06,2.49,4.49,3.06,7.03c-0.57,15.73,16.27,9.34,21.88,17.21c-6.7,5.37-14.59,4.94-22.13,3.5
			c-7.46-1.43-10.42,3.09-13.68,7.95c-6.88,5.27-13.62,5.68-20.18-0.53c1.53-28.06-17.58-47.66-29.13-70.3
			c-7.05-13.81-17.2-25.98-22.09-40.98c-1.54-6.46-6.65-9.13-12.16-11.21c-6.08-2.29-13.21-4.13-12.12-12.45
			c1.27-9.66,9.77-7.26,15.34-6.43C1324.32,25.23,1327.22,20.38,1328.41,12.49z"/>
		<path class="st59" d="M1831.76,925.93c9.61,4.9,13.12,11.12,10.54,23.04c-10.08,46.58-18.39,93.55-28.1,140.21
			c-2.97,14.29-0.85,28.46-1.98,42.63c-0.55,6.85,2.54,14.46-3.83,20.23c-0.81-0.88-1.63-1.76-2.46-2.63
			c-4.6-9.1-3.38-18.95-3.43-28.56c-0.28-52.92-0.6-105.84,4.2-158.65c0.75-8.28,0.91-16.8-1.17-25.02
			c-2.51-6.6-10.6-6.37-14.28-11.56c-1.43-5.38-2.76-10.73,5.5-11.46c3.65,0.73,5.48,5.78,11.62,3.85c0-5.81,0-12.07,0-18.33
			c0.01-61.41-0.05-122.83,0.15-184.24c0.02-6.77-2.57-14.45,4.33-19.86c9.77,33.41,17.94,67.2,23.71,101.54
			c-11.31,1.14-8.16-11.33-16.95-16.49c-3.91,41.84-0.84,82.68-1.96,123.33C1815.11,915.93,1823.53,920.87,1831.76,925.93z"/>
		<path class="st65" d="M401.03,68.24c-3.86,0.01-7.72,0.02-11.58,0.03c-2.37-5.04,2.4-8.15,3.33-12.3l-0.19,0.28
			c2.04-0.85,3.55-2.19,4.04-4.45l-0.36,0.37c2.28-0.55,3.68-2,4.33-4.22l-0.28,0.22c14.85-8.99,30.59-12.08,47.55-7.25
			c10.85,0.76,14.83,13.4,23.61,15.12c8.97,1.75,17-7.4,27.18-7.65c13.64-0.33,25.4,3.25,35.89,11.66
			c4.44,3.56,7.75,8.86,14.24,9.27c-1.48,21.66-4.61,43.32,0.11,64.97c1.89,13.86,0.29,27.11-7,39.31c-1.57,1.12-3.36,1.7-5.28,1.81
			c-5.93-5.18-14.66-4.84-20.56-10.24c-5.35-22.13,4.78-42.77,6.24-64.26c1.26-18.62-12.7-29.74-29.01-22.52
			c-4.19,1.86-7.14,5.36-10.13,8.71c-14.63,15.83-20.1,13.93-30.16-10.37c-2.74-5.58-7.6-9.16-12.3-12.88
			c-6.73-4.33-13.63-7.6-21.77-4.04c-1.31,0.89-2.66,1.74-3.96,2.64c-1.18,1.03-2.42,1.99-3.65,2.97c-0.6,0.51-1.24,0.97-1.85,1.47
			C406.84,68.39,404.33,70.82,401.03,68.24z"/>
		<path class="st68" d="M1726.44,504.77c4.69-7.11,9.58-13.97,18.74-15.76c9.5,24.33,18.62,48.79,24.69,74.27
			c-10.5,3.2-10.63,12.01-10.68,20.48c-0.16,25.47-6.7,50.17-8.71,75.41c-0.53,6.71-2.88,12.68-9.36,16.14
			c-7.46,2.69-14.77,3.01-21.79-1.31c-6.78-20.94-0.79-42.51,0.16-63.15C1721.1,575.58,1721.12,539.92,1726.44,504.77z"/>
		<path class="st70" d="M634.41,75.47c28.96-8.74,54.85,5.02,60.97,35.43c2.65,13.14,8.61,16.36,19.63,18.24
			c25.38,4.31,51.1,6.8,76.05,13.57c9.63,6.95,10.03,14.24,0.83,21.89c-22.08,5.57-42.88-3.45-64.21-6.07
			c-26.46-3.25-26.38-3.93-37.92,18.76c-8.23-3.23-17.17-3.16-25.65-5.4c-3.1-13.18,2.25-25.59,3.5-38.37
			c1.01-10.31,3.69-21.56-6.26-28.8c-9.59-6.96-19.79-3.59-29.32,1.73c-2.29,1.28-4.79,1.95-7.44,1.88
			c-8.07-12.56,2.57-17.5,10.32-20.94C647.55,81.76,636.76,79.25,634.41,75.47z"/>
		<path class="st71" d="M646.34,1186.9c-4.92-7.48-12.38-7.69-20.3-7.64c-26.9,0.17-53.79,0.01-80.69-0.03
			c-1.01-1.04-1.48-2.28-1.34-3.73c0.44-1.32,1.11-2.51,1.93-3.62c0.43-0.51,0.9-1.01,1.33-1.53c0.88-0.98,1.85-1.9,2.81-2.8
			c0.46-0.46,0.96-0.89,1.42-1.34c0.88-0.94,1.84-1.81,2.81-2.66c-0.03-0.03,1.46-1.26,1.44-1.29c0.94-0.91,2.03-1.6,3.23-2.13
			c-0.01-0.02,1.92-0.3,1.92-0.3c23.45-19.1,42.93-42.29,64.85-62.97c4.7-4.43,5.31-10,5.69-15.81
			c6.46,22.16,7.01,45.26,10.53,67.88C643.92,1161.49,647.43,1173.96,646.34,1186.9z"/>
		<path class="st73" d="M667.09,173.48c3.42-3.6,5.72-8.79,12.33-7.42c7.27,1.52,5.76,7.45,6.66,12.23
			c4.48,4.02,4.06,10.71,8.22,14.9c11.24,7.84,24.81,6.8,37.25,9.89c7.19,1.78,18.15,0.07,17.32,10.75
			c-0.96,12.34-12.17,8.31-20.15,8.34c-12.38,0.04-24.6-2.61-36.15-5.99c-10.5-3.07-12.63,1.28-14.36,9.11
			c-9.63,23.36-22.76,31.65-47.27,29.85c-24.07-12.11-45.58-26.38-47.94-56.84c2.03-15.07,0.48-30.91,9.37-44.53
			c8.28,2.82,16.4,6.11,24.74,8.84c5.38,12.39-1.18,23.95-2.68,35.81c-2.26,17.9,2.33,27.07,16.34,29.48
			c16.56,2.86,20.56-8.35,23.99-21.15C657.84,195.37,655.78,181.87,667.09,173.48z"/>
		<path class="st76" d="M1282.4,186.42c-20,14.33-41.83,25.63-63.41,37.21c-15.41,8.27-31.37,3.78-40.62-10.88
			c-6.83-10.82-13.84-21.79-17.58-34.3c-4.21-9.18,2.18-16.65,4.02-24.85l-0.15,0.21c1.85-0.99,3.33-2.32,3.97-4.4l-0.26,0.18
			c16.51-8.7,32.23-18.77,48.45-27.97c5.92-3.36,13.08-8.86,18.53-0.05c5.46,8.81-2.23,12.76-8.34,16.27
			c-11.18,6.43-22.21,13.11-33.15,19.9c-1.42,1.11-2.94,2.11-4.45,3.09c-9.64,5.73-8.16,11.96-0.82,18.45
			c15.62,21.39,15.55,21.26,39.61,8.29c21.24-11.46,40.71-26.43,64.57-32.78c3.93,0.5,7.13,2.23,9.45,5.49
			c0.8,1.71,1.1,3.52,0.85,5.4C1299.16,175.53,1288.29,178.49,1282.4,186.42z"/>
		<path class="st84" d="M545.79,676.22c-1.49,0.08-2.98,0.17-4.47,0.25c-18.91,27.07-43.37,48.63-68.79,69.29
			c-1.6,1.28-3.33,2.27-5.22,3.08c-2.06,0.68-4.14,0.91-6.29,0.76c-8.2-1.48-11.61-7.8-13.96-14.59
			c-5.06-14.63-9.19-29.55-12.75-44.62c-2.92-12.35,2.32-18.22,14.67-19.03c14.1-0.92,28.42,1.63,42.28-2.78
			c15.41-3.2,30.81-0.85,46.22,0.02c0.55-9.61-6.1-18.31-3.58-28.18C539.83,651.7,543.98,663.57,545.79,676.22z"/>
		<path class="st88" d="M1239.26,1245.63c12.84-14.53,24.27-30.58,42.37-39.47c6.81,38.84,14.57,77.58,12.44,117.38
			c-1.63,1.36-3.32,1.38-5.08,0.26c-5.32-7.37-3.3-15.97-4.04-24.14c-0.44-4.86,1.31-11.61-4.99-13.08
			c-4.9-1.14-7.32,4.49-9.23,8.43c-6.56,13.55-17.99,23.19-27.3,34.52c-4.6,5.6-9.8,10.39-18.08,7.47
			c-8.57-6.61-4.44-14.61-3.04-22.73C1226.33,1290.97,1236.93,1269.32,1239.26,1245.63z"/>
		<path class="st89" d="M1824.03,1163.79c0.44-21.33,7.27-41.72,9.42-62.71c1.72-16.72,7.83-32.2,10.79-48.58
			c5.5-30.33,10.35-61.05,20.77-90.34c0.34-0.94,1.98-1.42,3.79-2.64c7.26,9.6,7.69,21.22,9.62,32.27c0.77,4.38-0.31,9.2,4.45,12.01
			c4.58,17.94,7.31,36.13,7.56,54.66c-15.75-6.49-7.06-22.47-13.5-32.84c-7.7,36.19-15.17,72.59-21.56,109.25
			C1848.56,1148.45,1841.42,1161.7,1824.03,1163.79z"/>
		<path class="st91" d="M1742.1,672.48c6.87-14.39,4.11-30.36,7.25-45.49c4.01-19.38,4.48-39.53,5.88-59.4
			c0.28-4.02-0.5-7.89,3.65-9.97c5.99-3,6.77,4.81,11,5.65c13.67,34.22,25.58,69.03,35.38,104.56c-0.72,0.78-1.43,1.57-2.15,2.35
			c-9.98,7.81-21.68,7.94-33.5,7.55c-7.47-0.04-14.98,0.41-22.32-1.56C1745.21,675.46,1743.48,674.21,1742.1,672.48z"/>
		<path class="st93" d="M1430.79,154.24c-6.48-0.25-13.36,0.79-19.33-1.07c-8.24-2.56-11.58-8.2-3.38-15.38
			c34.99-22.82,34.44-22.5,12.56-60.68c-7.63-13.32-21.69-24.48-18.26-42.72c1.28-5.67-1.37-12.39,4.48-16.85
			c15.35-1.36,17.1,14.83,26.84,20.74c14.69,18.77,25.9,39.57,35.5,61.29c4.87,5.77,11.55,3.53,17.53,3.68
			c8.11,0.21,13.08,3.38,13.76,11.87c0,0,0.03-0.02,0.03-0.02c-3.22,3.32-8.79-0.01-11.71,4.14c-17.57-0.67-30.02,5.77-37.54,22.89
			C1448.13,149.27,1439.81,153.87,1430.79,154.24z"/>
		<path class="st94" d="M440.65,418.86c-9.31,0.09-18.62,0.18-27.92,0.27c-15.65,11.13-33.44,3.48-50.09,5.74
			c-15.86,0.44-31.74,0.27-47.6-0.09c-7.51-0.17-15.48,0.09-20.65-7.11c-2.32-14.15,11.69-18.3,17.37-28.12
			c-9-1.71-17.85-0.02-26.68-0.25c-7.54,0.33-15.05,0.24-22.57,0.22c-10.42-0.27-21.51,2.74-30.11-6.21
			c29.58-3.5,59.27-0.93,88.91-1.48c12.26-0.23,24.54,0.17,36.81,0.55C390.52,383.39,417.99,395.71,440.65,418.86z"/>
		<path class="st95" d="M950.11,930.52c4.62-6.26,11.42-4.51,17.57-4.55c21.62-0.15,43.25-0.05,64.87-0.04
			c1.76,3.47,10.25,0.14,7.88,7.79c-23.26,26.19-47.84,51.04-74.2,74.13C960.86,982.08,955.48,956.3,950.11,930.52z"/>
		<path class="st97" d="M614.83,161.85c-15.33,6.18-16.36,5.73-19.19-8.39c-6.55-7.14-4.52-15.63-3.51-23.82
			c0.86-7.01,2.43-13.93,2.22-21.07c-0.29-10.05-3.57-17.72-14.95-18.93c-11.13-1.18-18,3.4-21.98,14.24
			c-3.8,10.35,0.5,24.07-12.3,30.79c-7.75-19.18-2.95-39-2.65-58.55c0.04-2.31,4.12-4.55,6.32-6.83
			c21.79-13.03,36.39-12.57,55.28,1.76c8.75,11.91,18.91,13.85,30.68,4.34c0,0-0.34,0.07-0.34,0.07c0.63,0.07,1.28,0.05,1.88,0.22
			c5.65,1.67,14.83-3.04,16.53,4.9c2.11,9.87-8.69,5.98-13.39,8.74c-7.66,4.51-16.35,7.73-15.66,18.96
			C630.67,127.8,628.19,145.73,614.83,161.85z"/>
		<path class="st100" d="M1632.37,1266.24c-6.34-28.64-9.38-57.7-11.24-86.92c8.8-7.19,19.09-5.33,29.15-4.85
			c2.2,0.15,4.36,0.55,6.5,1.07c28.51,6.7,28.93,6.8,22.44,35.63c-4.88,21.67-2.45,45.53-18.33,64.05
			C1647.56,1284.48,1643.12,1265.31,1632.37,1266.24z"/>
		<path class="st104" d="M1925.79,1377.51c2.48,4.13,2.01,8.77,2.2,13.25c2.76,64.75,5.58,129.49,8.11,194.25
			c0.56,14.2,1,28.49-2.42,42.5c-5.53,14.09-1.99,28.74-2.39,43.11c-0.68,24.43-0.44,24.66-26.52,24.56
			c-3.45-0.36-6.73-1.24-9.6-3.28c-4.37-16.06,2.18-31.12,4.34-46.6c2.47-17.71,4.88-35.44,6.29-53.3c0.53-2.16,1.39-4.18,2.5-6.11
			c13.04-12.76,15.63-28.47,15.68-46.18c0.09-31.8-1.72-63.42-4.31-95.07c-0.49-4.67,0.21-9.32,0.07-13.99
			C1921.12,1412.86,1914.17,1394.12,1925.79,1377.51z"/>
		<path class="st105" d="M1632.37,1266.24c1.06-3.22,0.68-9.01,6.63-4.56c6.13,4.59,10.2,11.62,17.34,15.1
			c13,8.21,27.67,15.09,27.34,34.05c-14.07,27.44-18.31,57.73-25.67,87.14c-1.67,6.66,1.54,19.25-13.2,15.24
			c-0.49-3.89,0.65-8.22-3.09-11.22C1636.33,1356.91,1635.77,1311.47,1632.37,1266.24z"/>
		<path class="st107" d="M288.05,130.96c-1.31,7.08,4.16,16.94-8.04,19.54c-28.65-4.3-57.41-8.05-85.94-13.08
			c-20.26-3.57-29.38-17.29-26.77-37.7c1.23-9.59,2.64-19.18,4.64-28.63c1.45-6.84,3.02-14.08,10.8-17.15
			c5.89,5,11.42,10.31,14.89,17.41c0.49,1.89,1.13,3.86,0.79,5.74c-5.89,32.04-2.97,31.72,29.33,37.89
			c13.97,2.67,28.2,3.71,42.15,6.53C276.86,122.92,284.12,123.73,288.05,130.96z"/>
		<path class="st109" d="M369.56,185.3c1.13-19.14,1.13-19.14,19.91-19.64c4.87,4.11,4.38,10.49,6.6,15.72
			c3.91,9.22,12.1,10.88,20.6,11.56c9.13,0.73,14.18-4.66,17.02-12.7c2.5-7.07,2.65-15.68,12-18.31c8.53-1.31,16.64-1.52,21.02,7.98
			c3.44,11.27-1.38,24.89,9.68,33.99c3.58,3.26,8.37,4.01,12.55,6.06c1.86,1.04,3.07,2.57,3.71,4.59
			c-1.12,14.37-9.87,16.83-21.96,14.09c-20.28-9.22-20.28-9.22-50.91-7.85C393.93,221.94,378,210.68,369.56,185.3z"/>
		<path class="st110" d="M1301.52,161.82c-2.78-1.42-5.55-2.85-8.33-4.27c-2.72-7.22-4.45-14.7-7.8-21.82
			c-6.05-12.83-14.39-19.19-28.83-14.65c-7.81-3.63-14.4-7.94-9.95-18.24c0.88-0.92,1.58-2.2,2.65-2.72
			c9.79-4.72,12.99-10.48,10.63-22.72c-4.95-25.62,10.29-47.47,34.63-54.83c5.67-1.71,11.64-2.78,17.11-1.25
			c8.98,2.51,12.9-2.68,16.78-8.84c1.19,10.1-0.64,16.98-13.37,13.23c-2.34-0.69-5.12-0.16-7.65,0.14c-2.83,0.34-4.77,2.14-4.9,4.99
			c-0.13,2.75,1.25,5.04,4.2,5.52c5.12,0.83,10,2.2,14.6,4.68c5.05,2.72,7.77,6.58,7.17,12.45c-4.16,0.99-7.61-0.98-10.95-2.87
			c-9.36-5.3-17.23-2.98-24.51,4.14c-7.61,7.44-7.3,15.64-3.73,24.91c5.3,13.77,16.66,24.94,17.42,40.67
			C1305.95,134.33,1311.19,149.01,1301.52,161.82z"/>
		<path class="st114" d="M1593.95,711.49c-6.86,0.67-8.05,5.41-7.74,11.03c0.55,9.81-0.38,19.25-5.68,27.89
			c-0.97,1.59-2.1,3.88-1.66,5.42c5.6,19.45-6.27,37.44-4.52,56.58c0.7,7.64,0.08,15.24-2.76,22.77
			c-6.56,17.36-1.04,35.27-1.43,52.93c-5.91-15.47-9.49-31.5-11.4-47.93c-8.61-49.07-4.59-98.59-5.02-147.94
			c-0.05-6.23-0.03-13.2,7.56-16.22C1576.55,683.79,1590.62,692.7,1593.95,711.49z"/>
		<path class="st115" d="M1652.44,1179.31c-10.44,0-20.87,0.01-31.31,0.01c-0.92-0.96-1.01-1.99-0.29-3.09
			c0.33-12.23,0.86-24.25-2.57-36.47c-3.24-11.55-1.19-22.58,9.23-31.43c7.77-6.6,15.81-13.41,21.04-22.59
			c6.08-7.15,8.21-20.47,22.7-14.51c2.22,2.52,3.84,5.56,3.41,8.79C1670.16,1113.76,1667.1,1147.84,1652.44,1179.31z"/>
		<path class="st119" d="M470.7,228.64c10.65-0.5,18.44-4.56,20.16-16.18c4.83-9.1,16.52-11.4,20.8-21.04
			c7.06-6.28,12.04-15.14,21.96-17.9c1.48,0.04,2.96,0.08,4.44,0.12c5.17,5.4,3.61,11.93,2.72,18.14
			c-1.55,10.82,1.9,18.92,12.05,23.48c11.29,5.07,19.68,0.88,26.29-8.72c2.1-3.05,3.95-6.78,8.75-6.1
			c-0.7,9.48,2.35,17.03,9.67,23.62c11.3,10.18,21.25,21.83,33.42,31.11c-12.64,1.39-22.88-3.72-31.06-12.66
			c-5.19-5.67-9.18-6.41-16.51-2.95c-19.87,9.37-39.4,7.66-55.4-8.24c-6.99-6.95-12.27-6.58-20.23-2.77
			C495.72,234.29,483.06,235.39,470.7,228.64z"/>
		<path class="st125" d="M1559.43,80.35c-7.11-5.28-3.56-12.95-4.4-19.64c12.3-17.75,9.17-35.26-0.88-52.66
			c-2.27-12.77-8.95-25.69,1.29-38c3.17-1.49,7.16-1.85,8.99,0.84c11.35,16.66,23.32,10.91,35.96,1.9
			c5.29-3.78,11.41-6.18,18.24-5.76c16.36,8.75,16.79,12.54,2.49,22.12c-2.59,1.74-5.43,3.13-7.5,5.58
			c-3.07,2.31-6.17,4.57-9.2,6.93c-5.06,3.95-12.52,5.07-15.52,11.18c-2.82,5.76,2.24,11.03,3.07,16.69
			C1595.24,51.84,1583.52,70.36,1559.43,80.35z"/>
		<path class="st127" d="M1289.88,1323.54c1.4,0,2.79,0,4.19,0c4.16,33.36,4.71,66.86,4.12,100.41c-0.99,7.43-5.97,8.93-12.48,8.8
			c-10.29-0.19-20.6-0.02-30.9-0.01c-4.42,4.11-9.34,4.33-14.6,1.88c-5.58-5.01-3.71-10.92-0.68-15.78
			C1258.62,1388.27,1269.21,1353.24,1289.88,1323.54z"/>
		<path class="st130" d="M1554.92,383.4c0.12,35.65,0.12,35.65-35.03,35.72c-18.59-0.01-37.19,0.45-55.75-0.23
			c-7.93-0.29-13.44,2.59-18.39,7.96c4.24-24.62,24.89-43.19,51.09-44.17C1516.17,381.96,1535.56,383.1,1554.92,383.4z"/>
		<path class="st144" d="M1925.79,1377.51c-0.25,18.45-0.5,36.9-0.75,55.35c-8.97,7.29-19.59,5-29.8,5.2
			c-4.52-0.43-8.97-1.15-12.62-4.18c1.43-30.04,11.02-58.52,16.92-87.71c15.09-15.07,18.37-32.57,13.78-53.3
			c-2.37-10.71-4.62-23.21,4.87-33c4.71,9.6,4.52,20.23,5.05,30.36C1924.76,1319.29,1925.03,1348.41,1925.79,1377.51z"/>
		<path class="st156" d="M1831.76,925.93c-19.65,0.87-20.33-1.14-19.47-19.52c4.71-19.12,6.91-38.85,14.2-57.35
			c2.11-5.35,3.21-11.35,7.46-15.42c4.57-4.38,9.25-4.84,11.18,2.72c2.29,8.98,3.23,18.31,7,26.91
			c5.33,15.12,9.69,30.47,11.05,46.54c2.91,3.52,0.41,8.43,3.08,12.01c0.2,1.36,0.4,2.72,0.59,4.08
			C1855.16,925.92,1843.46,925.92,1831.76,925.93z"/>
		<path class="st160" d="M1851.28,1136.46c-0.52-10.36,0.75-20.4,3.67-30.46c8.59-29.56,10.07-60.7,19.67-90.06
			c0.76-2.32,0.51-5.17,5.58-5.96c5.09,15.62,1.81,33.51,10.23,48.48c4.38,17.85,7.33,35.91,7.64,54.33
			c-15.07-8.34-19.32,6.76-27.7,12.85c-1.16,1.3-2.42,2.49-3.69,3.68c-0.62,0.6-1.28,1.17-1.91,1.77
			C1860.68,1133.86,1857.51,1139.06,1851.28,1136.46z"/>
		<path class="st162" d="M1866.86,1124.74c6.09-10.19,15.8-16.76,23.33-25.18c6.28,3.31,2,11.05,7.89,13.24
			c4.22,20.33,7.71,40.77,8.33,61.6c1.34,2.26,1.11,4.33-0.71,6.24c-8.29,5.5-17.7,3.64-26.76,4.14
			c-6.75,0.04-13.48-0.06-19.55-3.67c-10.4-18.26,0.55-35.09,3.57-52.46l0.01-0.01C1864.33,1127.39,1865.49,1125.97,1866.86,1124.74
			z"/>
		<path class="st165" d="M1566.68,680.34c-2.84-0.45-6.78-3.25-7.5,2.03c-0.7,5.1-0.29,10.37-0.3,15.56
			c-0.04,47.42-0.07,94.84-0.11,142.25c-3.79-5.57-4.11-11.94-4.24-18.36c-8.58-46.88-4.36-94.27-5.15-138.46
			c-4.16,9.66-9.36,20.34-25.75,16.5c-6.45-21.94-15.16-43.2-19.6-65.74c0.09-4.11,0.19-8.22,0.28-12.32
			c13.34,9.18,23.08,22.18,34.9,32.98c4.67,4.26,8.36,10.04,15.77,9.92c5.65-1.41,10.18-7.05,16.89-4.51
			c3.98,2.89,5.72,6.63,4.39,11.54C1574.14,675.78,1570.97,678.69,1566.68,680.34z"/>
		<path class="st166" d="M1852.13,863.28c-8.33-7.74-5.27-20.34-11.95-30.08c-7.81,8.15-9.51,17.93-11.37,26.75
			c-2.66,12.59-10.43,23.62-10.33,37.03c0.03,3.4-2.6,7.27-6.2,9.42c0-39.37,0.08-78.73-0.05-118.1
			c-0.03-9.5,1.02-17.93,12.18-20.82c7.57,8.85,3.29,21.94,12.14,29.63C1843.94,818.66,1848.84,840.78,1852.13,863.28z"/>
		<path class="st175" d="M1523.63,699.87c13.63-0.99,17.23-16.56,30.9-21.03c0,48.29,0,95.63,0,142.98
			C1542.76,781.55,1531.97,741.02,1523.63,699.87z"/>
		<path class="st176" d="M1905.1,1179.08c0.44-1.56,0.88-3.12,1.32-4.68c5.77,28.24,10.21,56.66,11.78,85.48
			c-0.61,15.24-1.56,30.28,2.46,45.51c4.78,18.12-2.14,32.36-18.72,41.57c-13.78,2.59-15.75-7.96-19.06-17.07
			c-1.19-18.46,5.22-35.6,9.23-53.17c13.98-5.97,17.28-17.56,15.19-31.05c-2.18-14.06-2.94-28.29-5.43-42.31
			C1900.38,1195.04,1899.63,1186.58,1905.1,1179.08z"/>
		<path class="st177" d="M195.32,68.66c-9.14-0.68-13.13-5.76-12.59-14.72c5.56-7.53,13.49-10.13,22.14-8.61
			c27.75,4.88,55.8,8.09,83.18,14.98c-0.05,6.71-0.1,13.42-0.15,20.13c-2.33,2.4-5.33,4.17-8.49,3.86
			C250.94,81.52,222.25,79.79,195.32,68.66z"/>
		<path class="st178" d="M1558.51-77.17c-1.06,7.37-10.05,16.3,4.09,20.66c-4.6,8.58-1.52,17.88-2.5,26.8
			c-8.5,6.81-5.07,15.97-4.14,24.23c0.54,4.8,3.28,9.38,3.07,14.5c-9.46,2.76-10.09-5.9-12.69-10.69
			c-7.65-14.1-16.79-27.32-24.25-41.47c-8.38-15.88-19.06-23.87-37.15-15.24c-2.35,1.12-5.03,0.49-7.38-0.79
			c6.42-14.22,18.68-13.84,31.18-12.16c4.07,0.55,8.28,1.75,9.32-3.38c1.02-5-3.95-6.2-7.31-7.46c-7.47-2.79-15.38-2.4-22.92-0.58
			c-5.02,1.21-9.82,3.18-15.11,2.68c17.5-13.25,36.78-13.45,52.83-0.54C1537.45-71.02,1546.55-69.33,1558.51-77.17z"/>
		<path class="st179" d="M291.89,672.59c-3.96,6.35-3.99,13.39-3.97,20.56c0.12,29.04-0.01,58.09,0.07,87.13
			c0.06,20.89,8.64,40.07,12.73,60.16c1.7,8.33,3.14,16.34,2.39,24.76c-11.16-32.95-16.85-67.34-26.25-100.77
			c-4.87-17.32-8.34-35.04-12.44-52.58c-3.07-6.78-3.98-15.27-0.35-20.36c8.82-12.39-3.44-10.93-7.99-14.64l0.17,0.15
			c-1.01-1.74-0.77-3.28,0.73-4.62c10.33,0.04,20.66,0.07,30.99,0.11C289.32,671.11,290.62,671.21,291.89,672.59z"/>
		<path class="st180" d="M232.39,383.31c10.8,0.48,21.61,0.96,32.41,1.43c7.1,10.81,6.51,22.45,3.67,34.32
			c-15.48,0.01-30.96,0.02-46.43,0.01c-5.78,0-12.01,0.99-16.89-2.69c-7.56-5.7-13.16-0.44-19.32,2.44
			C192.71,395.67,210.65,386.99,232.39,383.31z"/>
		<path class="st187" d="M1430.76,40.78c-10.3-5.34-12.63-18.88-23.9-23.23c-8.12-12.75-20.64-21.18-31.07-31.67
			c5.95-0.18,10.87-0.79,14.04-7.64c10.39-22.49,28.2-33.27,53.22-30.42c6.55,0.75,9.49-1.8,11.24-7.64
			c1.11-3.71,3.3-7.05,6.81-9.18c-1.35,13.32-4.71,25.11-21.23,25.88c0.83,7.63,9.41,8.38,9.53,14.82
			c-42.28,8.48-43.38,11.11-21.84,51.16C1430.54,28.39,1435.17,33.83,1430.76,40.78z"/>
		<path class="st191" d="M789.91,162.44c8.26-6.12,4.07-12.97,1.15-19.74c28.16,3.2,36.65,14.37,32.16,42.06
			c-1.33,8.22-1.61,16.68-3.57,24.73c-3.11,12.78-10.38,21.88-24.73,22.92c-5.44-5.53-8.3-12.23-8.99-19.92
			C795.82,196.5,800.85,180.11,789.91,162.44z"/>
		<path class="st194" d="M1660.25,419.03c-11.66,0.11-23.32,0.21-34.98,0.32c-7.19,6.19-15.01,5.34-23.06,2.09
			c-11.17-12.53-6.96-25.26-0.46-38.02c15.83-0.92,31.87-4.18,46.82,4.34C1663.33,394.13,1664.93,405.4,1660.25,419.03z"/>
		<path class="st195" d="M1282.4,186.42c3.66-9.45,11.28-15.25,19.2-20.77c8.39-6.89,18.15-5.35,27.78-4.55
			c15.25,9.4,30.72,4.43,46.17,0.58c5.38,6.66,12.87,3.08,19.43,4.01c-7.47,26.93-48.17,39.46-73.78,18.8
			c-4.39-3.54-6.63-11.27-12.99-10.35c-5.33,0.77-10.1,5.18-15.23,7.75C1289.55,183.61,1285.93,184.93,1282.4,186.42z"/>
		<path class="st205" d="M787.01,212.61c7.45,4.68,8.37,11.97,7.9,19.81c-3.98,3.52-7.89,1.99-11.79-0.15
			c-7.4-5.52-16.61,0.39-24.21-3.85c-21.99-0.35-43.33-5.63-64.88-9.1c-7.22-1.16-12.46-1.18-15.82,5.98
			c2.33-13.33,2.87-14.43,13.43-11.3c10.63,3.15,21.84,1.91,32.33,5.83c3.97,1.49,8.99,0.4,13.51,0.15
			c4.13-0.23,8.32-2.03,8.44-6.36c0.16-5.49-5-4.87-8.69-4.93c-14.99-0.27-29.13-5.1-43.67-7.79c-3.42-0.63-6.16-1.71-7.42-5.2
			c6.36-4.77,13.4-3.17,20.42-2.28c21.05,2.68,41.94,6.42,62.92,9.6C776.45,204.07,783.82,204.58,787.01,212.61z"/>
		<path class="st208" d="M1601.76,383.42c0.01,11.86,0.02,23.72,0.02,35.58c-2.35,2.95-5.59,4.2-9.14,4.91
			c-11.53,0.39-23.47,3.53-33.76-4.8c-0.02-11.9-0.03-23.8-0.05-35.69C1573.14,381.8,1587.45,381.77,1601.76,383.42z"/>
		<path class="st3" d="M1055.95,426.91c-1.59-3.77-4.12-7.25-3.77-11.65c2.43-6.02,6.62-7.23,12.27-4.5
			c22.86,17.19,38.94,39.22,47.48,66.62c-11.55-4.29-17.49-15.08-26.19-22.66C1075.5,445.8,1067.44,434.52,1055.95,426.91z"/>
		<path class="st213" d="M1246.61,102.85c0.52,7.86,5.51,12.45,11.79,16.08c1.12,2.73,0.34,5.1-1.88,6.71
			c-18.22,13.13-37.77,24-58.01,33.65c-2.96,1.41-6.24,1.14-9.2-0.64c7-12.82,21.79-14.82,32.03-23.12
			c4.36-3.53,15.98-3.28,11.03-11.88c-5.11-8.87-12.04-0.04-17.98,2.66c-15.66,7.12-28.18,20.43-46,23.28
			c5.41-8.64,14.98-11.64,23.1-16.28C1209.7,122.88,1227.03,110.8,1246.61,102.85z"/>
		<path class="st216" d="M1660.25,419.03c-4.65-10.14-0.88-23.42-11.68-31.27c21.27,5.03,39.96,14.53,54.43,31.36
			C1688.76,419.09,1674.51,419.06,1660.25,419.03z"/>
		<path class="st220" d="M256.08,676.85c6.9,0,13.81,0,23.42,0c-9.89,11.2-17.68,21.22-15.08,35
			C259.81,700.62,256.84,688.99,256.08,676.85z"/>
		<path class="st222" d="M447.86,40.91c-16.51-1.91-32.06,2.45-47.55,7.26C414.42,34.31,430.44,33.01,447.86,40.91z"/>
		<path class="st223" d="M1064.45,410.77c-4.09,1.5-8.18,3-12.27,4.5c-4.28-7.43-9.07-14.49-15.32-20.44
			C1047.94,396.87,1056.88,402.64,1064.45,410.77z"/>
		<path class="st222" d="M392.78,55.97c0.96,4.66-1.8,8.32-3.33,12.3c-0.25,5.29-3.81,9.69-8.13,8.93
			c-7.7-1.35-16.96,2.33-23.01-5.72C373.91,75.45,385.39,70.26,392.78,55.97z"/>
		<path class="st70" d="M634.75,75.4c-17.81,14.29-18.59,14.18-30.68-4.34C613.13,80.73,623.59,80.55,634.75,75.4z"/>
		<path class="st213" d="M1164.81,153.59c1.52,8.74-4.54,16.26-4.02,24.85C1155.04,169.02,1158.33,161.05,1164.81,153.59z"/>
		<path class="st191" d="M758.91,228.42c8.17,0.66,17.12-3.64,24.21,3.85C774.72,233.08,766.5,232.73,758.91,228.42z"/>
		<path class="st53" d="M1866.27,921.84c-4.17-3.2-3.22-7.71-3.08-12.01C1865.87,913.4,1867.05,917.37,1866.27,921.84z"/>
		<path class="st47" d="M1488.8,119.25c2.62-5,7.33-4.1,11.71-4.14C1497.6,119.3,1493.4,119.83,1488.8,119.25z"/>
		<path class="st220" d="M256.98,672.38c-0.24,1.54-0.48,3.07-0.73,4.61c-2.96-1.99-3.78-4.83-3.26-8.21
			C254.33,669.98,255.66,671.18,256.98,672.38z"/>
		<path class="st91" d="M1808.08,676.27c-1.31-1.2-2.62-2.39-3.93-3.59c-1.16-0.75-1.56-1.53-1.21-2.34
			c0.35-0.82,0.71-1.23,1.08-1.23c0,0,1.24-1.26,1.24-1.26C1807.97,670.06,1808.56,672.98,1808.08,676.27z"/>
		<path class="st223" d="M1037.18,395.03c-3.72,0.71-6.83,0.15-8.29-3.92C1032.28,391.08,1035.27,391.9,1037.18,395.03z"/>
		<path class="st222" d="M400.6,47.94c-0.44,2.43-1.88,3.84-4.32,4.22C396.71,49.73,398.14,48.31,400.6,47.94z"/>
		<path class="st213" d="M1168.64,149.4c-0.38,2.32-1.72,3.77-3.97,4.4C1164.9,151.35,1166.19,149.86,1168.64,149.4z"/>
		<path class="st222" d="M396.63,51.79c-0.32,2.41-1.68,3.88-4.04,4.45C392.9,53.82,394.23,52.32,396.63,51.79z"/>
		<path class="st228" d="M1239.26,1245.63c6.8,8.1,5.01,17.03,0.77,24.95c-9.18,17.14-7.27,37.33-15.94,54.57
			c-1.66,3.3-0.32,7.6,3.42,10.09c0.81,18.53-9.88,31.78-22.14,43.02c-22.69,20.8-49.02,37.59-68.42,62.12
			c-26.02,3.18-52.06,2.08-78.12,0.81c-2.16-0.46-4.14-1.33-5.95-2.57c-0.67-0.84-1.35-1.69-2.02-2.53c0.07-1.07,0.14-2.15,0.2-3.22
			c1.47-1.57,3.09-2.98,4.86-4.21c2.89-3.45,5.53-7.14,8.7-10.31c52.1-52.19,104.25-104.32,156.46-156.4
			c3.17-3.16,6.92-5.72,10.4-8.57c1.27-1.29,2.56-2.58,3.85-3.86l0.04-0.04c1.21-1.36,2.77-2.37,3.86-3.85L1239.26,1245.63z"/>
		<path class="st88" d="M1239.22,1245.63c-1.29,1.28-2.58,2.57-3.86,3.85C1236.64,1248.2,1237.93,1246.92,1239.22,1245.63z"/>
		<path class="st88" d="M1235.31,1249.53c-1.28,1.29-2.57,2.57-3.85,3.86C1232.75,1252.1,1234.03,1250.81,1235.31,1249.53z"/>
		<path class="st230" d="M1040.43,933.73c-2.62-2.6-5.25-5.2-7.87-7.79c5.37-0.63,11.53,1.82,15.61-3.94
			c-5.12-7.93-6.25-16.76-6.25-25.97c0.01-54.92-0.14-109.84,0.13-164.75c0.04-8.3-0.55-17,6.16-23.66
			c5.99-5.03,3.28-11.93,3.86-18.11c0.47-4.97-0.97-11.08,5.97-12.53c6.59-1.38,12.62-0.53,16.84,6.09
			c7.6,11.92,16.79,22.95,23.27,35.42c15.06,28.96,34.95,55.62,43.32,87.83c2.29,8.79,8.04,10.84,15.87,10.45
			c-21.86,26.12-47.7,48.37-71.04,73.05c-11.42,12.08-24.8,22.32-34.2,36.3c0.02,1.23,0.02,2.46,0,3.69
			c-1.31,0.01-2.61,0.01-3.92,0.02C1045.6,931.11,1043.02,932.42,1040.43,933.73z"/>
		<path class="st231" d="M1048.2,707.6c-0.01,71.46-0.02,142.93-0.04,214.39c-23.61-19.31-44-41.96-65.08-63.82
			c-8.51-8.83-11.33-22.83-11.67-34.13c-1.36-44.8-23.99-82.54-37.89-123.1c-8.18-23.86-8.67-24.51,16.69-24.54
			c20.08-0.02,40.16,0.15,60.24-0.1c6.21-0.08,13.14,2.15,18.23-3.77c6.5-0.02,12.99-0.03,19.49-0.05
			C1048.18,684.19,1048.19,695.9,1048.2,707.6z"/>
		<path class="st232" d="M931.23,672.47c11.26-10.99,6.42-22.64,0.5-33.54c-10.62-19.54-16.6-40.75-23.82-61.54
			c-2.16-6.22-2.6-11.96-0.62-18.69c6.12-20.81-4.24-44.25-23.77-53.25c-6.21-2.86-12.21-5.94-15.14-11.45
			c-11.25-21.14-25.04-40.93-33.94-63.29c-0.91-2.3-0.48-5.13-0.67-7.71c26.59,0,53.18,0.12,79.76-0.06
			c6.99-0.05,11.39,1.36,15.03,8.74c8.57,17.36,18.94,33.82,28.45,50.72c4.2,7.47,8.28,15.4,2.64,23.69
			c-7.77,11.42-3.79,22.31,0.64,33.18c12.43,30.51,25.11,60.93,37.65,91.4c1.47,3.58,2.24,7.5,4.07,10.87
			c6.27,11.55,5.93,21.93-4.5,30.95C975.41,672.47,953.32,672.47,931.23,672.47z"/>
		<path class="st233" d="M291.89,672.59c-1.31-0.03-2.61-0.07-3.92-0.1c0-76.44-0.07-152.88,0.11-229.32
			c0.02-6.8-2.6-14.42,3.76-20.16c12.47-1.31,17.55,8.86,23.66,16.3c6.82,8.31,14.79,15.88,19.68,25.73
			c11.27,35.33,15.12,72.1,19.83,108.55c3.23,24.98,8.61,49.63,10.65,74.8c0.88,10.82-0.96,19.19-11.42,24.07
			C333.46,672.5,312.68,672.55,291.89,672.59z"/>
		<path class="st234" d="M330.85,462.02c-9.76-4.79-13.79-14.81-20.62-22.28c-5.57-6.09-10.77-12.79-18.38-16.73
			c-6.82-7.09-15.58-2.67-23.38-3.94c-6.31-10.9-3.27-22.8-3.67-34.33c7.66-0.03,15.32-0.06,22.97-0.09
			c7.79,7.35,2.55,18.67,8.13,26.69c0.85,8.19,6.94,7.7,12.75,7.71c17.8,0.02,35.6,0.04,53.4,0.06c5.76,3.24,14.73,1.38,16.85,10.42
			c7.45,31.75,22.95,61.72,21.16,95.51c-7.41,9.13-12.67,1.15-17.2-3C363.22,504.09,345.89,484.02,330.85,462.02z"/>
		<path class="st36" d="M545.31,1175.49c0.01,1.25,0.02,2.49,0.04,3.74c0,0-0.12,0.12-0.12,0.12c-2.8,1.07-4.93,0.29-6.41-2.31
			c-3.67-7.29-2.86-15.2-2.87-22.93c-0.1-66.16-0.14-132.32,0.05-198.48c0.03-8.85-1.95-18.4,5.44-25.81
			c15.07-7.39,31.16-2.53,46.72-3.92c-7.06,7.07-15.97,3.18-24.02,3.79c-6.92,0.52-11.17,2.64-10.97,10.21
			c0.21,8.4-0.08,16.85,0.71,25.19c2.34,24.73,10.59,48.92,4.26,74.42c-1.9,7.66,2.48,16.22,3.06,24.65
			c1.37,20.04-4.34,39.42-3.85,59.43c0.3,12.3-0.28,24.4,3.55,36.24c0,0,0-0.01,0-0.01c-1.46,1.15-2.62,2.58-3.9,3.91l0.01-0.01
			c-1.36,1.24-2.67,2.54-3.91,3.91l0.01-0.01c-1.36,1.24-2.67,2.54-3.91,3.91l0.01-0.01
			C547.82,1172.77,546.52,1174.09,545.31,1175.49z"/>
		<path class="st235" d="M319.57,933.52c0.33-6.92,5.06-7.65,10.51-7.61c10.66,0.07,21.32,0.02,31.98,0.02
			c20.35,3.6,40.83,3.11,61.1,0.31c11.52-1.59,18.9,0.98,21.82,12.76c9.32,37.53,16.17,75.47,19.43,114.02
			c-1.95,11.61-6.31,21.67-17.84,26.94c-1.85,0.4-3.73,0.44-5.59,0.11c-1.71-0.57-3.33-1.39-4.83-2.39
			c-0.71-0.49-1.42-1.04-2.14-1.53c-1.41-0.98-2.74-2.1-4.01-3.27c-1.7-1.9-3.39-3.83-1.69-6.62
			c-32.48-28.4-61.46-60.37-92.26-90.49c-5.69-5.56-7.55-12.96-9.66-20.57C324.39,947.97,324.92,939.73,319.57,933.52z"/>
		<path class="st236" d="M428.3,1066.26c1.31,1.3,2.61,2.6,3.92,3.89c1.17,1.43,2.6,2.59,3.9,3.89c1.26,1.34,2.56,2.64,3.9,3.9
			c13.41,5.94,22.28,17.31,32.37,27.19c18.89,18.49,36.62,38.23,60.23,54.9c-0.53-34.72,0.33-68.29-0.77-101.92
			c-0.5-33.74-0.47-67.46-0.12-101.16c0.15-14.29-4.44-21.76-19.87-21.79c-6.68-0.01-16.49,1.56-17.08-10.23
			c15.7-7.24,31.22-7.98,46.52,1.06c0.01,1.28,0.05,2.56,0.14,3.83c-0.06,83.15-0.11,166.31-0.17,249.46
			c-16.85,8.97-33.71,8.87-50.58,0.06c-22.09-0.02-44.18-0.04-66.27-0.06c-1.03-32.71-6.05-65.25-3.89-98.09
			C420.93,1075.07,418.73,1067.61,428.3,1066.26z"/>
		<path class="st237" d="M330.85,462.02c10.33,6.74,18.76,15.63,26.04,25.33c11.63,15.49,25.29,28.77,40.26,40.87
			c8.21,2.08,12.72,7.88,15.59,15.38c6.6,33.99,10.4,68.41,15.44,102.64c1.81,12.31-0.23,23.09-12.58,29.44
			c-14.2,2.26-28.51,5.77-41.87-3.13c-6.49-0.03-12.99-0.06-19.48-0.09c6.46-7.93,6.41-15.98,5.6-26.49
			c-1.98-25.65-7.8-50.66-10.64-76.14c-3.87-34.82-9.43-69.78-18.2-103.95C330.69,464.66,330.89,463.31,330.85,462.02z"/>
		<path class="st238" d="M373.73,672.55c14.3-0.03,28.6-0.07,42.9-0.1c4.77-3.04,9.67-4.54,14.96-1.27
			c1.18,13.17-9.92,10.35-15.62,9.87c-32.78-2.72-40.25-1.31-28.98,41.3c6.87,25.97,9.21,53.6,25.47,76.51
			c3.67,16.11-9.66,17.28-19.19,21.81c-1.51,3.7-4.11,6.3-7.82,7.78c-1.24,1.36-2.67,2.53-3.9,3.9v0c-1.34,1.26-2.63,2.56-3.9,3.89
			l0,0c-1.33,1.26-2.63,2.56-3.9,3.89l-0.01,0c-1.33,1.27-2.62,2.57-3.89,3.89l-0.01,0.01c-1.29,1.31-2.72,2.47-3.89,3.89
			c0,0-0.01,0-0.01,0c-6.38-2.5-8.1-8.24-8.9-14.03c-3.24-23.65-13.9-45.23-18.94-68.3c-6.28-28.75-9.83-57.97-12.55-89.19
			c10.8,0,20.39,0.24,29.96-0.09C361.72,676.1,368.64,678.48,373.73,672.55z"/>
		<path class="st241" d="M408.82,539.99c-5.2-2.62-9.15-6.49-11.67-11.77c-0.91-26.4-10.61-50.85-16.84-76.08
			c-1.07-4.32-2.28-8.61-3.1-12.98c-1.74-9.25-6.87-15.81-15.16-20.05c16.89,0,33.78,0.01,50.68,0.01
			c10.5,4.17,16.48,12.85,18.52,22.98c2.6,12.87,7.8,24.58,12.46,36.61c9.66,24.9,11.58,51.44,15.44,77.46
			c1.87,12.64,6.25,25.2,4.28,38.32c-10.24,2.16-14.34-6.55-20.04-11.81C429.82,570.17,418.42,555.78,408.82,539.99z"/>
		<path class="st242" d="M408.82,539.99c9.68,5.84,15.48,15.2,22.57,23.58c9.54,11.29,19.53,22.52,32.03,30.93
			c23.29,26.1,47.65,51.13,74.06,74.1c-6.98,7-15.78,3.14-23.75,3.77c-7.64,0.6-15.36,0.16-23.04,0.18
			c-19.49,2.99-38.99,3.01-58.48,0c-5.19-0.03-10.39-0.07-15.58-0.1c7.17-8.4,8.31-17.12,5.91-28.39
			c-4.64-21.73-7.35-43.95-9.54-66.1C411.75,565.28,406.78,553,408.82,539.99z"/>
		<path class="st243" d="M1558.88,419.11c11.74,0.08,23.47,0.16,35.21,0.24c27.3,4.04,29.16,4.33,24.72,32.95
			c-8.47,54.62-5.91,109.59-8.25,164.37c-6.84,20.56-22.1,33.52-40.01,44.09c-5.45,0.29-7.97,12.15-15.57,3.94
			c0.01-73.7,0.02-147.4,0.03-221.1C1555.01,435.23,1554.08,426.72,1558.88,419.11z"/>
		<path class="st247" d="M541.3,925.99c-15.57-0.01-31.13-0.03-46.7-0.04c-2.21,1.19-4.1,0.8-5.68-1.14
			c-10.51-40.69-14.12-82.65-22.38-123.78c-2.68-13.35-6.33-26.38-9.53-39.56c-0.87-7.92,4.73-11.39,10.27-14.91l0.01,0
			c1.39-1.2,2.54-2.64,3.89-3.89c23.38-22.07,46.75-44.14,70.13-66.2C541.31,759.64,541.3,842.82,541.3,925.99z"/>
		<path class="st262" d="M1605.65,621.78c1.28-28.4,2.63-57.24,1.22-85.18c-1.79-35.46,7.24-68.88,9.33-103.36
			c0.41-6.74-1.01-9.75-7.7-10.18c-5.01-0.32-10.58,1.22-14.41-3.73c2.57-0.11,5.13-0.23,7.69-0.35c7.83,0.11,15.66,0.23,23.49,0.35
			c8.6,6.96,18.67,2.81,28.04,3.53c13.72,1.06,15.05,2.27,14.74,16.28c-0.22,9.72-2.34,19.55-4.66,28.44
			c-5.15,19.7-0.97,39.87-6.28,59.54c-3.46,12.83-1.52,26.99,3.13,40.09c-0.14,0.65-0.27,1.31-0.39,1.97
			c-0.6,1.21-1.36,2.32-2.22,3.36c-0.43,0.52-0.9,1.01-1.33,1.54c-0.85,1.1-1.71,2.17-2.53,3.31c-0.35,0.64-0.74,1.23-1.09,1.87
			c-0.65,1.39-1.38,2.71-2.13,4.06c-0.82,1.47-1.77,2.78-2.82,4.08C1633.42,598.55,1626.26,618.42,1605.65,621.78z"/>
		<path class="st263" d="M1648.5,582.76c0.01-1.28,0.02-2.56,0.05-3.83c1.43-1.16,2.59-2.59,3.88-3.89l0.01-0.01
			c1.34-1.26,2.64-2.55,3.89-3.89l0.01-0.01c1.3-1.29,2.73-2.46,3.89-3.89c0,0,0-0.01,0-0.01c14.88-9.6,24.09-25.5,38.94-35.13
			c5.72,4.24,8.13,10.62,7.73,17.01c-2.36,37.28-2.47,74.72-7.74,111.79c-0.74,5.19-3.14,9.82-7.31,13.32
			c-5.1,3.1-10.77,3.63-16.54,3.68c-11.38-0.16-23.07,2.22-33.78-3.86c-3-18.58,1.74-36.87,3.14-55.2
			C1645.58,606.91,1641.91,594.15,1648.5,582.76z"/>
		<path class="st264" d="M1691.43,672.49c2.04-8.74,3.75-17.39,4.18-26.54c1.2-25.39,4.06-50.63,4.31-76.16
			c0.12-12.61,2.58-25.14-0.74-37.7c0,0,0,0.03,0,0.03c1.53-1.09,2.56-2.68,3.91-3.95c6.3-9.29,14.11-17.06,23.35-23.4
			c5.53,11.5,7.39,23.2,2.04,35.35c-3.27,7.43-3.56,15.9-1.41,22.87c3.46,11.23,1.3,21.74-1.01,32.12
			c-2.42,10.91-1.45,21.14-0.84,32.09c0.83,14.87-0.69,30.71-6.51,45.27c-2.22,2.77-5.29,3.91-8.64,4.52
			C1703.37,677.54,1696.68,677.98,1691.43,672.49z"/>
		<path class="st263" d="M1703.09,528.18c-1.3,1.32-2.61,2.64-3.91,3.95C1700.48,530.81,1701.79,529.5,1703.09,528.18z"/>
		<path class="st265" d="M1617.35,926c-5.19-0.03-10.38-0.07-15.57-0.1c7.54-14.97,5.23-31.8,6.77-47.42
			c3.08-31.31,9.36-62.38,9.12-94.09c-0.08-10.79,4.36-21.38,4.24-32.48c-0.04-3.63,3.78-4.78,7.11-5.32
			c19.16,3.45,27.5,19.04,37.21,33.15c0.28,2.12,0.2,4.21-0.16,6.3c-1.51,41.16-8.38,81.67-14.26,122.29
			c-0.92,6.37-2.58,12.61-7.16,17.57C1635.55,925.93,1626.45,925.96,1617.35,926z"/>
		<path class="st266" d="M1664.11,777.78c-13.55-8.31-21.49-22.94-35.09-31.2c-1.3-2.6-2.59-5.19-3.88-7.79
			c-3.41-23.11-3.18-45.82,7.3-67.44c2.99-1.26,5.82-1.25,8.31,1.13c11.69,0.01,23.38,0.01,35.08,0.02c3.58,4.05,5.28,8.9,5.42,14.2
			c0.73,26.58-2.95,52.79-7.23,78.9C1673.17,770.86,1672.18,777.64,1664.11,777.78z"/>
		<path class="st267" d="M1632.94,672.51c-2.6,22.1-5.2,44.19-7.8,66.29c-10.4-9.1-20.79-18.2-31.19-27.31
			c-6.99-12.22-20.25-18.95-27.27-31.15c0.12-5.09,2.71-7.71,7.82-7.83C1593.97,663.27,1613.46,663.16,1632.94,672.51z"/>
		<path class="st268" d="M545.23,1183.26c14,17.91,31.63,32.32,47.02,48.88c5.26,5.66,11.82,10.16,15.42,17.3
			c1.34,1.27,2.5,2.71,3.9,3.92l0,0c1.24,1.36,2.54,2.66,3.9,3.9l0,0c1.24,1.36,2.55,2.65,3.9,3.9l0,0c1.29,1.31,2.45,2.75,3.9,3.9
			c0,0,0,0,0-0.01c-3.39,27.35-13.5,53.15-18.43,80.14c-0.57,3.14-0.72,6.36-1.07,9.54c-7.2,3.18-12.03-1.76-17.17-5.19
			c-20.42-13.63-20.39-13.68-48.18-17.12c-1.85-4.01-2.39-8.26-2.73-12.59c-0.62-37.38-0.27-74.73-0.26-112.08
			c0-7.7-0.29-15.52,3.56-22.66C540.52,1182.63,542.61,1182.03,545.23,1183.26z"/>
		<path class="st269" d="M541.57,1335.25c5.11-3.16,2.53-9.82,6.12-14.11c21.44,6.96,36.77,23.63,56.06,33.6
			c4.13,26.19,8.48,52.33,15.57,77.93c-25.98,0.01-51.96,0.03-77.94,0.04c-11.63-19.16-4.86-40.26-5.87-60.45
			C534.89,1359.85,531.91,1346.29,541.57,1335.25z"/>
		<path class="st271" d="M482.93,1432.63c-12.99,0-25.99,0.01-38.98,0.01c0.72-25.6-4.88-49.62-18.94-71.19
			c-7.05-10.82-3.79-23.64-7.99-35.06c-1.68-4.59-1.99-9.92-4.3-14.54c1.3-2.59,2.61-5.18,3.91-7.77c1.41-1.2,2.58-2.63,3.9-3.91
			l0,0c1.32-1.28,2.62-2.58,3.9-3.9l0,0c1.32-1.28,2.62-2.58,3.9-3.9l0,0c5.34-11.07,13.88-19.47,23.18-27.1
			c5.06-4.15,10.69-7.74,15.91,0.2c16.25,49.04,24.75,99.14,20.99,150.95C487.98,1422.34,487.08,1428.01,482.93,1432.63z"/>
		<path class="st272" d="M463.4,1261.17c-13.58,8.27-21.49,22.93-35.07,31.2c-3.04-9.87-4.5-20.64-9.45-29.44
			c-12.23-21.76-9.85-45.06-10.08-68.28c-0.08-8.36,3.73-11.57,11.8-11.47c15.56,0.2,31.14,0.03,46.7,0.02
			c11.08,18.99,2.43,40.17,6.68,59.89c0.14,1,0.24,2.03,0.38,3.04c-0.01,1-0.06,2.02-0.08,3.02c-0.24,1.97-0.86,3.85-1.8,5.61
			c-0.56,0.78-1.15,1.56-1.71,2.36c-1.31,1.42-2.85,2.56-4.56,3.48C465.29,1260.79,464.34,1260.98,463.4,1261.17z"/>
		<path class="st273" d="M471.2,1249.48c-5.1-8.12-3.84-17.21-3.88-26.08c-0.06-13.4-0.02-26.8-0.02-40.2
			c7.81-1.2,16.53,3.12,23.38-3.86c16.86-0.02,33.72-0.04,50.58-0.06c1.32,0.02,2.64,0.04,3.96,0.07c0,1.3,0,2.61,0,3.91
			c-1.27-0.02-2.54-0.04-3.8-0.07c-14.29,22.94-36.2,38.81-54.12,58.37c-1.16,1.24-2.41,2.4-3.68,3.53
			c-0.61,0.57-1.26,1.11-1.87,1.69c-1.23,1.14-2.57,2.14-3.96,3.06c-0.74,0.37-1.5,0.72-2.25,1.08
			C473.83,1251.27,472.37,1250.83,471.2,1249.48z"/>
		<path class="st272" d="M420.54,1300.17c-1.3,1.3-2.6,2.61-3.9,3.91C417.94,1302.78,419.24,1301.48,420.54,1300.17z"/>
		<path class="st272" d="M424.43,1296.27c-1.3,1.3-2.6,2.6-3.9,3.9C421.84,1298.87,423.14,1297.57,424.43,1296.27z"/>
		<path class="st272" d="M428.33,1292.37c-1.3,1.3-2.6,2.6-3.9,3.9C425.73,1294.97,427.03,1293.67,428.33,1292.37z"/>
		<path class="st275" d="M490.7,925.89c1.3,0.02,2.6,0.04,3.91,0.06c5.09,5.93,12.02,3.71,18.22,3.76
			c26.76,0.2,24.61-1.77,24.64,25.81c0.04,35.61,0,71.23,0,106.84c-26.61,11.17-52.38,5.53-77.96-3.91
			c0.74-23.96-8.31-46.56-9.8-70.23c-1.01-16.08-8.06-31.03-9.45-46.92c-0.85-9.69-5.38-11.71-13.69-11.56
			c-15.46,0.28-30.94,0.25-46.4-0.03c-6.19-0.11-13.07,2.13-18.12-3.79c19.49-0.01,38.99-0.03,58.48-0.04
			C443.92,916.47,467.31,916.46,490.7,925.89z"/>
		<path class="st276" d="M490.7,925.89c-23.39,0-46.78-0.01-70.16-0.01c-9.48-26.24-10.21-54.19-16.11-81.09
			c-1.81-8.25,1.81-20.52-11.17-24.13c6.39-6.6,15.44-10.54,19.45-19.52c2.82-16.3,20.24-19.9,27.82-32.06
			c1.79-1.87,3.67-3.65,5.58-5.4c4.04-2.85,7.14-8.06,13.4-5.45c10.52,16.3,11.6,35.42,14.35,53.6
			C479.61,849.83,489.87,887.18,490.7,925.89z"/>
		<path class="st13" d="M381.54,832.34c1.3-1.3,2.6-2.6,3.9-3.9C384.14,829.74,382.84,831.04,381.54,832.34z"/>
		<path class="st13" d="M377.64,836.23c1.3-1.3,2.6-2.6,3.9-3.89C380.24,833.64,378.94,834.94,377.64,836.23z"/>
		<path class="st13" d="M373.74,840.13c1.3-1.3,2.6-2.6,3.9-3.89C376.34,837.54,375.04,838.83,373.74,840.13z"/>
		<path class="st13" d="M369.84,844.03c1.3-1.3,2.6-2.59,3.89-3.89C372.43,841.43,371.14,842.73,369.84,844.03z"/>
		<path class="st13" d="M365.94,847.92c1.3-1.3,2.6-2.59,3.89-3.89C368.54,845.33,367.24,846.63,365.94,847.92z"/>
		<path class="st30" d="M611.57,1253.36c-1.3-1.31-2.6-2.61-3.9-3.92C608.97,1250.75,610.27,1252.06,611.57,1253.36z"/>
		<path class="st30" d="M615.46,1257.26c-1.3-1.3-2.6-2.6-3.9-3.9C612.86,1254.66,614.16,1255.96,615.46,1257.26z"/>
		<path class="st30" d="M619.36,1261.16c-1.3-1.3-2.6-2.6-3.9-3.9C616.76,1258.56,618.06,1259.86,619.36,1261.16z"/>
		<path class="st30" d="M623.25,1265.06c-1.3-1.3-2.6-2.6-3.9-3.9C620.66,1262.46,621.96,1263.76,623.25,1265.06z"/>
		<path class="st284" d="M1668.04,1070.14c-6.5,5.2-12.99,10.4-19.49,15.59c7.18-51.31,14.36-102.63,21.41-153.06
			c-7.64-5.36-16.31,0.3-21.41-6.68c7.64-7.29,17.12-5.22,26.21-5.21c3.44,0.13,6.82,0.63,10.14,1.51
			c22.56,6.47,25.64,10.55,23.06,34.13c-3.01,27.54-7.24,54.92-11.73,82.24C1691.78,1053.57,1682.13,1063.85,1668.04,1070.14z"/>
		<path class="st285" d="M1675.84,925.89c-9.1,0.04-18.2,0.08-27.3,0.11c-1.3-0.05-2.59-0.09-3.89-0.1
			c0.16-23.25,6.31-45.75,8.62-68.77c2.18-21.67,6.41-43.16,6.97-65.03c0.1-3.96,0.33-7.78,3.87-10.42c0.76,0.13,1.53,0.25,2.3,0.36
			c1.45,0.61,2.82,1.36,4.15,2.21c0.69,0.4,1.34,0.84,2.04,1.24c1.46,0.78,2.85,1.66,4.25,2.55c9.25,7.85,19.6,14.69,24.26,26.73
			c-0.01,1.92-0.33,3.77-0.91,5.59c-7.36,28.89-12.16,58.31-18.21,87.46C1680.68,914.09,1680.83,920.87,1675.84,925.89z"/>
		<path class="st291" d="M1430.76,40.78c-3.3-12.01-11.12-21.66-17.33-32.06c-5.38-9.01-8.94-17.6-1.7-26.59
			c7.1-8.83,16.15-14.75,28.35-12.82c3.16,0.5,6.22,1.57,9.33,2.38c18.04,30.72,36.4,61.27,53.98,92.25
			c8.04,14.17,0.34,28.81-16.83,34.61c-5.73,1.94-11.56,0.95-17.36,1.03c-11.12-9.3-16.24-22.63-23.31-34.66
			C1441.07,56.73,1437.47,47.78,1430.76,40.78z"/>
		<path class="st291" d="M1477.56-59.17c28.61-14.44,32.54-13.3,48.84,13.93c10.83,18.11,21.75,36.17,32.63,54.25
			c1.46,3.45,2.7,7.02,4.41,10.35c11.14,21.7,10.4,25.5-8.41,41.35c-18.96,4.71-23.96,3.11-33.4-12.79
			c-15.09-25.41-29.35-51.32-44.75-76.53C1470.19-39.54,1471.44-49.11,1477.56-59.17z"/>
		<path class="st292" d="M195.32,68.66c23.18-0.77,45.28,6.38,67.97,9.24c8.19,1.03,16.23,3.34,24.6,2.55
			c20.32,6.55,41.72,7.09,62.47,11.27c5.68,1.14,11.42,2.17,17.18,2.7c8.1,0.75,10.66,4.52,10.05,12.77
			c-2.75,37.06-2.88,37.24-39.98,30.86c-16.45-2.83-32.68-7.35-49.58-7.09c-27.51-7.58-56.15-8.78-83.96-14.78
			c-15.4-3.32-15.62-3.08-13.52-18.81C191.84,87.76,193.72,78.23,195.32,68.66z"/>
		<path class="st291" d="M443.27,165.37c-3.32,4.42-2.37,9.89-3.64,14.81c-3.5,13.55-10.76,19.5-22.84,18.75
			c-17.92-1.11-25.79-7.93-27.13-23.66c-0.27-3.19-0.13-6.41-0.18-9.62c4.2-9.56,4.58-19.66,4.24-29.86
			c2.53-19.36,5.65-38.61,9.21-57.81c0.98-5.29,2.99-9.56,6.6-13.29l-0.36,0.3c0.84-1.98,2.24-3.4,4.25-4.2l-0.37,0.38
			c10.11-7.94,20.49-3.14,30.82-0.67c4.05,3.94,8.09,7.87,12.14,11.81C461.02,104.61,455.92,135.51,443.27,165.37z"/>
		<path class="st222" d="M409.52,64.7c-6.96,18.17-7.63,37.67-11.83,56.42c-1.11,4.95-0.53,10.35-3.99,14.67
			c-2.35-17.95,2.82-35.1,5.56-52.52c0.78-4.98,1.19-10.02,1.77-15.03C403.86,67.06,406.69,65.88,409.52,64.7z"/>
		<path class="st295" d="M1804.02,669.11c0.22,1.18,0.27,2.37,0.13,3.57c-5.21,2.53-7.53,6.8-7.43,12.47
			c0.64,35.46-9.87,69.65-12.04,104.81c-0.35,5.63-3.06,11.11-4.57,16.69c-0.99,3.69-3.45,8.02-2.39,11.06
			c7.63,21.83-7.21,40.96-6.83,61.81c0.02,1.17-0.97,2.36-1.49,3.54c-6.72,2.41-10.11-2.94-14.45-6.15
			c-6.09-7.04-15.22-12.22-14.58-23.46c9.89-31.44,7.93-64.73,15.23-96.63c4.31-18.81,4.42-38.21,4.83-57.5
			c0.21-9.7,1.31-19.43,8.96-26.79C1781.09,672.96,1792.7,672.44,1804.02,669.11z"/>
		<path class="st296" d="M1757.7,875.23c3.9,2.61,7.8,5.21,11.7,7.82c7.04,12.19,20.23,18.98,27.35,31.1
			c-4.63,2.81-3.83,7.44-3.96,11.77c-3.32,3.92-7.89,4.7-12.63,5.09c-11.43-0.5-23.31,2.65-34.02-4.05
			C1738.24,907.28,1743.12,885.47,1757.7,875.23z"/>
		<path class="st297" d="M1862.97,1128.64c3.74,8.76,2.09,17.66-0.58,26.06c-2.58,8.13-3.73,16.19-3.32,24.6
			c-7.26,7.21-16.56,4.58-25.18,5.25c-6.52-0.25-13.17,0.28-19.24-2.96c-0.78-0.76-1.56-1.53-2.34-2.3c3.9-5.17,7.8-10.33,11.7-15.5
			c10.59-7.61,19.69-16.71,27.25-27.33C1855.18,1133.85,1859.07,1131.25,1862.97,1128.64z"/>
		<path class="st59" d="M1808.39,1152.03c1.47,9.06-3.51,19.06,3.93,27.26c0,0,0.1-0.07,0.1-0.07c1.53,1.61,3.13,3.15,4.81,4.61
			c7.64,29.78,0.64,58.86-4.42,88.01c-0.34,1.94-3.24,1.39-5.14,1.17c-5.08-5.57-4.19-12.62-4.87-19.28
			c-0.87-21.63,1.94-43.37-1.79-64.91c-0.79-1.97-1.47-3.97-2.2-5.97c-0.86-1.97-1.48-4.01-1.97-6.1
			c0.28-9.89-5.39-22.6,11.53-24.73L1808.39,1152.03z"/>
		<path class="st291" d="M1375.55,161.68c-3.22,2.13-6.44,4.25-9.65,6.38c-11.74,7.76-22.93,7.4-33.5-2.25
			c-15.1-14.19-23.85-32.16-30.61-51.33c-3.08-10.62-10.41-18.97-15.33-28.62c-8.92-17.51-8.19-26.73,3.46-35.79
			c14.49-11.27,22.72-10.53,38.55,3.45c12.57,26.95,29.09,51.67,44.08,77.23C1378.59,141.08,1381.11,150.71,1375.55,161.68z"/>
		<path class="st291" d="M1402.38,34.4c7.84,19.19,19.8,36.08,30.18,53.85c17.51,29.97,10.51,44.35-24.49,49.55
			c-7.29-5.53-13.13-12.12-17.62-20.28c-13.41-24.37-27.45-48.39-41.02-72.67c-10.8-19.32,0.07-38.25,22.4-39.37
			c7.89-0.4,13.54,3.28,17.83,9.66C1393.95,21.52,1396.1,29.32,1402.38,34.4z"/>
		<path class="st302" d="M1781.1,925.99c3.89-0.02,7.79-0.05,11.68-0.07c5.38,0.58,11.49-1.81,15.61,3.87
			c4.41,28.89,0.35,57.2-3.57,85.92c-7.48,54.89-17.99,109.12-29.68,163.2c-5.47,5.57-12.26,5.55-19.26,4.55
			c-2.1-0.49-4.04-1.41-5.78-2.69c-4.35-7.69-5.27-16.73-3.17-24.43c14.74-54.31,13.64-111.33,28.78-165.49
			c4.66-16.66,1.62-34.94,11.74-50.51C1791.61,933.94,1779,932.75,1781.1,925.99z"/>
		<path class="st303" d="M1773.3,1179.31c2.74-21.65,3.7-43.72,8.62-64.87c7.87-33.86,10.56-68.76,19.45-102.13
			c7.35-27.58,6.57-54.87,7.03-82.52c5.97,5.09,3.3,12.03,3.87,18.25c2.43,26.63-3.67,52.85-3.82,79.34
			c-0.23,41.54-0.08,83.08-0.09,124.62c-12.16,6.38-6.38,17.86-7.78,27.3c-4.15,4.64-9.71,4.81-15.31,4.89
			C1780.75,1183.87,1776.44,1183.01,1773.3,1179.31z"/>
		<path class="st292" d="M514.13,192.96c-4.06,10.91-12.34,16.78-23.27,19.49c-1.27-0.12-2.53-0.24-3.8-0.36
			c-3.35-2.84-8.03-0.45-11.48-2.91c-15.14-8.18-13.17-22.05-11.87-35.7c-2.31-31.12,4.49-60.7,15.09-89.64
			c7.56-11.75,17.94-15.7,31.56-12.09c14.34,3.79,19.98,12.03,17.69,26.99c-3.42,22.31-9.07,44.29-9.87,66.98
			C521.8,175.54,518.99,184.4,514.13,192.96z"/>
		<path class="st291" d="M587.85,200.42c-9.21,21.38-19.54,26.8-37.79,19.82c-10.73-4.1-16.15-12.28-14.79-23.88
			c0.89-7.58,3.39-14.97,2.78-22.74c4.69-12.56,7.24-25.51,7.06-38.95c3.8-7.76,3.67-16.34,5.13-24.59
			c4.29-24.2,10.76-29.74,31.02-26.43c17.39,2.84,21.4,10.18,18.45,33.24c-1.56,12.16-4.78,24.14-4.08,36.56
			C590.94,168.76,588.62,184.46,587.85,200.42z"/>
		<path class="st312" d="M478.79,83.84c-4.22,30.02-7.41,60.21-15.09,89.65c-2.95-12.44-13.33-6.14-20.43-8.11
			c0.6-23.17,6.68-45.54,10.22-68.28c1.28-8.26,2.57-16.42,2.52-24.77c3.7,2.54,3.19,6.64,3.9,10.33c1.05,5.46,4.52,9.98,9.47,11.12
			C476.6,95.44,473.91,85.65,478.79,83.84z"/>
		<path class="st313" d="M514.13,192.96c-0.59-9.37,0.07-18.56,4.05-27.25c3.89,0.01,7.77,0.04,11.66,0.02
			c6.69-0.04,4.96,4,3.78,7.77C528.49,181.37,522.07,187.92,514.13,192.96z"/>
		<path class="st222" d="M443.87,60.51c-10.3-1.08-20.61-2.29-30.83,0.67c2.4-7.92,8.47-9.88,15.31-7.72
			C433.68,55.15,440.09,55.17,443.87,60.51z"/>
		<path class="st222" d="M413.42,60.8c-0.52,2.31-1.94,3.7-4.25,4.2C409.66,62.67,411.07,61.27,413.42,60.8z"/>
		<path class="st316" d="M1699.2,816.76c0-1.3,0.01-2.6,0.01-3.91c-3.95-11.98-4.59-23.86-0.39-36.07
			c2.75-7.98,3.72-16.59,1.76-24.88c-5.49-23.29,7.56-45.71,2.82-69.01c-0.96-4.73,3.48-7.99,7.51-10.39c2.6-0.01,5.2-0.02,7.8-0.03
			c7.79,0,15.59,0,23.38,0c1.31,0.01,2.61,0.02,3.92,0.03c-0.92,38.55-2.27,77.09-8.34,115.25c-2.5,15.75-0.72,32.56-10.72,46.6
			C1709.68,841.19,1705.44,827.4,1699.2,816.76z"/>
		<path class="st292" d="M614.83,161.85c4.78-17.55,8.05-35.35,8.94-53.55c5.99-7.88,12.36-14.25,23.75-13.64
			c19.67,1.05,28.03,9.57,26.69,29.35c-1.13,16.65-7.08,32.64-7.12,49.46c-4.71,13.52-5.59,27.84-8.65,41.71
			c-3.29,14.89-11.47,20.78-26.26,18.95c-17.4-2.14-25.52-10.62-24.17-26.39C609.34,192.34,614.87,177.5,614.83,161.85z"/>
		<path class="st291" d="M787.01,212.61c-33.27-7.72-67.24-11.26-100.86-16.92c-0.02-5.8-0.05-11.6-0.07-17.4
			c2.69-3.16,2.77-7.12,3.43-10.93c3.42-19.67,3.46-19.77,23.69-16.46c19.16,3.14,38.26,6.63,57.43,9.71
			c6.36,1.02,12.84,1.24,19.27,1.82c9.34,3,15.49,7.49,11.71,19.06c-2.14,6.55-2.76,13.67-3.49,20.6
			C797.39,209.07,793.54,212.1,787.01,212.61z"/>
		<path class="st9" d="M553.09,1167.63c1.3-1.3,2.6-2.61,3.91-3.91C555.69,1165.03,554.39,1166.33,553.09,1167.63z"/>
		<path class="st9" d="M556.98,1163.73c1.3-1.3,2.6-2.61,3.9-3.91C559.59,1161.13,558.29,1162.43,556.98,1163.73z"/>
		<path class="st9" d="M549.19,1171.53c1.3-1.3,2.6-2.61,3.91-3.91C551.79,1168.93,550.49,1170.23,549.19,1171.53z"/>
		<path class="st9" d="M545.31,1175.49c1.3-1.32,2.59-2.65,3.89-3.97C547.9,1172.85,546.61,1174.17,545.31,1175.49z"/>
		<path class="st291" d="M1189.3,158.64c24.08-11.42,47.28-24.38,69.1-39.72c2.88-1.25,5.99-2.13,8.59-3.81
			c6.4-4.14,10.2-2.08,13.5,4.2c4.41,8.4,9.1,16.7,14.35,24.6c3.64,5.48,1.48,9.41-1.65,13.63c-26.03,11.11-49.32,27.28-74.27,40.39
			c-3.41,1.79-6.66,3.88-10.05,5.72c-4.82,2.61-8.44,1.05-11.54-3.18c-4.54-6.18-6.55-14.01-12.53-19.24
			c-7.71-9.36-8.32-17.35,4.36-22.8L1189.3,158.64z"/>
		<path class="st319" d="M1301.78,114.48c12.17,15.93,22.33,33.07,30.61,51.33c-10.26-0.05-20.53-0.1-30.79-0.15
			c0-1.28-0.03-2.56-0.08-3.84C1301.61,146.04,1301.7,130.26,1301.78,114.48z"/>
		<path class="st213" d="M1189.17,158.43c-8.74,6.21-8.95,14.04-4.36,22.8C1172.93,168.57,1173.77,164.15,1189.17,158.43z"/>
		<path class="st17" d="M459.51,758.24c-3.9,2.62-7.79,5.23-11.69,7.85c-1.29,1.3-2.58,2.59-3.88,3.88
			c-7.35,13.45-21.74,19.86-31.23,31.17c-6.58,0.5-10.7-1.6-12.57-8.77c-8.24-31.61-19.71-62.43-22.8-95.26
			c-1.82-19.33-0.6-20.03,19.3-20.89c11.87-0.51,24.38,3.76,35.57-3.66c19.49,0,38.99,0,58.48,0c-5.74,6.32-13.32,3.19-20.13,3.81
			c-10.7,0.97-21.7-1.7-33.95,2.45c5.54,19.75,10.8,38.84,16.28,57.87c2.03,7.03,6.66,10.86,14.39,9.89
			C464.69,750.45,462.1,754.35,459.51,758.24z"/>
		<path class="st17" d="M471.19,742.67c-1.3,1.3-2.6,2.59-3.89,3.89C468.6,745.26,469.89,743.97,471.19,742.67z"/>
		<path class="st325" d="M1239.2,1432.72c-6.68,0.38-12.51,5.04-19.49,3.88c-26,9.61-51.99,9.73-77.97-0.04
			c-2.66-4.57-1.48-7.92,2.03-11.98c10.72-12.4,23.71-22.51,36.82-31.52c21.73-14.93,37.06-33.84,46.91-57.8
			c2.42-0.72,6.04-0.68,7.07-2.29c10.33-16.11,28.09-26.52,34.59-45.58c1.86-5.46,5.05-11.19,12.32-9.78
			c8.26,1.61,8.35,8.56,8.36,15.15c0.02,10.27,0.02,20.53,0.03,30.8c-0.24,5.73,0.39,11.35-3.24,16.74
			c-18.78,27.85-28.85,60.34-46.85,88.63C1239.16,1429.91,1239.38,1431.44,1239.2,1432.72z"/>
		<path class="st326" d="M1722.62,836.25c9.24-20.48,7.01-43.05,11.72-64.35c5.09-22.99,3.16-46.33,4.11-69.55
			c0.42-10.26,3.4-20.31,7.58-29.84c7.79,0,15.59,0,23.38,0c-3.89,18.86-3.11,38.11-4.88,57.01c-1.36,14.55-3.56,29.73-5.83,44.44
			c-2.52,16.31-10.64,32.15-5.54,50.07c3.27,11.49-5.79,21.61-11.05,31.73c-6.46,2.54-9.64-2.67-13.73-5.77
			C1725.25,845.92,1720.03,842.7,1722.62,836.25z"/>
		<path class="st327" d="M1699.24,1432.68c-18.03-0.02-36.05-0.03-54.08-0.05c-0.12-6.47-0.24-12.94-0.36-19.41
			c5.58-0.59,7.19-4.05,7.66-9.26c2.51-27.74,12.34-53.78,19.07-80.54c1.69-6.73,2.86-14.4,12.09-15.47
			c6.83-2.44,10.25,3.01,14.66,6.26c7.33,8.75,19.15,14.61,18.53,28.55C1711.17,1372.78,1709.9,1403.65,1699.24,1432.68z"/>
		<path class="st180" d="M295.9,411.34c-3.61,0.87-7.84,3.05-7.91-3.68c-0.08-7.67-0.15-15.35-0.22-23.02c10.59,0,21.18,0,35.25,0
			C313.51,395.88,305.69,404.52,295.9,411.34z"/>
		<path class="st330" d="M1668.04,1070.14c7.8-9.1,15.59-18.19,23.39-27.29c6.97-9.11,9.9-24.3,27.12-17.98
			c6.91,8.92,2.84,18.78,1.83,28.07c-4.53,41.65-10.77,83.07-18.25,124.32c-1.09,2.13-2.7,3.71-4.81,4.82
			c-13.92,3.07-27.33-1.42-40.96-2.75c-1.3,0-2.61-0.01-3.91-0.01c-0.25-12.37,4.07-23.96,6.22-35.91
			c3.85-21.41,8.19-42.74,11.89-64.18C1671.04,1076.42,1668.94,1073.18,1668.04,1070.14z"/>
		<path class="st331" d="M1656.35,1179.32c14.29,0,28.58,0,42.87,0c20.86-0.66,25.68,3.39,23.2,22.19
			c-4.23,32.01-8.9,63.97-13.93,95.86c-1.24,7.88-1.77,17.31-13.17,18.39c-3.9-2.6-7.8-5.21-11.7-7.81
			c-7.01-12.22-20.28-18.95-27.29-31.17c10.9-15.41,12.57-33.73,15.11-51.47c1.1-7.72,2.87-15.21,4.47-22.74
			c3.64-17.07,3.84-17.07-13.04-19.54C1660.12,1182.63,1658.07,1181.36,1656.35,1179.32z"/>
		<path class="st119" d="M475.57,209.18c4.14-0.27,8.19-0.16,11.48,2.91C482.89,212.45,478.57,213.4,475.57,209.18z"/>
		<path class="st367" d="M1882.45,1432.7c-3.9,0.02-7.81,0.04-11.71,0.06c-4.1,2.43-8.25,2.93-12.48,0.31
			c-4.22-27.46,4.23-53.56,8.57-80.11c4.3-9.19,4.45-22.17,19.53-21.61c4.31,6.08,7.24,13.54,15.57,15.6
			c0.29,26.14-10.51,50.38-13.26,76.03C1888.31,1426.4,1884.61,1429.47,1882.45,1432.7z"/>
		<path class="st297" d="M1866.86,1124.74c-1.29,1.3-2.59,2.59-3.88,3.89C1864.27,1127.33,1865.57,1126.04,1866.86,1124.74z"/>
		<path class="st377" d="M1905.1,1179.08c1.67,21.71,4.2,43.29,8.07,64.76c3.75,20.79-0.02,26.48-19.01,32.93
			c-9.41-8.96-15.16-20.47-21.87-31.33c-2.07-9.06-0.51-18.18,2.35-26.47c4.5-13.06,3.45-26.28,3.93-39.53
			C1887.41,1179.32,1896.25,1179.2,1905.1,1179.08z"/>
		<path class="st378" d="M1878.57,1179.44c8.22,10.22,6.61,21.52,2.72,32.53c-3.88,10.96-5.67,22.16-6.61,33.61
			c-1.59,1.03-3.3,1.35-5.15,0.87c-13.78-12.4-29.96-23.38-21.22-46.51c3.75-9.91-4.56-11.7-11.87-13.07
			c-1.78-0.53-3.37-1.4-4.83-2.54c-1.15-1.66-1.05-3.29,0.13-4.89c9.11-0.05,18.22-0.1,27.32-0.14
			C1865.57,1179.34,1872.07,1179.39,1878.57,1179.44z"/>
		<path class="st379" d="M1632.94,672.51c-19.48,0-38.97,0-58.45,0c0.2-4.43-2.32-7.94-3.94-11.75
			c9.63-14.86,25.51-24.08,35.1-38.97c16.22-10.88,26.68-28.08,42.85-39.02c7.43,24.06-2.25,48.03-0.63,72.14
			c0.38,5.68-4.6,11.72-7.12,17.59C1638.15,672.5,1635.55,672.5,1632.94,672.51z"/>
		<path class="st386" d="M1870.76,1245.57c1.31,0,2.61,0,3.92,0c9.63,8.44,16.84,18.38,19.48,31.18
			c1.52,12.36-1.83,24.16-4.91,35.81c-1.66,6.27-3.15,12.32-2.88,18.78c-9.48,3.07-9.95,13.36-15.61,19.49
			c-10.55-0.5-10.7-9.05-12.3-16.22c-2.37-10.62-0.55-21.66-2.92-32.32C1860.18,1283.28,1857.05,1262.16,1870.76,1245.57z"/>
		<path class="st394" d="M482.93,1432.63c-0.01-17.45-0.54-34.92,0.09-52.35c1.05-29.34-5.47-57.23-13.82-85.05
			c-3.29-10.95-3.95-22.68-5.8-34.06l0.01,0c1.44-1.16,2.6-2.59,3.89-3.89l0.01-0.01c1.34-1.25,2.64-2.54,3.88-3.89l0.01-0.01
			c1.15-1.44,2.45-2.74,3.9-3.88l0.02-0.01c1.29-1.3,2.73-2.45,3.88-3.89l0.01-0.01c1.49-1.36,3.13-1.57,4.92-0.65
			c16.27,19.41,24.58,43.84,40.18,63.82c4.98,6.37,9.88,11.65,17.13,14.84c0.11,3.89,0.22,7.78,0.34,11.67
			c-0.06,32.49-0.13,64.97-0.19,97.46C521.89,1432.68,502.41,1432.66,482.93,1432.63z"/>
		<path class="st398" d="M459.51,1058.45c3.04-0.9,6.78-3.42,9.01-2.45c22.37,9.7,45.88,5.42,68.95,6.36c0,34.99,0,69.98,0,108.34
			c-37.43-28.29-67.96-59.96-97.45-92.75C452.07,1077,454.99,1066.93,459.51,1058.45z"/>
		<path class="st398" d="M436.12,1074.05c-1.3-1.3-2.6-2.6-3.9-3.89C433.52,1071.45,434.82,1072.75,436.12,1074.05z"/>
		<path class="st398" d="M440.02,1077.95c-1.3-1.3-2.6-2.6-3.9-3.9C437.42,1075.35,438.72,1076.65,440.02,1077.95z"/>
		<path class="st28" d="M1652.43,575.04c-1.29,1.3-2.59,2.59-3.88,3.89C1649.84,577.63,1651.14,576.34,1652.43,575.04z"/>
		<path class="st28" d="M1660.23,567.24c-1.3,1.3-2.59,2.59-3.89,3.89C1657.64,569.84,1658.93,568.54,1660.23,567.24z"/>
		<path class="st28" d="M1656.33,571.14c-1.3,1.3-2.59,2.59-3.89,3.89C1653.74,573.74,1655.04,572.44,1656.33,571.14z"/>
		<path class="st402" d="M1710.92,672.51c-2.82,5.23-5.78,11.18-3.46,16.65c5.58,13.2,1.12,25.35-2.4,37.61
			c-1.86,6.47-2.65,12.64-0.27,18.97c3.09,8.22,3.5,16.61,0.27,24.67c-5.51,13.73-1.09,28.7-5.84,42.44
			c-9.1-7.8-18.21-15.6-27.31-23.4c-1.14-1.44-2.57-2.6-3.87-3.88l-0.02-0.02c-1.28-1.31-2.44-2.74-3.88-3.88
			c0,0-0.02-0.01-0.02-0.01c0.01-1.3,0.01-2.6,0-3.89c6.64-7.84,6.67-18.38,7.06-27.03c1.17-26.11,7.28-51.94,4.66-78.24
			c5.2-0.01,10.4-0.02,15.59-0.02C1697.93,672.5,1704.42,672.5,1710.92,672.51z"/>
		<path class="st403" d="M541.23,1323.58c-7.77,5.33-13.4,1.95-17.48-4.88c-13.39-22.41-26.55-44.96-39.67-67.52
			c-0.91-1.57-0.82-3.72-1.19-5.6c-1.07-0.86-1.43-1.73-1.07-2.6c0.35-0.87,0.71-1.3,1.06-1.3c17.95-21.06,37.34-40.67,58.54-58.48
			C541.36,1229.99,541.3,1276.79,541.23,1323.58z"/>
		<path class="st271" d="M475.09,1249.48c-1.3,1.29-2.6,2.58-3.9,3.88c0-1.29,0-2.59,0.01-3.88
			C472.5,1249.48,473.8,1249.48,475.09,1249.48z"/>
		<path class="st271" d="M471.19,1253.37c-1.29,1.3-2.59,2.6-3.88,3.89C468.6,1255.97,469.89,1254.67,471.19,1253.37z"/>
		<path class="st271" d="M467.29,1257.27c-1.3,1.3-2.59,2.59-3.89,3.89C464.7,1259.87,466,1258.57,467.29,1257.27z"/>
		<path class="st271" d="M478.99,1245.58c-1.29,1.3-2.59,2.59-3.88,3.89C476.4,1248.18,477.7,1246.88,478.99,1245.58z"/>
		<path class="st271" d="M482.88,1241.68c0,1.3,0.01,2.6,0.01,3.9c-1.3,0-2.59-0.01-3.89-0.01
			C480.29,1244.27,481.59,1242.98,482.88,1241.68z"/>
		<path class="st247" d="M443.94,769.97c1.29-1.29,2.59-2.59,3.88-3.88C446.52,767.38,445.23,768.68,443.94,769.97z"/>
		<path class="st405" d="M1722.62,836.25c2.6,3.89,5.19,7.79,7.79,11.68c-4.7,22.51-6.12,45.51-9.97,68.15
			c-0.78,4.57-2.05,8.74-5.89,11.73c-1.86,1.01-3.82,1.57-5.92,1.73c-8.08-2.9-16.97,0.03-24.94-3.54
			c-2.61-0.04-5.22-0.07-7.83-0.11c-1.92-12.98,2.51-25.28,4.52-37.76c3.31-20.45,9.88-40.31,11.27-61.15
			c0.33-4.97,3.26-8.14,7.57-10.23C1707.01,823.26,1714.81,829.76,1722.62,836.25z"/>
		<path class="st406" d="M1683.67,926c9.09,0.01,18.19,0.01,27.28,0.02c3.78,3.22,7.18-0.42,10.76-0.67
			c12.64-0.88,19.12,2.46,17.01,17.45c-2.93,20.89-6.69,41.72-7.97,62.85c-2.44,8.48-6.7,15.36-15.94,17.73
			c-7.79,6.5-15.59,12.99-23.38,19.49c-1.02-16.26,4.04-31.74,6.09-47.6c2.06-15.88,4.42-31.76,5.4-47.72
			c0.89-14.49,0.14-14.47-14.6-18.29C1686.61,928.8,1685.22,927.11,1683.67,926z"/>
		<path class="st265" d="M1668.03,785.58c1.29,1.29,2.58,2.59,3.87,3.88C1670.62,788.17,1669.32,786.87,1668.03,785.58z"/>
		<path class="st265" d="M1664.13,781.68c1.3,1.29,2.59,2.59,3.89,3.88C1666.72,784.27,1665.43,782.98,1664.13,781.68z"/>
		<path class="st407" d="M1714.86,925.88c2.53-20.32,5.11-40.63,7.56-60.96c0.79-6.6,2.54-12.63,7.99-16.98
			c3.9,2.6,7.79,5.21,11.69,7.81c5.2,6.49,10.4,12.99,15.6,19.48c-9.77,15.51-10.22,33.17-11.68,50.6c-0.85,0.67-1.7,1.34-2.55,2.02
			C1733.9,927.61,1724.19,929.4,1714.86,925.88z"/>
		<path class="st408" d="M1781.1,925.99c4.25,6.49,12.57,1.55,17.5,6.1c1.49,6.55-3.92,9.19-7.27,12.69
			c-4.27,4.46-6.52,9.27-6.4,15.54c0.31,16.92-4.5,32.67-9.6,48.73c-4.98,15.66-5.25,32.6-5.92,49.15
			c-0.08,1.93,0.46,4.02-0.09,5.79c-8.76,28.06-5.93,58.35-16.53,85.99c-1.97,5.13-3.18,9.66-0.52,14.73
			c2.83,5.39-0.25,9.95-2.37,14.61c-6.22,5.75-12.87,5.27-19.76,1.42c-10.4-18.77-3.71-38.98,0.36-56.46
			c10.58-45.46,8.56-92.45,19.92-137.52c1.29-11.52,11.45-18.13,15.64-28.15c6.92-16.52,5.51-19.76-11.54-24.7
			c-4.03-1.17-9.41-1.25-8.47-7.9c0,0-0.04-0.16-0.04-0.16C1757.71,925.89,1769.41,925.94,1781.1,925.99z"/>
		<path class="st409" d="M1831.75,1179.44c0.01,1.25,0.01,2.5,0,3.75c-6.48,6.15-12.95,3.84-19.42-0.02
			c0.03-1.31,0.07-2.63,0.1-3.95C1818.87,1179.29,1825.31,1179.36,1831.75,1179.44z"/>
		<path class="st410" d="M1784.98,1179.32c5.2-0.01,10.4-0.01,15.6-0.02v0c1.13,1.47,2.69,2.5,3.94,3.84
			c5.41,4.41,3.76,10.57,3.8,16.17c0.14,18.02,0.03,36.03,0.02,54.05c-6.55,10.51-4.77,22.68-5.67,33.97
			c-2.55,32.05-13.45,61.79-22.69,92.05c-1.52,4.96-3.62,9.78-8.96,12.05c-9.32,0.59-13.65-4.94-15.96-12.97
			c1.46-29.83,9.39-58.7,13.66-88.14C1774.1,1253.33,1779.74,1216.35,1784.98,1179.32z"/>
		<path class="st411" d="M1812.32,1183.16c6.47,0.01,12.95,0.02,19.42,0.03c0,0,0.04,0.04,0.04,0.04c2.22,5.33,0.1,11.74,4.18,16.6
			c18.36,21.84,10.99,44.6,2.47,67.45c-9.53,18.67-19.6,37.02-21.99,58.48c-0.57,5.13-1.61,14.6-11.16,6.28
			c-3.36-19.96-6.79-39.91,3.12-59.15c6.28-5.66,3.48-13.15,3.78-19.89c0.8-17.74-2.68-35.99,5.5-52.81
			C1821.57,1192.2,1814.26,1188.75,1812.32,1183.16z"/>
		<path class="st412" d="M1808.41,1272.88c0,20.78,0,41.57,0.01,62.35c2.27,2.29,2.84,5.12,2.61,8.21
			c-5.08,17.84-7.4,36.27-11.56,54.29c-3.21,13.92-11.28,18.35-23.32,7.37c-3.74-4.42-9.02-8.19-6.75-15.27
			c5.19-5.4,5.37-12.8,7.88-19.28c13.08-33.79,18.62-69.22,23.21-104.86c0.73-5.65,2.62-9.86,7.85-12.31
			C1808.37,1259.88,1808.39,1266.38,1808.41,1272.88z"/>
		<path class="st303" d="M1804.52,1183.15c-1.31-1.28-2.63-2.56-3.94-3.84C1801.9,1180.59,1803.21,1181.87,1804.52,1183.15z"/>
		<path class="st416" d="M1699.24,1432.68c-0.48-19.94,2.62-39.51,7.4-58.72c2.88-11.58,1.86-24.08,8.18-34.83
			c1.58-1.22,3.32-1.57,5.24-0.94c9.77,6.2,17.13,14.95,24.8,23.4c2.32,3.5,3.5,7.26,2.62,11.49c-6.81,19.32-1.95,41.23-13.14,59.59
			c0,0-0.08,0.09-0.09,0.09C1722.59,1432.73,1710.92,1432.71,1699.24,1432.68z"/>
		<path class="st421" d="M1742.1,1362.52c-9.33-6.26-17.12-14.04-23.39-23.36c1.69-41.94,5.34-83.69,17.27-124.1
			c4.35-14.73,2.18-25.74-10.2-34.69c1.2-1.85,2.75-2.2,4.64-1.07c6.49,0,12.99,0,19.48,0c1.3,0,2.6,0.01,3.9,0.01
			c20.88,4.38,22.3,6.32,18.11,28.66c-8.48,45.14-14.2,90.7-20.86,136.12C1750.01,1351.24,1749.03,1358.29,1742.1,1362.52z"/>
		<path class="st422" d="M1742.1,1362.52c5.67-19.86,6.5-40.6,9.66-60.83c4.96-31.76,9.33-63.68,14.59-95.42
			c3.19-19.27,3.86-19.16-12.53-26.96c6.5,0,12.99-0.01,19.49-0.01c3.9,0.01,7.79,0.01,11.69,0.02c9.29,12.74,2.08,26.85,0.22,38.99
			c-1.63,10.59,1.6,22.98-6.43,32.96c-4.56,5.66,5.07,13.23,1.06,18.32c-7.71,9.78-5.24,20.76-6.9,31.38
			c-3.74,24.04-8.43,47.93-12.85,71.86c-0.34,1.85-1.55,3.53-2.36,5.29c-7.03,2.1-9.82-2.17-11.7-7.8
			C1744.71,1367.73,1743.4,1365.13,1742.1,1362.52z"/>
		<path class="st428" d="M1726.5,1179.32c19.37,7.79,19.77,7.87,15.41,30.42c-3.76,19.45-6.55,39.18-14.07,57.77
			c-0.87,2.15-0.88,5.28,0.02,7.4c3,7.04,3.6,13.59-1.51,19.91c-1.77,2.19-1.57,4.69-0.9,7.28c3.47,13.38-1.58,25.24-6.74,37.07
			c-1.3-0.01-2.59-0.02-3.89-0.03c-6.5-7.79-13-15.58-19.49-23.37c12.08-12.26,9.42-28.87,11.1-43.46
			c2.63-22.85,7.46-45.3,10.15-68.12c2.06-17.48,3.38-17.3-14.52-22.37c-1.09-0.31-1.9-1.64-2.83-2.49c0,0,0.01-0.01,0.01-0.01
			C1708.33,1172.7,1717.42,1172.14,1726.5,1179.32z"/>
		<path class="st429" d="M1726.5,1179.32c-9.09,0-18.18-0.01-27.27-0.01c-0.28-27.82,6.59-54.78,9.93-82.17
			c2.64-21.63,6.17-43.15,8.84-64.78c0.35-2.82-2.06-5.98-3.19-8.99c3.9-5.2,7.81-10.4,11.71-15.59
			c7.33-9.85,11.7-23.15,27.28-23.39c3.22,17-6.25,32.62-5.39,49.37c0.03,0.6-0.65,1.23-0.61,1.82
			c2.39,36.61-12.68,71.02-13.53,107.23c-0.29,12.26-5.82,23.99-3.85,36.5C1729.12,1179.31,1727.81,1179.32,1726.5,1179.32z"/>
		<path class="st446" d="M1859.05,1432.7c-2.61,0.02-5.21,0.04-7.82,0.05c-6.45,2.7-12.92,5.2-19.79,1.24
			c-8.43-11.3-4.01-23.53-2.15-35.37c3.99-25.36,6.75-51.01,15.67-75.36c4.28-6.69,2.5-17.89,14.1-19.21
			c7.23,7.98,1.26,17.76,3.46,26.66c1.81,7.33,1.82,14.84,8.21,20.12C1866.85,1378.12,1862.95,1405.41,1859.05,1432.7z"/>
		<path class="st409" d="M1859.07,1304.06c-5.13,5.49-6.27,12.58-7.82,19.5c-8.41,1.81-13.8-3.21-19.13-8.41
			c-6.39-17.22-1.22-33.62,3.54-50.06c2.41-10.5,4.98-20.96,7.17-31.51c2.07-9.96-0.09-18.34-7.6-26.17
			c-6.23-6.49-13.19-14.62-3.45-24.17c26.42,0.13,26.63,0.2,18.22,25.63c-1.66,5.02-1.15,8.29,2.06,12.23
			c6.49,7.95,12.49,16.3,18.7,24.49C1866.86,1265.07,1862.97,1284.56,1859.07,1304.06z"/>
		<path class="st458" d="M1753.8,984.39c-9.09,7.8-18.19,15.59-27.28,23.39c-0.64-25.44,4.9-50.16,8.66-75.68
			c-6.75-6.22-17.76,2.08-24.24-6.08c1.3-0.05,2.6-0.09,3.9-0.14c10.4,0.04,20.8,0.08,31.19,0.12c5.67,6.3,13.2,3.07,19.93,3.81
			c10.39,1.14,11.5,3.06,10.19,13.41C1774.05,959.98,1764.46,972.41,1753.8,984.39z"/>
		<path class="st459" d="M1746.02,1370.33c3.9,2.6,7.8,5.2,11.7,7.8c2.53,5.27,6.44,9.16,11.7,11.7c2.6,3.89,5.2,7.79,7.8,11.68
			c-3.72,13.31,1.39,25.01,6.7,36.68c-3.9,1.79-7.45,1.32-10.63-1.58c-3.92-0.07-7.84-0.14-11.76-0.22
			c-8.27-6.97-18.13-2.31-27.16-3.72c-1.75-16.72,5.37-32.62,4.44-49.37C1738.52,1378.52,1741.51,1373.5,1746.02,1370.33z"/>
		<path class="st460" d="M1835.66,1265.08c-0.87,13.9,2.07,27.97-2.48,41.76c-0.8,2.43,1.58,5.92,2.49,8.92
			c2.41,14.59-4.58,27.78-6.34,41.78c-3.29,26.26-12.69,51.37-15.39,77.81c-0.99,1.94-2.31,3.63-3.92,5.1
			c-1.9,1.27-3.95,1.6-6.15,1.01c-1.91-0.98-3.56-2.31-4.98-3.92c-1.65-1.97-4.37-4.63-3.39-6.58
			c13.99-27.94,3.64-59.37,12.86-87.92c0.01-2.6,0.03-5.21,0.04-7.81c2.76-2.13,3.88-5.04,3.8-8.41
			C1811.64,1303.04,1823.17,1283.89,1835.66,1265.08z"/>
		<path class="st461" d="M1808.37,1343.04c0,23.33,0.13,46.66-0.08,69.98c-0.05,5.66,2.56,11.51-7.73,14.16
			c-7.05,1.82,3.94,5.5,3.83,9.53c-6.55,4.9-13.03,5.73-19.38-0.35c-19.65-8.83-20.12-10.91-7.8-34.86
			c13.85,8.34,14.8,8.56,18.26-6.27c3.54-15.15,4.07-30.96,9.08-45.9C1805.39,1346.81,1806.33,1344.68,1808.37,1343.04z"/>
		<path class="st476" d="M1831.77,1432.7c-8.22-1.26-15.58,2.61-23.36,3.94c1.19-3,3.5-6.05,3.38-9
			c-1.29-32.58,14.8-62.05,16.62-94.12c0.34-6.04,4.73-11.85,7.26-17.77c6.79-0.59,10.19,5.6,15.58,7.8
			c-10.34,12.42-6.96,28.39-10.6,42.53C1835.08,1387.8,1831.34,1410.05,1831.77,1432.7z"/>
	</g>
</g>
<g id="Main_wicket_xA0_Image_1_">
</g>
<g id="left_danda_xA0_Image_1_">
</g>
<g id="right_danda_xA0_Image_1_">
</g>
<g id="CRIC_S___IZZ">
</g>
<g id="H_logo_xA0_Image_1_">
</g>
</svg>
