<svg width="293" height="226" viewBox="0 0 293 226" fill="none" xmlns="http://www.w3.org/2000/svg"><path fill-rule="evenodd" clip-rule="evenodd" d="M181.573 122.917c25.083-45.439 66.877-85.291 78.813-95.54 8.172-7.51 6.992-14.19 6.992-14.19-1.704-7.07-15.574-11.527-33.333-12.879C111.872-6.078 3.249 87.594.112 209.567c-1.024 39.871 4.974 69.126 19.156 98.814 4.336 8.861 14.381 6.308 15.46-.997C37.6 251.36 56.744 181.615 76.033 147.253c12.93-21.542 26.196-43.325 43.155-29.081 6.956 7.365-3.637 20.046-14.815 44.057-19.253 43.433-27.214 82.018-32.887 109.988-5.974 34.38-7.986 70.34-5.191 100.232 2.541 43.842 21.957 71.361 34.146 62.927 7.901-6.704-4.896-13.246-1.06-21.47 0 0 2.379-4.734 7.793-4.746 0 0 2.077.367 6.449.066 7.926-.486 6.107-13.462 6.107-13.462-4.222-45.902 5.035-103.218 5.035-103.218 9.894-66.086 31.737-124.183 56.807-169.629zm226.361-10.489s-4.104-6.556 2.126-14.822c0 0 3.738-4.149 10.651-5.332 0 0 1.833-.294 4.032-.678 0 0 7.727-1.213 7.47-9.816 0 0 .149-7.432-11.232-8.537 0 0-10.483-1.002-21.955 4.125 0 0-23.68 9.371-56.758 43.453-25.07 25.923-56.345 79.745-73.783 137.301-17.755 58.594-25.285 113.058-16.311 169.437 0 0 5.145 27.52 19.959 37.762 0 0 4.972 3.596 9.98 1.855 0 0 2.774-1.267 3.804-3.032 1.174-1.885 2.378-5.631-.06-9.101 0 0-.755-1.231-1.857-2.918 0 0-2.444-3.722-2.971-8.146 0 0-1.432-7.775 2.156-12.524 2.978-4.472 7.279-5.637 7.279-5.637 74.927-24.705 138.963-99.688 145.103-192.593 2.426-46.449-5.152-84.205-27.633-120.797zm-73.887-27.777s12.411-11.139 22.276-17.433c0 0 4.855-2.982 4.92-8.887 0 0 .245-5.659-6.381-11.199 0 0-2.034-1.886-3.478-4.311 0 0-2.212-3.929.454-9.768 0 0 2.135-4.42 6.668-6.024 0 0 2.123-.887 7.556-2.234 0 0 3.316-.473 5.207-2.06 2.141-1.893 2.35-5.857 1.205-8.558 0 0-1.557-4.378-11.475-5 0 0-6.656-.953-15.602 1.126 0 0-6.585 1.24-15.579 4.994-5.361 2.886-91.173 36.261-147.605 203.529 0 0-24.65 77.266-26.791 159.538 0 0-3.519 57.496 15.286 88.937 0 0 2.72 4.988 8.905 9.827 0 0 5.194 4.45 10.634-.371 0 0 5.469-4.282-.167-13.169 0 0-.871-1.336-1.939-4.6 0 0-1.342-5.114.662-9.875 0 0 2.404-7.965 12.143-9.025 0 0 9.859.27 14.547-5.767 0 0 4.586-6.539 3.059-16.013 0 0-1.139-12.169-2.23-28.207-1.664-28.583.077-54.059 7.121-91.572 0 0 10.234-49.897 20.451-75.109 10.216-25.212 29.277-80.128 90.153-138.769z" fill="#006BFF"/></svg>