<svg width="176" height="193" viewBox="0 0 176 193" fill="none" xmlns="http://www.w3.org/2000/svg"><path fill-rule="evenodd" clip-rule="evenodd" d="M73.296 49.526C83.42 31.218 100.292 15.16 105.11 11.031c3.299-3.026 2.822-5.717 2.822-5.717-.688-2.85-6.286-4.645-13.455-5.19C45.159-2.449 1.312 35.294.045 84.44c-.413 16.065 2.008 27.853 7.733 39.815 1.75 3.57 5.805 2.541 6.24-.402 1.16-22.573 8.888-50.675 16.674-64.52 5.22-8.68 10.575-17.457 17.421-11.718 2.808 2.968-1.468 8.077-5.98 17.752-7.772 17.5-10.986 33.047-13.276 44.317-2.411 13.852-3.223 28.341-2.095 40.385 1.026 17.665 8.863 28.753 13.783 25.355 3.19-2.701-1.976-5.337-.428-8.651 0 0 .96-1.907 3.146-1.912 0 0 .839.148 2.604.027 3.199-.196 2.465-5.425 2.465-5.425-1.704-18.495 2.032-41.589 2.032-41.589 3.994-26.627 12.811-50.036 22.932-68.347zM164.67 45.3s-1.657-2.642.858-5.972c0 0 1.509-1.672 4.299-2.149 0 0 .74-.118 1.628-.273 0 0 3.119-.489 3.015-3.955 0 0 .061-2.995-4.534-3.44 0 0-4.232-.404-8.862 1.662 0 0-9.559 3.776-22.912 17.509-10.12 10.445-22.745 32.13-29.784 55.321-7.167 23.609-10.207 45.554-6.584 68.27 0 0 2.077 11.089 8.057 15.215 0 0 2.007 1.449 4.029.748 0 0 1.119-.51 1.535-1.222.474-.759.96-2.269-.024-3.667 0 0-.305-.496-.75-1.175 0 0-.986-1.5-1.199-3.283 0 0-.578-3.132.87-5.046 1.202-1.802 2.938-2.271 2.938-2.271 30.246-9.954 56.096-40.167 58.574-77.6.98-18.716-2.079-33.929-11.154-48.672zm-29.826-11.192s5.01-4.488 8.992-7.024c0 0 1.959-1.202 1.986-3.581 0 0 .099-2.28-2.576-4.512 0 0-.821-.76-1.404-1.738 0 0-.893-1.582.183-3.935 0 0 .862-1.78 2.692-2.428 0 0 .857-.357 3.05-.9 0 0 1.339-.19 2.102-.83.864-.762.949-2.36.486-3.448 0 0-.628-1.764-4.632-2.015 0 0-2.687-.383-6.298.454 0 0-2.658.5-6.288 2.013-2.165 1.163-36.804 14.61-59.584 82.006 0 0-9.95 31.132-10.815 64.281 0 0-1.42 23.167 6.17 35.835 0 0 1.098 2.01 3.595 3.96 0 0 2.097 1.793 4.293-.15 0 0 2.207-1.725-.068-5.306 0 0-.351-.538-.782-1.853 0 0-.542-2.061.267-3.979 0 0 .97-3.209 4.902-3.636 0 0 3.98.108 5.872-2.324 0 0 1.851-2.635 1.235-6.452 0 0-.46-4.903-.9-11.365-.672-11.517.03-21.782 2.874-36.897 0 0 4.131-20.105 8.255-30.263 4.125-10.159 11.819-32.285 36.393-55.913z" fill="url(#paint0_linear_2193_44130)"/><defs><linearGradient id="paint0_linear_2193_44130" x1="132" y1="9" x2="27" y2="158" gradientUnits="userSpaceOnUse"><stop stop-color="#FA0CEB"/><stop offset="1" stop-color="#FA0CEB" stop-opacity="0"/></linearGradient></defs></svg>