<svg width="18" height="18" fill="none" xmlns="http://www.w3.org/2000/svg"><g clip-path="url(#clip0_2957_12701)"><path d="M10.503 3.8s.938.558 1.62 1.923a7.024 7.024 0 00-1.307-.518s.9.716 1.186 1.572a6.466 6.466 0 00-1.024-.443s.742.83.906 1.423c0 0 .306-1.749.368-3.362a7.458 7.458 0 00-1.749-.595zM7.81 15.246a.19.19 0 00.058-.265c-2.19-3.4-2.864-8.687-2.992-11.224 0-.196.016-.265.097-.318.33-.215 1.332-.63 1.926-.734.132-.023.216.074.216.241v1.438a.01.01 0 01-.002.006c-.411.533-.845 1.826-.52 4.81.291 2.668 1.27 5.283 1.972 5.753.998.668 1.434-2.068 1.532-2.653.424-2.523-.205-6.045-2.05-7.839a.01.01 0 01-.003-.007V2.8c0-.125.03-.22.145-.289a.801.801 0 01.29-.056c1.214-.09 2.946.13 4.477.95.147.078.16.214.152.367-.129 2.545-.887 7.387-3.009 11.214a.19.19 0 00.064.254c.368.235.874.679 1.026.884.019.026.007.058-.025.044-.525-.236-1.25-.43-2.171-.43-.922 0-1.646.194-2.171.43-.033.014-.046-.015-.025-.044.15-.203.647-.639 1.013-.877zM7.02 5.65a.005.005 0 01.008-.003c.508.375 1.211.625 1.815.647a.015.015 0 01.012.008 7.933 7.933 0 01.515 1.227 2.766 2.766 0 00-.163.194c-1.036 1.31-1.197 3.318-.995 4.61.218 1.387.696 2.295.9 2.177.006-.003.003.005 0 .014-.048.14-.213.225-.34.138-.52-.355-1.51-2.592-1.813-5.51-.179-1.714-.11-2.807.061-3.502zm1.599.103a2.998 2.998 0 01-1.498-.62.014.014 0 01-.004-.016 1.974 1.974 0 01.267-.504.005.005 0 01.004 0 2.506 2.506 0 00.713.413 5.776 5.776 0 01.524.722l-.001.003a.005.005 0 01-.005.002zM7.113.674a.025.025 0 00-.02.006 2.832 2.832 0 00-.235.214c-.008.008-.01.021.005.023.934.105 1.877.652 2.38.933.018.01.035-.066-.016-.116-.67-.65-1.568-.997-2.114-1.06zm-.23.91a.127.127 0 01.092-.048c.313-.006.97.124 1.567.406.018.004.026-.072-.044-.13-.43-.358-1.276-.654-1.824-.687a.026.026 0 00-.022.01 2.975 2.975 0 00-.623 1.498.006.006 0 00.007.003c.168-.06.334-.115.483-.157a.046.046 0 00.034-.037c.048-.277.144-.544.282-.789a.437.437 0 01.049-.069zM9 0c-.562 0-1.113.158-1.589.457-.015.01-.039.024-.046.03-.018.012-.017.02.01.025.72.138 1.507.534 2.577 1.27.029.02.028-.08-.006-.125C9.741 1.38 9.021.814 8.294.533a.008.008 0 010-.016 2.489 2.489 0 013.152 1.934.062.062 0 00.045.05 9.914 9.914 0 01.478.144l.001-.001V2.64A2.991 2.991 0 009 0zM5.023 17.148c-2.2-1.29-3.67-3.62-3.67-6.28 0-2.185.994-4.148 2.57-5.494a.338.338 0 00.116-.301L3.9 4.035a.005.005 0 00-.005-.005l-.003.001C1.876 5.517.575 7.86.575 10.495c0 3.12 1.821 5.828 4.493 7.191h.006l.001-.003.07-.183a.29.29 0 00-.122-.352zM4.09 6.484c-1.375 1.285-2.158 2.992-2.158 4.83 0 1.378.477 2.62 1.188 3.774l.062.1c.025.044.007.065 0 .058a6.9 6.9 0 01-1.54-4.302c-.01-1.958.92-3.883 2.476-5.232a.005.005 0 01.007 0l.001.003.066.486a.327.327 0 01-.102.283zm11.653-.86a8.329 8.329 0 00-1.639-1.594h-.002l-.002.002-.001.003-.14 1.038a.338.338 0 00.117.301c1.575 1.346 2.568 3.309 2.568 5.495 0 2.659-1.468 4.988-3.669 6.279a.29.29 0 00-.122.352l.07.183v.002l.003.001h.004c2.672-1.363 4.493-4.072 4.493-7.191 0-1.766-.592-3.48-1.68-4.871zm-1.938.577l.066-.486.001-.003.002-.001h.006c1.554 1.35 2.485 3.275 2.474 5.233a6.9 6.9 0 01-1.539 4.302c-.007.007-.025-.014 0-.058l.062-.1c.711-1.154 1.188-2.396 1.188-3.773 0-1.84-.783-3.546-2.158-4.831a.327.327 0 01-.102-.283zm-1.521 11.77c-.188-1.341-1.741-1.877-3.285-1.877-1.545 0-3.098.536-3.285 1.877-.006.03.01.032.021.027.834-.437 1.968-.687 3.264-.687 1.295 0 2.43.25 3.263.687.011.005.027.002.021-.027z" fill="#fff"/></g><defs><clipPath id="clip0_2957_12701"><path fill="#fff" d="M0 0h18v18H0z"/></clipPath></defs></svg>