<svg id="Art" xmlns="http://www.w3.org/2000/svg" width="128" height="109.39"><defs><style>.cls-1{fill:#ee2364}.cls-2{fill:#00b1e5}</style></defs><g id="Artwork"><path class="cls-1" d="M0 68.444l20.291 11.642 10.824-7.352V59.807L0 68.444z"/><path class="cls-2" d="M75.173 44.804a19.25 19.25 0 014.03-6.48 19.352 19.352 0 0127.185-1.09l12.74-6.815-31.189-14.415-12.382 20.063-1.154 7.202a13.358 13.358 0 01.77 1.535z"/><path class="cls-1" d="M74.403 43.269l1.154-7.202 3.846-23.995-8.223-3.8-3.248 27.84-.726-26.702-7.342 5.345-.517 20.653-1.677-22.024 9.54-6.947L53.285 0l3.673 36.725 3.595-.126c5.231-.134 10.885 1.512 13.851 6.67zm2.894-41.212L71.363 6.38l5.072 2.343.862-6.666z"/><path class="cls-2" d="M42.096 9.09L15.488 30.688l14.404 6.984 27.065-.947L42.096 9.09z"/><path class="cls-1" d="M31.115 75.879L9.685 92.435l36.591 2.532 10.546-12.612-25.707 3.621V75.879z"/><path class="cls-2" d="M64.073 81.334l-7.251 1.021-8.209 27.034 52.125-7.332L83.553 81.8l-19.48 2.001v-2.467z"/><path class="cls-1" d="M86.823 81.465l12.827 13.79 25.761-12.036-11.213-6.17-.66 1.671-26.715 2.745z"/><path d="M113.538 78.72l.66-1.67L128 42.061 112.308 47.3a19.43 19.43 0 00-37.135-2.496 13.358 13.358 0 00-.77-1.535c-2.966-5.157-8.62-6.804-13.85-6.67l-3.596.126-27.065.947-24.034.841 13.253 20.04 12.004-1.702v29.125l25.707-3.62 7.25-1.022V83.8l19.48-2 3.271-.336z" fill="#10044a"/><path d="M93.32 35.874a15.716 15.716 0 11-11.004 26.879l18-6 1.537-4.031L80.361 60.4a15.585 15.585 0 01-.691-1.123l24.2-10.117 1.49-4.257-26.827 11.853a15.323 15.323 0 01-.37-1.208l19.908-10.59 1.83-4.748-22.204 12.41a15.707 15.707 0 0115.624-16.746zm17.606 39.4l10.73-27.198-8.9 2.971a19.375 19.375 0 01-35.196 11.75l-9.791 3.268v3.105l-8.622 1.207 11.151-14.774c4.7-6.285 1.45-15.7-9.616-15.31l-48.103 1.683 8.326 12.59 13.906-1.97v29.138l10.259-1.422v-29.17l16.505-2.334c2.37-.333 3.136 1.66 1.924 3.246L48.79 71.414v8.362l18.979-2.7v2.631z" fill="#fff"/></g></svg>