<svg xmlns="http://www.w3.org/2000/svg" xmlns:xlink="http://www.w3.org/1999/xlink"><symbol viewBox="0 0 100 100" id="icn-arrow-right"><path d="M63.68 73.227c.39.391.902.586 1.414.586s1.024-.195 1.414-.586L87.414 52.32a2 2 0 000-2.828L66.508 28.586a2 2 0 10-2.828 2.828L81.265 49H14a2 2 0 000 4h67.078L63.68 70.398a1.999 1.999 0 000 2.829z"/></symbol><symbol viewBox="0 0 73 73" id="icn-ball" xmlns="http://www.w3.org/2000/svg"><path d="M29.28 67.35L25.26 55a1.2 1.2 0 00-1.14-.83H10.17a31.5 31.5 0 01-5.28-15.76l10-7a1.19 1.19 0 00.46-1.35l-4.09-12.67A31.87 31.87 0 0124.47 7.18l11.34 8.23a1.2 1.2 0 00.7.23 1.17 1.17 0 00.7-.23l11.34-8.23a31.84 31.84 0 0113.57 10.7l-4 12.19a1.2 1.2 0 00.36 1.28l9.55 8.23a31.49 31.49 0 01-5.21 14.55L51 54.15a1.19 1.19 0 00-1.12.79l-4.37 12a31.12 31.12 0 01-16.23.46zM36.5 0a36.49 36.49 0 00-7.94 72.1 1.19 1.19 0 00.7.23h.18A36.5 36.5 0 1036.5 0z"/><path d="M45.94 50.62l5.13-15.78a1.2 1.2 0 00-.43-1.34l-13.43-9.75a1.2 1.2 0 00-1.41 0L22.38 33.5a1.19 1.19 0 00-.43 1.34l5.13 15.78a1.2 1.2 0 001.14.83H44.8a1.2 1.2 0 001.14-.83z"/></symbol><symbol viewBox="0 0 32 32" id="icn-caret-down"><path d="M.5 7c-.3 0-.388.206-.188.406l15.375 19.188c.2.2.425.2.625 0L31.687 7.406c.2-.2.113-.406-.188-.406h-31z"/></symbol><symbol fill="none" class="admatch-card-list-mobile__button-icon" viewBox="0 0 10 7" id="icn-chevron-down" xmlns="http://www.w3.org/2000/svg"><path d="M1 1l4 4 4-4" stroke="#fff" stroke-width="2"/></symbol><symbol fill="none" viewBox="0 0 7 10" id="icn-chevron-right" xmlns="http://www.w3.org/2000/svg"><path d="M1.5 9l4-4-4-4" stroke="#fff" stroke-width="2"/></symbol><symbol viewBox="0 0 24 24" id="icn-close-thick" xmlns="http://www.w3.org/2000/svg"><path d="M3.038 24.002l8.984-8.968 8.983 8.968L24 20.969l-8.984-8.968L24 3.033 20.962 0l-8.984 8.968L3.038.087 0 3.12l8.984 8.968-8.94 8.925z"/></symbol><symbol viewBox="0 0 14 14" id="icn-cross" xmlns="http://www.w3.org/2000/svg"><path fill="#fff" d="M.88 12.184L12.196.87l1.403 1.425L2.284 13.609z"/><path fill="#fff" d="M2.295.88l11.314 11.315-1.425 1.403L.87 2.284z"/></symbol><symbol viewBox="0 0 70.95 69.94" id="icn-expand" xmlns="http://www.w3.org/2000/svg"><path d="M14.59 61.44h12.13a4.25 4.25 0 010 8.5H4.13A4.12 4.12 0 010 65.82v-22.6a4.25 4.25 0 018.5 0v12.13l15.7-15.7a4.3 4.3 0 016.09 0 4.3 4.3 0 010 6.09l-15.7 15.7zM56.36 8.5H44.23a4.25 4.25 0 010-8.5h22.59a4.12 4.12 0 014.13 4.13v22.59a4.25 4.25 0 01-8.5 0V14.59l-15.7 15.7a4.3 4.3 0 01-6.09 0 4.3 4.3 0 010-6.09l15.7-15.7zM8.625 14.924l.051 12.13a4.25 4.25 0 01-8.5.036L.081 4.5A4.12 4.12 0 014.184.353l22.6-.095a4.25 4.25 0 01.035 8.5l-12.13.05 15.766 15.634a4.3 4.3 0 01.026 6.09 4.3 4.3 0 01-6.09.026L8.625 14.924zM62.299 55.2l-.025-12.13a4.25 4.25 0 018.5-.017l.046 22.59a4.12 4.12 0 01-4.122 4.138l-22.59.046a4.25 4.25 0 01-.017-8.5l12.13-.024L40.49 45.635a4.3 4.3 0 01-.012-6.09 4.3 4.3 0 016.09-.013L62.299 55.2z"/></symbol><symbol fill="none" viewBox="0 0 12 13" id="icn-external" xmlns="http://www.w3.org/2000/svg"><path fill="currentColor" d="M2.132 8.808L7.79 3.151l1.403 1.425-5.657 5.657z"/><path d="M9.063 8.948V3.291H3.406" stroke="currentColor" stroke-width="2"/></symbol><symbol viewBox="0 0 16 16" id="icn-facebook" xmlns="http://www.w3.org/2000/svg"><path d="M8.516 15.944H.88a.88.88 0 01-.88-.88V.88A.88.88 0 01.88 0h14.184a.88.88 0 01.88.88v14.184a.88.88 0 01-.88.88H11V9.77h2.072l.31-2.407h-2.382V5.827c0-.697.193-1.171 1.192-1.171h1.275V2.502c-.22-.03-.977-.095-1.857-.095-1.837 0-3.095 1.121-3.095 3.18v1.775H6.438V9.77h2.078v6.174z" fill-rule="evenodd"/></symbol><symbol fill="none" viewBox="0 0 24 24" id="icn-facebook-color" xmlns="http://www.w3.org/2000/svg"><rect width="95%" height="95%" fill="#fff"/><path fill-rule="evenodd" clip-rule="evenodd" d="M1.325 24A1.325 1.325 0 010 22.675V1.325C0 .593.593 0 1.325 0h21.35C23.407 0 24 .593 24 1.325v21.35c0 .732-.593 1.325-1.325 1.325H16.56v-9.294h3.12l.466-3.622H16.56V8.77c0-1.048.29-1.763 1.795-1.763h1.918v-3.24c-.332-.045-1.47-.143-2.795-.143-2.766 0-4.659 1.688-4.659 4.788v2.67H9.692v3.623h3.127V24H1.325z" fill="#1878F3"/></symbol><symbol viewBox="96 93 322 324" id="icn-facebook-messenger" xmlns="http://www.w3.org/2000/svg"><path d="M257 93c-88.918 0-161 67.157-161 150 0 47.205 23.412 89.311 60 116.807V417l54.819-30.273C225.449 390.801 240.948 393 257 393c88.918 0 161-67.157 161-150S345.918 93 257 93zm16 202l-41-44-80 44 88-94 42 44 79-44-88 94z"/></symbol><symbol viewBox="0 0 16 16" id="icn-google" xmlns="http://www.w3.org/2000/svg"><path d="M8 0C3.6 0 0 3.6 0 8s3.6 8 8 8 8-3.6 8-8-3.6-8-8-8zM5.8 13.4c-1.8 0-3.3-.7-3.3-1.9s1.4-2.3 3.1-2.3h.6c-.3-.2-.4-.5-.4-.9 0-.2.1-.4.2-.6h-.3c-1.5 0-2.4-1-2.4-2.3 0-1.3 1.3-2.3 2.8-2.3h3.2l-.9.5h-1c.7.3 1 1 1 1.8 0 .7-.4 1.3-.9 1.7-.5.4-.6.6-.6.9 0 .3.6.8.8 1 .8.6 1.1 1.1 1.1 2.1.1 1.1-1 2.3-3 2.3zM12 7v2h-1V7H9V6h2V4h1v2h2v1h-2z"/><path d="M6.8 9.6c-.3 0-.5-.1-.8-.1-1.2 0-2.3.7-2.3 1.7 0 .9.9 1.7 2.1 1.7 1.7 0 2.3-.7 2.3-1.7v-.3c-.2-.5-.7-.8-1.3-1.3zM7.3 5.5c-.1-1.1-.9-1.9-1.7-2-.8 0-1.4.8-1.2 1.9.1 1.1.9 2 1.7 2 .8 0 1.4-.8 1.2-1.9z"/></symbol><symbol fill="none" viewBox="0 0 293 226" id="icn-icc-bg" xmlns="http://www.w3.org/2000/svg"><path fill-rule="evenodd" clip-rule="evenodd" d="M181.573 122.917c25.083-45.439 66.877-85.291 78.813-95.54 8.172-7.51 6.992-14.19 6.992-14.19-1.704-7.07-15.574-11.527-33.333-12.879C111.872-6.078 3.249 87.594.112 209.567c-1.024 39.871 4.974 69.126 19.156 98.814 4.336 8.861 14.381 6.308 15.46-.997C37.6 251.36 56.744 181.615 76.033 147.253c12.93-21.542 26.196-43.325 43.155-29.081 6.956 7.365-3.637 20.046-14.815 44.057-19.253 43.433-27.214 82.018-32.887 109.988-5.974 34.38-7.986 70.34-5.191 100.232 2.541 43.842 21.957 71.361 34.146 62.927 7.901-6.704-4.896-13.246-1.06-21.47 0 0 2.379-4.734 7.793-4.746 0 0 2.077.367 6.449.066 7.926-.486 6.107-13.462 6.107-13.462-4.222-45.902 5.035-103.218 5.035-103.218 9.894-66.086 31.737-124.183 56.807-169.629zm226.361-10.489s-4.104-6.556 2.126-14.822c0 0 3.738-4.149 10.651-5.332 0 0 1.833-.294 4.032-.678 0 0 7.727-1.213 7.47-9.816 0 0 .149-7.432-11.232-8.537 0 0-10.483-1.002-21.955 4.125 0 0-23.68 9.371-56.758 43.453-25.07 25.923-56.345 79.745-73.783 137.301-17.755 58.594-25.285 113.058-16.311 169.437 0 0 5.145 27.52 19.959 37.762 0 0 4.972 3.596 9.98 1.855 0 0 2.774-1.267 3.804-3.032 1.174-1.885 2.378-5.631-.06-9.101 0 0-.755-1.231-1.857-2.918 0 0-2.444-3.722-2.971-8.146 0 0-1.432-7.775 2.156-12.524 2.978-4.472 7.279-5.637 7.279-5.637 74.927-24.705 138.963-99.688 145.103-192.593 2.426-46.449-5.152-84.205-27.633-120.797zm-73.887-27.777s12.411-11.139 22.276-17.433c0 0 4.855-2.982 4.92-8.887 0 0 .245-5.659-6.381-11.199 0 0-2.034-1.886-3.478-4.311 0 0-2.212-3.929.454-9.768 0 0 2.135-4.42 6.668-6.024 0 0 2.123-.887 7.556-2.234 0 0 3.316-.473 5.207-2.06 2.141-1.893 2.35-5.857 1.205-8.558 0 0-1.557-4.378-11.475-5 0 0-6.656-.953-15.602 1.126 0 0-6.585 1.24-15.579 4.994-5.361 2.886-91.173 36.261-147.605 203.529 0 0-24.65 77.266-26.791 159.538 0 0-3.519 57.496 15.286 88.937 0 0 2.72 4.988 8.905 9.827 0 0 5.194 4.45 10.634-.371 0 0 5.469-4.282-.167-13.169 0 0-.871-1.336-1.939-4.6 0 0-1.342-5.114.662-9.875 0 0 2.404-7.965 12.143-9.025 0 0 9.859.27 14.547-5.767 0 0 4.586-6.539 3.059-16.013 0 0-1.139-12.169-2.23-28.207-1.664-28.583.077-54.059 7.121-91.572 0 0 10.234-49.897 20.451-75.109 10.216-25.212 29.277-80.128 90.153-138.769z" fill="#006BFF"/></symbol><symbol viewBox="0 0 20 20" id="icn-instagram" xmlns="http://www.w3.org/2000/svg"><path d="M9.949 0c2.702 0 3.04.011 4.102.06 1.059.048 1.782.216 2.415.462a4.877 4.877 0 011.762 1.148 4.877 4.877 0 011.147 1.762c.246.633.415 1.356.463 2.415.048 1.061.06 1.4.06 4.102 0 2.702-.012 3.04-.06 4.102-.048 1.059-.217 1.782-.463 2.415a4.877 4.877 0 01-1.147 1.762 4.877 4.877 0 01-1.762 1.147c-.633.246-1.356.415-2.415.463-1.061.048-1.4.06-4.102.06-2.702 0-3.04-.012-4.102-.06-1.059-.048-1.782-.217-2.415-.463a4.877 4.877 0 01-1.762-1.147 4.877 4.877 0 01-1.148-1.762C.276 15.833.108 15.11.06 14.05.01 12.99 0 12.65 0 9.949c0-2.702.011-3.04.06-4.102.048-1.059.216-1.782.462-2.415A4.877 4.877 0 011.67 1.67 4.877 4.877 0 013.432.522C4.065.276 4.788.108 5.847.06 6.908.01 7.247 0 9.949 0zm0 1.793c-2.657 0-2.971.01-4.02.058-.97.044-1.497.206-1.848.342-.464.18-.795.396-1.144.744-.348.349-.563.68-.744 1.144-.136.35-.298.878-.342 1.848-.048 1.049-.058 1.363-.058 4.02 0 2.656.01 2.971.058 4.02.044.97.206 1.497.342 1.847.18.465.396.796.744 1.144.349.349.68.564 1.144.745.35.136.878.298 1.848.342 1.049.048 1.363.058 4.02.058 2.657 0 2.971-.01 4.02-.058.97-.044 1.497-.206 1.847-.342.465-.18.796-.396 1.144-.745.349-.348.564-.68.745-1.144.136-.35.298-.877.342-1.847.048-1.049.058-1.364.058-4.02 0-2.657-.01-2.971-.058-4.02-.044-.97-.206-1.497-.342-1.848a3.082 3.082 0 00-.745-1.144 3.082 3.082 0 00-1.144-.744c-.35-.136-.877-.298-1.847-.342-1.049-.048-1.364-.058-4.02-.058zm0 3.047a5.109 5.109 0 110 10.218 5.109 5.109 0 010-10.218zm0 8.425a3.316 3.316 0 100-6.632 3.316 3.316 0 000 6.632zm6.504-8.627a1.194 1.194 0 11-2.387 0 1.194 1.194 0 012.387 0z"/></symbol><symbol viewBox="0 0 14 14" id="icn-link" xmlns="http://www.w3.org/2000/svg"><g fill-rule="evenodd"><path d="M13.01 1.243L12.757.99a3.39 3.39 0 00-4.788 0l-1.52 1.52a.7.7 0 10.99.99l1.52-1.52a1.989 1.989 0 012.808 0l.253.253a1.989 1.989 0 010 2.809l-2.43 2.43c-.297.297-.672.49-1.084.556a1.995 1.995 0 01-1.725-.555l-.252-.252a2.098 2.098 0 01-.204-.239.7.7 0 10-1.131.825c.103.142.218.277.344.403l.253.254a3.395 3.395 0 002.94.947 3.363 3.363 0 001.849-.947l2.43-2.43a3.392 3.392 0 000-4.79z"/><path d="M6.563 10.5l-1.52 1.52a1.988 1.988 0 01-2.807 0l-.254-.254a1.972 1.972 0 01-.581-1.404c0-.53.206-1.029.581-1.404l2.43-2.43c.297-.297.67-.489 1.083-.556a1.995 1.995 0 011.726.555l.252.253c.075.074.143.154.204.237a.7.7 0 101.131-.824 3.432 3.432 0 00-.345-.403l-.253-.254a3.392 3.392 0 00-2.941-.947 3.36 3.36 0 00-1.847.947L.992 7.968C.352 8.608 0 9.458 0 10.362c0 .904.353 1.754.992 2.394l.253.253c.66.66 1.527.99 2.394.99.868 0 1.734-.33 2.394-.99l1.52-1.519a.7.7 0 10-.99-.99z"/></g></symbol><symbol fill="none" viewBox="0 0 24 24" id="icn-logo-cwc" xmlns="http://www.w3.org/2000/svg"><g clip-path="url(#aqclip0_2934_546)"><path d="M14.005 5.067s1.25.743 2.16 2.564a9.365 9.365 0 00-1.743-.69s1.199.954 1.582 2.095a8.627 8.627 0 00-1.366-.591s.99 1.107 1.208 1.897c0 0 .408-2.331.49-4.482a9.944 9.944 0 00-2.331-.793zm-3.59 15.261a.253.253 0 00.076-.353C7.57 15.44 6.673 8.392 6.5 5.009c0-.262.023-.353.13-.423.44-.287 1.776-.84 2.568-.98.176-.03.288.099.288.322v1.917c0 .003-.001.006-.003.008-.548.712-1.126 2.434-.692 6.414.388 3.558 1.691 7.043 2.629 7.67 1.33.89 1.911-2.757 2.042-3.537.565-3.364-.273-8.06-2.733-10.451a.013.013 0 01-.004-.01V3.733c0-.167.04-.294.193-.386.123-.049.254-.074.386-.075 1.619-.121 3.928.174 5.97 1.265.197.105.213.287.203.491-.172 3.393-1.182 9.85-4.012 14.953a.254.254 0 00.085.337c.491.314 1.166.906 1.368 1.18.025.034.01.077-.033.058-.7-.315-1.666-.572-2.895-.572s-2.195.257-2.895.572c-.043.019-.06-.02-.033-.058.2-.271.862-.853 1.352-1.17zM9.36 7.531a.006.006 0 01.007-.004l.003.001c.678.5 1.615.834 2.42.862a.02.02 0 01.017.011 10.576 10.576 0 01.686 1.637 3.707 3.707 0 00-.218.258c-1.38 1.746-1.596 4.424-1.326 6.146.29 1.85.929 3.06 1.2 2.903.008-.004.005.007 0 .02-.064.186-.284.3-.454.183-.692-.473-2.013-3.456-2.417-7.347-.238-2.285-.147-3.742.082-4.67zm2.131.139a3.997 3.997 0 01-1.996-.828.018.018 0 01-.006-.02 2.632 2.632 0 01.356-.673.007.007 0 01.005.001c.282.231.6.415.941.543a.023.023 0 01.01.007 7.71 7.71 0 01.698.963l-.001.004a.007.007 0 01-.007.003zM9.484.899a.033.033 0 00-.025.007c-.11.09-.215.185-.314.286-.01.01-.014.028.007.03 1.245.14 2.502.87 3.173 1.245.023.013.046-.089-.022-.155C11.41 1.445 10.213.982 9.484.9zM9.18 2.112A.17.17 0 019.3 2.05c.417-.009 1.295.164 2.09.54.023.006.035-.096-.06-.174-.572-.476-1.7-.871-2.43-.915a.035.035 0 00-.03.013A3.967 3.967 0 008.04 3.51a.008.008 0 00.01.005c.224-.082.445-.154.644-.21a.061.061 0 00.044-.049c.065-.37.193-.725.377-1.052a.583.583 0 01.065-.092zM12 0c-.75 0-1.484.21-2.118.61-.02.012-.053.03-.063.038-.023.017-.023.028.014.035.96.184 2.009.711 3.437 1.694.037.026.036-.106-.009-.167-.274-.37-1.234-1.124-2.203-1.5a.011.011 0 01-.005-.004.012.012 0 01-.001-.006c0-.002 0-.005.002-.006A3.161 3.161 0 0112 .556a3.318 3.318 0 013.262 2.713.082.082 0 00.059.064 13.309 13.309 0 01.635.196l.002-.002.002-.002v-.003A3.988 3.988 0 0012.001 0zM6.698 22.864c-2.934-1.721-4.893-4.827-4.893-8.373 0-2.914 1.324-5.53 3.425-7.326a.45.45 0 00.156-.402L5.2 5.38a.007.007 0 00-.004-.006.007.007 0 00-.007.001C2.502 7.355.768 10.478.768 13.993c0 4.16 2.427 7.771 5.99 9.589a.007.007 0 00.006 0l.002-.002.002-.002.093-.245a.386.386 0 00-.163-.47zM5.455 8.645c-1.833 1.714-2.877 3.99-2.877 6.441 0 1.837.636 3.493 1.584 5.031l.083.134c.033.059.009.086 0 .077a9.2 9.2 0 01-2.053-5.735c-.015-2.612 1.227-5.178 3.3-6.978a.007.007 0 01.01.001l.001.004.089.649a.436.436 0 01-.137.376zm15.537-1.147a11.106 11.106 0 00-2.184-2.124.007.007 0 00-.006.002.006.006 0 00-.002.004l-.186 1.383a.451.451 0 00.156.402c2.1 1.795 3.425 4.412 3.425 7.327 0 3.545-1.959 6.65-4.893 8.371a.386.386 0 00-.162.47l.092.245.002.002.002.002a.007.007 0 00.006 0c3.563-1.818 5.99-5.43 5.99-9.589 0-2.354-.789-4.64-2.24-6.495zm-2.584.77l.089-.648.001-.004.003-.002a.007.007 0 01.007.001c2.073 1.8 3.315 4.366 3.3 6.978a9.2 9.2 0 01-2.052 5.735c-.01.01-.034-.018 0-.077.007-.014.038-.062.082-.134.948-1.538 1.584-3.194 1.584-5.03 0-2.453-1.044-4.728-2.877-6.442a.435.435 0 01-.137-.376zM16.38 23.962c-.25-1.788-2.321-2.503-4.38-2.503-2.059 0-4.13.715-4.38 2.503-.007.04.014.044.029.036 1.111-.583 2.623-.915 4.351-.915 1.728 0 3.24.332 4.351.915.015.008.036.003.029-.036z" fill="#fff"/></g><defs><clipPath id="aqclip0_2934_546"><path fill="#fff" d="M0 0h24v24H0z"/></clipPath></defs></symbol><symbol fill="none" viewBox="0 0 24 24" id="icn-logo-t20wc" xmlns="http://www.w3.org/2000/svg"><mask id="ara" style="mask-type:alpha" maskUnits="userSpaceOnUse" x="0" y="0" width="24" height="24"><path d="M24 0H0v24h24V0z" fill="#fff"/></mask><g mask="url(#ara)"><path d="M0 14.553l3.805 2.161 2.03-1.365v-2.4L0 14.553z" fill="#7729EE"/><path d="M14.098 10.164c.168-.447.425-.856.755-1.203a3.654 3.654 0 015.097-.202l2.389-1.265-5.848-2.676-2.322 3.724-.216 1.337c.054.092.103.187.145.285z" fill="#FF3054"/><path d="M13.95 9.88l.216-1.338.72-4.455-1.541-.705-.609 5.169-.136-4.958-1.377.993-.097 3.834-.314-4.089 1.789-1.29L9.99 1.846l.688 6.818.674-.023c.981-.025 2.041.28 2.597 1.238zM14.493 2.229l-1.113.802.951.435.162-1.237z" fill="#7729EE"/><path d="M7.895 3.534l-4.989 4.01L5.607 8.84l5.075-.176-2.787-5.13z" fill="#FF3054"/><path d="M5.836 15.933l-4.018 3.073 6.86.47 1.978-2.34-4.82.671v-1.874z" fill="#7729EE"/><path d="M12.013 16.946l-1.36.19-1.538 5.018 9.773-1.36-3.222-3.762-3.653.372v-.458z" fill="#FF3054"/><path d="M16.281 16.97l2.405 2.56 4.83-2.234-2.102-1.146-.124.31-5.009.51z" fill="#7729EE"/><path d="M21.289 16.46l.124-.31L24 9.655l-2.942.972a3.632 3.632 0 00-3.307-2.796 3.644 3.644 0 00-3.656 2.333 2.475 2.475 0 00-.144-.285c-.556-.958-1.616-1.263-2.597-1.238l-.674.023-5.075.176-4.506.156 2.485 3.72 2.25-.316v5.407l4.82-.672 1.36-.19v.459l3.653-.372.613-.062 5.009-.51z" fill="#0D1635"/><path d="M17.498 8.507a2.942 2.942 0 012.855 2.15 2.905 2.905 0 01-1.36 3.288 2.969 2.969 0 01-3.558-.449l3.375-1.113.288-.749-4.03 1.426a2.91 2.91 0 01-.13-.209l4.539-1.878.279-.79-5.03 2.2a2.825 2.825 0 01-.07-.224l3.733-1.966.343-.882-4.163 2.304a2.898 2.898 0 01.785-2.182 2.959 2.959 0 012.145-.926zM20.8 15.82l2.012-5.05-1.668.552a3.6 3.6 0 01-2.481 3.52 3.653 3.653 0 01-4.119-1.338l-1.835.606v.577l-1.617.224 2.09-2.743c.882-1.167.273-2.915-1.802-2.842l-9.02.312 1.562 2.338 2.607-.366v5.41l1.923-.265v-5.415l3.095-.433c.444-.062.588.308.36.602L9.15 15.104v1.553l3.559-.502v.489l8.091-.823z" fill="#fff"/></g></symbol><symbol viewBox="0 0 19 13" id="icn-mail" xmlns="http://www.w3.org/2000/svg"><path d="M1.9 0C1.486 0 1.106.134.794.361L.802.37l8.312 7.914c.184.175.588.175.772 0L18.198.369l.008-.008A1.871 1.871 0 0017.1 0H1.9zM.186 1.098A1.94 1.94 0 000 1.926v9.148c0 .363.104.697.275.986l5.878-5.274L.186 1.098zm18.628 0l-5.967 5.688 5.878 5.273c.171-.288.275-.622.275-.985V1.926a1.94 1.94 0 00-.186-.828zM6.85 7.448l-5.9 5.289c.28.164.602.263.95.263h15.2c.348 0 .67-.099.95-.263l-5.9-5.29-1.611 1.536a1.509 1.509 0 01-2.078 0L6.85 7.448z" fill-rule="evenodd"/></symbol><symbol viewBox="0 0 65.25 43.64" id="icn-miss-p" xmlns="http://www.w3.org/2000/svg"><defs><style>.atcls-1{fill:#d80e0e}.atcls-2{fill:#fff}</style></defs><g id="atLayer_2" data-name="Layer 2"><path class="atcls-1" d="M36.71 43.64l-4.22-9.37-4.16 9.37h-9.44l8.48-16.08-7.9-14.33h9.64l3.47 7.72 3.65-7.72h9.5l-8.09 14.09 8.73 16.32h-9.66z"/><path class="atcls-2" d="M63 0H2.25A2.25 2.25 0 000 2.25V36a2.25 2.25 0 004.5 0v-1.72l4-4a1.1 1.1 0 00.48.11 1.12 1.12 0 001.05-.75h15.1l.4-.75h-2.65v-6h.77l-.41-.75h-.35v-.64l-.75-1.36v2h-6v-6h3.8l-.41-.75h-3.4v-6h6v2.85h.75V9.38h6v2.85h.75V9.38h6v2.85h.75V9.38h6v2.85h.75V9.38h6v6h-3.48l-.43.75h3.91v6h-6v-2.36l-.75 1.31v1h-.6l-.43.75h1v6H39.6l.4.75h15.19a1.11 1.11 0 001.54.64l4 4V36a2.25 2.25 0 004.5 0V2.25A2.24 2.24 0 0063 0zM4.5 6.09l3.38 3.38v5.65l-3.38-.76zm0 9l3.38.75v6.48l-3.37.75zm0 18.09v-9.3l3.38-.75v6.12a1.1 1.1 0 00.11.48zm5.3-25L6.09 4.5h6.73l2.29 4.13h-5.05a1.12 1.12 0 00-.26-.43zm5.58 20.67h-5.25v-6h5.25zm0-6.75h-5.25v-6h5.25zm0-6.75h-5.25v-6h5.25zm6.75 7.5v6h-6v-6zM16 8.63L13.68 4.5h6.93L22 8.63zm6.8 0L21.4 4.5h7l.45 4.13zm12.9 0h-6.11l-.45-4.13h7zm13.43 20.25h-6v-6h6zM42.48 8.63h-6.06l.46-4.12h7zm.79 0l1.38-4.13h6.44l-1.83 4.13zm11.86 20.25h-5.25v-6h5.25zm0-6.75h-5.25v-6h5.25zm0-6.75h-5.25v-6h5.25zm.33-7.17a1.17 1.17 0 00-.26.42h-5.12l1.83-4.13h7.25zm5.29 25l-3.49-3.49a1.1 1.1 0 00.11-.48v-6.11l3.38.75zm0-10.11l-3.37-.75v-6.47l3.38-.75zm0-8.75l-3.37.75V9.47l3.38-3.37z"/><path class="atcls-2" d="M34.11 15.38h-2.94l.34.75h2.25l.35-.75z"/></g></symbol><symbol viewBox="0 0 73 73" id="icn-og" xmlns="http://www.w3.org/2000/svg"><path d="M29.28 67.35L25.26 55a1.2 1.2 0 00-1.14-.83H10.17a31.5 31.5 0 01-5.28-15.76l10-7a1.19 1.19 0 00.46-1.35l-4.09-12.67A31.87 31.87 0 0124.47 7.18l11.34 8.23a1.2 1.2 0 00.7.23 1.17 1.17 0 00.7-.23l11.34-8.23a31.84 31.84 0 0113.57 10.7l-4 12.19a1.2 1.2 0 00.36 1.28l9.55 8.23a31.49 31.49 0 01-5.21 14.55L51 54.15a1.19 1.19 0 00-1.12.79l-4.37 12a31.12 31.12 0 01-16.23.46zM36.5 0a36.49 36.49 0 00-7.94 72.1 1.19 1.19 0 00.7.23h.18A36.5 36.5 0 1036.5 0z"/><path d="M45.94 50.62l5.13-15.78a1.2 1.2 0 00-.43-1.34l-13.43-9.75a1.2 1.2 0 00-1.41 0L22.38 33.5a1.19 1.19 0 00-.43 1.34l5.13 15.78a1.2 1.2 0 001.14.83H44.8a1.2 1.2 0 001.14-.83z"/></symbol><symbol fill="none" viewBox="0 0 12 12" id="icn-play" xmlns="http://www.w3.org/2000/svg"><path d="M10.658 5.33a.75.75 0 010 1.34l-9.573 4.787A.75.75 0 010 10.787V1.213A.75.75 0 011.085.543l9.573 4.786z" fill="#006BFF"/></symbol><symbol viewBox="0 0 110.47 151.84" id="icn-red-card-angled" xmlns="http://www.w3.org/2000/svg"><path fill="#F90E00" d="M32.5 150.84a11 11 0 01-10.84-9.09L1.17 25.54a11 11 0 018.92-12.74l66-11.63a11 11 0 0112.74 8.92l20.49 116.21a11 11 0 01-8.92 12.74l-66 11.63a11 11 0 01-1.9.17z"/><path fill="#961008" d="M77.98 0v2a10 10 0 019.85 8.26l20.49 116.21a10 10 0 01-8.11 11.58l-66 11.63a10 10 0 01-11.58-8.11L2.16 25.37a10 10 0 018.11-11.58l66-11.63A10 10 0 0178 2.01v-2m0 0a12 12 0 00-2.08.18l-66 11.63a12 12 0 00-9.73 13.9l20.49 116.2a12 12 0 0013.9 9.73l66-11.63a12 12 0 009.73-13.9L89.8 9.92A12 12 0 0077.98 0z"/></symbol><symbol fill="none" viewBox="0 0 15 16" id="icn-search" xmlns="http://www.w3.org/2000/svg"><path fill="#fff" d="M.143 13.797l4.8-4.8 1.404 1.425-4.8 4.8z"/><circle cx="9" cy="6" r="5" stroke="#fff" stroke-width="2"/></symbol><symbol viewBox="0 0 16 18" id="icn-share" xmlns="http://www.w3.org/2000/svg"><path d="M13.09 0c-1.6 0-2.908 1.278-2.908 2.842 0 .372.07.733.204 1.059l-5.53 2.997a2.934 2.934 0 00-1.947-.74C1.308 6.158 0 7.436 0 9c0 1.565 1.308 2.842 2.91 2.842.751 0 1.437-.28 1.954-.74l5.53 2.998a2.746 2.746 0 00-.212 1.058c0 1.564 1.308 2.842 2.909 2.842C14.692 18 16 16.722 16 15.158c0-1.565-1.308-2.842-2.91-2.842-.87 0-1.654.38-2.189.977L5.47 10.347a2.77 2.77 0 000-2.694L10.9 4.707a2.927 2.927 0 002.19.977C14.692 5.684 16 4.407 16 2.842 16 1.278 14.692 0 13.09 0z" fill-rule="evenodd"/></symbol><symbol viewBox="0 0 84.55 86.13" id="icn-share-facebook"><path d="M38.01 55.82a39.44 39.44 0 015.49.27l.68 30L83.39 45.2a4.33 4.33 0 00-.23-6.14L42.35 0l.54 28.22A50 50 0 00.01 78.88c.08 1.14.06 2.39.15 3.52a42 42 0 0137.85-26.58z"/></symbol><symbol viewBox="0 0 100 100" id="icn-subs-off" xmlns="http://www.w3.org/2000/svg"><path d="M71.586 63.777l23.41-23.418H95L71.586 16.945H59.879l23.414 23.414-23.418 23.418z"/><path d="M50.18 36.223h33.113V44.5H41.902l-.004.004z"/><path fill-opacity=".4" d="M28.414 36.223L5.004 59.641H5l23.414 23.414h11.707l-23.41-23.414 23.414-23.418z"/><path fill-opacity=".4" d="M49.82 63.777H16.707v-8.281l41.391.004.004-.004z"/></symbol><symbol viewBox="0 0 100 100" id="icn-subs-on" xmlns="http://www.w3.org/2000/svg"><path fill-opacity=".4" d="M71.586 63.777l23.41-23.418H95L71.586 16.945H59.879l23.414 23.414-23.418 23.418z"/><path fill-opacity=".4" d="M50.18 36.223h33.113V44.5H41.902l-.004.004z"/><path d="M28.414 36.223L5.004 59.641H5l23.414 23.414h11.707l-23.41-23.414 23.414-23.418z"/><path d="M49.82 63.777H16.707v-8.281l41.391.004.004-.004z"/></symbol><symbol viewBox="0 0 100 100" id="icn-subs-w" xmlns="http://www.w3.org/2000/svg"><path d="M71.586 63.777l23.41-23.418H95L71.586 16.945H59.879l23.414 23.414-23.418 23.418z"/><path d="M50.18 36.223h33.113V44.5H41.902l-.004.004zM28.414 36.223L5.004 59.641H5l23.414 23.414h11.707l-23.41-23.414 23.414-23.418z"/><path d="M49.82 63.777H16.707v-8.281l41.391.004.004-.004z"/></symbol><symbol viewBox="0 0 55 22" id="icn-swipe" xmlns="http://www.w3.org/2000/svg"><path d="M2.449 14.081c-.864 0-1.71-.225-2.331-.711l.648-1.26c.567.432 1.206.639 1.692.639.576 0 .828-.234.828-.531 0-.36-.306-.495-1.08-.756-.954-.324-1.962-.756-1.962-2.034 0-1.251.936-1.899 2.232-1.899.864 0 1.656.225 2.241.702l-.81 1.206c-.432-.351-.927-.594-1.413-.594-.387 0-.693.162-.693.504 0 .324.243.486 1.008.765 1.071.405 2.052.729 2.052 2.016 0 1.422-1.098 1.953-2.412 1.953zM8.12 14L6.113 7.61h1.629l1.071 3.987h.018L9.839 7.61h1.512l.981 3.978h.027l1.08-3.978h1.629L13.043 14h-1.332l-1.089-4.248h-.018L9.461 14H8.12zm8.695 0V7.61h1.539V14h-1.539zm3.736 0V7.61h2.43c1.575 0 2.277.927 2.277 2.205 0 1.422-.945 2.124-2.394 2.124h-.846V14h-1.467zm1.467-3.375h.675c.666 0 1.008-.315 1.008-.846 0-.486-.306-.846-.981-.846h-.702v1.692zM27.059 14V7.61h4.464v1.341h-2.997v1.224h2.718v1.296h-2.718v1.188h3.123V14h-4.59zM54.841 2.112L52.613.12c-.136-.116-.34-.162-.5-.07a.493.493 0 00-.272.44v.788l-4.41.695a.524.524 0 00-.431.533c0 .255.182.487.432.533l4.409.695v.788a.52.52 0 00.272.44.49.49 0 00.5-.07l2.228-1.993A.497.497 0 0055 2.55a.599.599 0 00-.159-.438zM41 2.541a.55.55 0 00-.432-.543L36.16 1.29V.488a.53.53 0 00-.272-.448.482.482 0 00-.5.07l-2.228 2.03a.51.51 0 00-.159.355c0 .142.068.26.159.354l2.228 2.03c.136.118.34.165.5.071a.503.503 0 00.272-.448V3.7l4.41-.708c.227.045.431-.191.431-.451z"/><path d="M52.663 9.282c-.53-.07-1.015.14-1.36.512a1.56 1.56 0 00-1.5-1.188c-.46 0-.898.21-1.175.559-.208-.63-.784-1.095-1.476-1.095-.415 0-.807.186-1.083.466V2.619c0-.792-.553-1.514-1.338-1.607a1.565 1.565 0 00-1.752 1.56v10.53c0 .21-.277.303-.392.117l-1.799-2.75c-.415-.652-1.337-.791-2.052-.303-.715.466-.945 1.398-.53 2.027 0 0 5.027 7.688 5.072 7.734.923 1.281 2.398 2.073 3.99 2.073h1.798A4.945 4.945 0 0054 17.108v-6.174c0-.837-.577-1.56-1.337-1.652z"/></symbol><symbol viewBox="0 0 48 48" id="icn-twitter" xmlns="http://www.w3.org/2000/svg"><path d="M48 8.735a19.235 19.235 0 01-5.655 1.59 10.076 10.076 0 004.33-5.585 19.395 19.395 0 01-6.257 2.447C38.627 5.225 36.066 4 33.231 4c-5.435 0-9.844 4.521-9.844 10.098 0 .791.085 1.56.254 2.3-8.185-.423-15.44-4.438-20.3-10.555a10.281 10.281 0 00-1.332 5.082c0 3.502 1.738 6.593 4.38 8.405a9.668 9.668 0 01-4.462-1.26v.124c0 4.894 3.395 8.977 7.903 9.901a9.39 9.39 0 01-2.595.356c-.634 0-1.254-.061-1.854-.18 1.254 4.01 4.888 6.932 9.199 7.01-3.37 2.71-7.618 4.325-12.23 4.325-.795 0-1.58-.047-2.35-.139C4.359 42.327 9.537 44 15.096 44c18.115 0 28.019-15.385 28.019-28.73 0-.439-.009-.878-.026-1.308A20.211 20.211 0 0048 8.735" fill-rule="evenodd"/></symbol><symbol fill="none" viewBox="0 0 24 20" id="icn-twitter-color" xmlns="http://www.w3.org/2000/svg"><path fill-rule="evenodd" clip-rule="evenodd" d="M23.428 2.623a9.261 9.261 0 01-2.692.746A4.74 4.74 0 0022.798.747a9.316 9.316 0 01-2.98 1.149A4.655 4.655 0 0016.396.4c-2.588 0-4.688 2.122-4.688 4.74 0 .371.04.732.12 1.08-3.897-.199-7.351-2.084-9.666-4.955a4.773 4.773 0 00-.634 2.386c0 1.643.828 3.094 2.086 3.945a4.654 4.654 0 01-2.125-.592v.059c0 2.297 1.617 4.213 3.763 4.647a4.532 4.532 0 01-1.235.167c-.302 0-.597-.029-.883-.084.597 1.882 2.327 3.253 4.38 3.29a9.343 9.343 0 01-5.824 2.03c-.378 0-.752-.022-1.119-.065a13.192 13.192 0 007.189 2.128c8.626 0 13.342-7.222 13.342-13.486 0-.206-.004-.412-.012-.614a9.544 9.544 0 002.338-2.453z" fill="#1DA1F2"/></symbol><symbol viewBox="0 0 90 90" id="icn-whatsapp" xmlns="http://www.w3.org/2000/svg"><path d="M90 43.841c0 24.213-19.779 43.841-44.182 43.841a44.256 44.256 0 01-21.357-5.455L0 90l7.975-23.522a43.38 43.38 0 01-6.34-22.637C1.635 19.628 21.416 0 45.818 0 70.223 0 90 19.628 90 43.841zM45.818 6.982c-20.484 0-37.146 16.535-37.146 36.859 0 8.065 2.629 15.534 7.076 21.61L11.107 79.14l14.275-4.537A37.122 37.122 0 0045.819 80.7c20.481 0 37.146-16.533 37.146-36.857S66.301 6.982 45.818 6.982zm22.311 46.956c-.273-.447-.994-.717-2.076-1.254-1.084-.537-6.41-3.138-7.4-3.495-.993-.358-1.717-.538-2.438.537-.721 1.076-2.797 3.495-3.43 4.212-.632.719-1.263.809-2.347.271-1.082-.537-4.571-1.673-8.708-5.333-3.219-2.848-5.393-6.364-6.025-7.441-.631-1.075-.066-1.656.475-2.191.488-.482 1.084-1.255 1.625-1.882.543-.628.723-1.075 1.082-1.793.363-.717.182-1.344-.09-1.883-.27-.537-2.438-5.825-3.34-7.977-.902-2.15-1.803-1.792-2.436-1.792-.631 0-1.354-.09-2.076-.09s-1.896.269-2.889 1.344c-.992 1.076-3.789 3.676-3.789 8.963 0 5.288 3.879 10.397 4.422 11.113.541.716 7.49 11.92 18.5 16.223C58.2 65.771 58.2 64.336 60.186 64.156c1.984-.179 6.406-2.599 7.312-5.107.9-2.512.9-4.663.631-5.111z"/></symbol><symbol viewBox="0 0 110.47 151.84" id="icn-yellow-card-angled" xmlns="http://www.w3.org/2000/svg"><path fill="#FEDD44" d="M32.5 150.84a11 11 0 01-10.84-9.09L1.17 25.54a11 11 0 018.92-12.74l66-11.63a11 11 0 0112.74 8.92l20.48 116.21a11 11 0 01-8.93 12.7l-66 11.63a11 11 0 01-1.88.21z"/><path fill="#ab952e" d="M78 0v2a10 10 0 019.85 8.26l20.49 116.21a10 10 0 01-8.11 11.58l-66 11.63a10 10 0 01-11.58-8.11L2.15 25.37a10 10 0 018.11-11.58l66-11.63A10 10 0 0178 2V0m0 0a12 12 0 00-2.1.18l-66 11.63A12 12 0 00.18 25.72l20.49 116.21a12 12 0 0013.9 9.73l66-11.63a12 12 0 009.73-13.9L89.8 9.92A12 12 0 0078 0z"/></symbol><symbol viewBox="0 0 138.47 161.84" id="icn-yellow-red-card-angled" xmlns="http://www.w3.org/2000/svg"><path fill="#F90E00" d="M32.5 150.84a11 11 0 01-10.84-9.09L1.17 25.54a11 11 0 018.92-12.74l66-11.63a11 11 0 0112.74 8.92l20.48 116.21a11 11 0 01-8.93 12.7l-66 11.63a11 11 0 01-1.88.21z"/><path fill="#961008" d="M78 0v2a10 10 0 019.85 8.26l20.49 116.21a10 10 0 01-8.11 11.58l-66 11.63a10 10 0 01-11.58-8.11L2.15 25.37a10 10 0 018.11-11.58l66-11.63A10 10 0 0178 2V0m0 0a12 12 0 00-2.1.18l-66 11.63A12 12 0 00.18 25.72l20.49 116.21a12 12 0 0013.9 9.73l66-11.63a12 12 0 009.73-13.9L89.8 9.92A12 12 0 0078 0z"/><path fill="#FEDD44" d="M60.5 160.84a11 11 0 01-10.84-9.09L29.17 35.54a11 11 0 018.92-12.74l66-11.63a11 11 0 0112.74 8.92l20.48 116.21a11 11 0 01-8.93 12.7l-66 11.63a11 11 0 01-1.88.21z"/><path fill="#ab952e" d="M106 10v2a10 10 0 019.85 8.26l20.49 116.21a10 10 0 01-8.11 11.58l-66 11.63a10 10 0 01-11.58-8.11l-20.5-116.2a10 10 0 018.11-11.58l66-11.63A10 10 0 01106 12v-2m0 0a12 12 0 00-2.08.18l-66 11.63a12 12 0 00-9.73 13.9l20.48 116.22a12 12 0 0013.9 9.73l66-11.63a12 12 0 009.73-13.9L117.8 19.92A12 12 0 00106 10z"/></symbol><symbol viewBox="0 0 20 15" id="icn-youtube" xmlns="http://www.w3.org/2000/svg"><path d="M7.856 10.108l-.001-5.433 5.35 2.726-5.35 2.707zm11.746-6.374s-.194-1.333-.787-1.92c-.753-.77-1.597-.774-1.984-.818C14.061.8 9.904.8 9.904.8h-.008S5.74.8 2.969.996c-.388.044-1.23.048-1.985.819C.391 2.4.198 3.734.198 3.734S0 5.299 0 6.864V8.33c0 1.565.198 3.13.198 3.13s.193 1.332.786 1.919c.754.77 1.743.746 2.184.826 1.584.15 6.732.195 6.732.195s4.16-.006 6.931-.202c.387-.045 1.23-.049 1.984-.82.593-.586.787-1.918.787-1.918s.198-1.565.198-3.13V6.863c0-1.564-.198-3.13-.198-3.13z" fill-rule="evenodd"/></symbol><symbol fill="none" viewBox="0 0 24 17" id="icn-youtube-color" xmlns="http://www.w3.org/2000/svg"><rect x="25%" y="25%" width="50%" height="50%" fill="#fff"/><path fill-rule="evenodd" clip-rule="evenodd" d="M22.95 3.2a2.872 2.872 0 00-2.02-2.033C19.147.686 12 .686 12 .686s-7.148 0-8.93.48a2.873 2.873 0 00-2.02 2.035C.57 4.995.57 8.738.57 8.738s0 3.743.478 5.537A2.872 2.872 0 003.07 16.31c1.782.482 8.93.482 8.93.482s7.148 0 8.93-.482a2.871 2.871 0 002.021-2.034c.477-1.794.477-5.537.477-5.537s0-3.743-.478-5.537zM9.662 12.137V5.34l5.974 3.398-5.974 3.398z" fill="red"/></symbol></svg>